<svg xmlns="http://www.w3.org/2000/svg" width="127" height="31" fill="none"><g fill="#020710" clip-path="url(#a)"><path d="M38.22 21.666h8.982v-2.657h-5.789V9h-3.192v12.666zm14.303-1.772c-1.28 0-1.948-1.098-1.948-2.746 0-1.647.668-2.763 1.948-2.763 1.28 0 1.966 1.116 1.966 2.763 0 1.648-.685 2.746-1.966 2.746zm.018 2.055c2.976 0 4.924-2.073 4.924-4.8 0-2.729-1.948-4.801-4.924-4.801-2.957 0-4.941 2.072-4.941 4.8 0 2.728 1.983 4.8 4.941 4.8zM62.615 24.8c1.371 0 2.58-.3 3.391-1.009.74-.655 1.227-1.647 1.227-3.011v-8.184h-2.814v.974h-.036c-.541-.762-1.37-1.24-2.597-1.24-2.29 0-3.878 1.878-3.878 4.535 0 2.781 1.93 4.305 4.004 4.305 1.118 0 1.822-.443 2.363-1.046h.072v.904c0 1.098-.523 1.736-1.768 1.736-.974 0-1.46-.408-1.623-.886h-2.85c.29 1.895 1.966 2.923 4.51 2.923zm-.018-5.774c-1.1 0-1.821-.886-1.821-2.25 0-1.381.721-2.267 1.821-2.267 1.227 0 1.876 1.027 1.876 2.25 0 1.275-.595 2.267-1.876 2.267zm10.42.868c-1.28 0-1.947-1.098-1.947-2.746 0-1.647.667-2.763 1.947-2.763 1.281 0 1.966 1.116 1.966 2.763 0 1.648-.685 2.746-1.966 2.746zm.019 2.055c2.975 0 4.923-2.073 4.923-4.8 0-2.729-1.948-4.801-4.924-4.801-2.957 0-4.941 2.072-4.941 4.8 0 2.728 1.984 4.8 4.942 4.8zm5.782-.283h2.94v-9.07h-2.94v9.07zm0-10.328h2.94V9h-2.94v2.338zm4.215 13.322h2.94v-3.933h.036c.577.761 1.425 1.222 2.615 1.222 2.417 0 4.022-1.878 4.022-4.818 0-2.728-1.497-4.8-3.95-4.8-1.262 0-2.164.548-2.795 1.363h-.054v-1.098h-2.814v12.063zm4.834-4.943c-1.263 0-1.984-1.01-1.984-2.48s.65-2.586 1.93-2.586c1.262 0 1.857 1.027 1.857 2.586 0 1.541-.685 2.48-1.803 2.48zm9.565 2.232c2.417 0 4.203-1.027 4.203-3.012 0-2.32-1.912-2.728-3.535-2.993-1.173-.213-2.219-.301-2.219-.94 0-.566.56-.832 1.28-.832.812 0 1.371.248 1.48 1.063h2.705c-.144-1.789-1.551-2.905-4.166-2.905-2.183 0-3.986.992-3.986 2.905 0 2.126 1.713 2.551 3.318 2.817 1.227.212 2.345.3 2.345 1.116 0 .584-.56.903-1.443.903-.974 0-1.587-.443-1.695-1.346H92.94c.09 2.002 1.786 3.224 4.491 3.224zm8.197-.018c1.281 0 2.092-.496 2.76-1.382h.054v1.116h2.813v-9.07h-2.94v5.067c0 1.08-.613 1.825-1.623 1.825-.938 0-1.388-.55-1.388-1.542v-5.35h-2.922v5.953c0 2.02 1.118 3.383 3.246 3.383zm6.904-.265h2.94V16.58c0-1.08.541-1.842 1.461-1.842.884 0 1.298.567 1.298 1.541v5.386h2.94V16.58c0-1.08.523-1.842 1.461-1.842.884 0 1.299.567 1.299 1.541v5.386h2.939v-5.9c0-2.037-1.046-3.436-3.138-3.436-1.19 0-2.182.496-2.903 1.594h-.037c-.468-.974-1.388-1.594-2.597-1.594-1.334 0-2.218.62-2.795 1.559h-.054v-1.293h-2.814v9.07z"/><path fill-rule="evenodd" d="M15.544.71c8.463 0 15.324 6.738 15.324 15.05 0 8.313-6.86 15.051-15.324 15.051-8.463 0-15.323-6.738-15.323-15.05C.22 7.448 7.08.71 15.544.71zM30.28 15.76c0-7.993-6.598-14.472-14.736-14.472-.656 0-1.303.042-1.936.123.41-.035.824-.053 1.242-.053 7.777 0 14.08 6.192 14.08 13.83s-6.303 13.83-14.08 13.83c-7.362 0-13.404-5.55-14.027-12.622.338 7.698 6.8 13.838 14.721 13.838 8.139 0 14.736-6.48 14.736-14.473zm-1.937-.572c0-7.319-6.041-13.252-13.493-13.252-.605 0-1.2.04-1.784.115.36-.03.723-.045 1.09-.045 7.09 0 12.838 5.645 12.838 12.609 0 6.963-5.748 12.609-12.838 12.609-6.703 0-12.207-5.047-12.787-11.484.295 7.063 6.218 12.7 13.481 12.7 7.452 0 13.493-5.933 13.493-13.252zM14.156 2.584c6.765 0 12.25 5.386 12.25 12.03 0 6.645-5.485 12.032-12.25 12.032-6.608 0-11.994-5.14-12.24-11.572.531 5.806 5.498 10.355 11.546 10.355 6.403 0 11.594-5.098 11.594-11.387 0-6.289-5.19-11.387-11.594-11.387-.33 0-.659.014-.983.04a12.58 12.58 0 0 1 1.677-.111zm10.312 11.458c0-5.97-4.928-10.81-11.006-10.81a11.3 11.3 0 0 0-1.513.102c.27-.02.543-.031.819-.031 5.716 0 10.35 4.551 10.35 10.166 0 5.614-4.634 10.166-10.35 10.166-5.38 0-9.802-4.032-10.303-9.188.216 5.782 5.057 10.405 10.997 10.405 6.078 0 11.006-4.84 11.006-10.81zm-11.7-10.161c5.391 0 9.762 4.292 9.762 9.588 0 5.295-4.37 9.588-9.762 9.588-5.286 0-9.59-4.125-9.758-9.276.453 4.524 4.338 8.06 9.064 8.06 5.03 0 9.107-4.005 9.107-8.946 0-4.94-4.078-8.944-9.107-8.944a9.4 9.4 0 0 0-.686.025c.45-.063.911-.095 1.38-.095zm7.825 9.014c0-4.62-3.814-8.367-8.52-8.367-.429 0-.85.031-1.263.092.188-.014.378-.02.57-.02 4.342 0 7.863 3.458 7.863 7.723s-3.52 7.723-7.863 7.723c-4.07 0-7.417-3.036-7.822-6.928.12 4.518 3.886 8.145 8.516 8.145 4.705 0 8.519-3.746 8.519-8.368zM11.38 5.178c4.018 0 7.275 3.2 7.275 7.146 0 3.946-3.257 7.145-7.275 7.145-3.967 0-7.192-3.118-7.274-6.995.367 3.25 3.173 5.779 6.58 5.779 3.656 0 6.62-2.911 6.62-6.502 0-3.591-2.964-6.503-6.62-6.503-.14 0-.279.005-.417.013a7.46 7.46 0 0 1 1.11-.083zm5.338 6.573c0-3.272-2.7-5.925-6.032-5.925a6.24 6.24 0 0 0-.983.078c.096-.005.191-.007.288-.007 2.97 0 5.377 2.364 5.377 5.281s-2.408 5.281-5.377 5.281c-2.746 0-5.011-2.021-5.337-4.632.042 3.237 2.726 5.848 6.032 5.848 3.331 0 6.032-2.652 6.032-5.924zM9.99 6.473c2.645 0 4.789 2.106 4.789 4.704s-2.144 4.704-4.789 4.704c-2.645 0-4.789-2.106-4.789-4.704v-.019c.275 1.98 2.004 3.505 4.095 3.505 2.283 0 4.133-1.817 4.133-4.06 0-2.241-1.85-4.059-4.133-4.059-.052 0-.103.001-.154.003.275-.048.558-.074.848-.074zm2.85 4.13c0-1.922-1.586-3.481-3.544-3.481S5.752 8.68 5.752 10.604c0 1.923 1.587 3.482 3.545 3.482s3.545-1.56 3.545-3.482z" clip-rule="evenodd"/></g><defs><clipPath id="a"><path fill="#fff" d="M0 0h127v31H0z"/></clipPath></defs></svg>