<svg xmlns="http://www.w3.org/2000/svg" width="140" height="30" fill="none"><path fill="#020710" d="M22.42 13.371a3.656 3.656 0 0 0-1.047 2.93l-.018-.019a4.344 4.344 0 0 1-4.694 4.694l.018.018A3.679 3.679 0 1 0 20 24.312l.019.018a4.344 4.344 0 0 1 4.694-4.694l-.019-.018a3.672 3.672 0 0 0 1.12-7.24 3.672 3.672 0 0 0-3.392.993h-.003z"/><path fill="#020710" d="m15.041 18.636-.019-.018A3.632 3.632 0 0 0 19 14.644l.02.018a4.345 4.345 0 0 1 4.693-4.694l-.019-.018a3.678 3.678 0 1 0-3.318-3.318l-.018-.019a4.344 4.344 0 0 1-4.694 4.694l.018.02a3.632 3.632 0 0 0-3.977 3.973l-.018-.018a4.346 4.346 0 0 1-4.694 4.694l.018.018a3.677 3.677 0 1 0 3.318 3.318l.02.018a4.344 4.344 0 0 1 4.693-4.694z"/><path fill="#020710" d="M8.34 16.629a3.652 3.652 0 0 0 1.045-2.93l.02.019A4.344 4.344 0 0 1 14.1 9.024l-.019-.018a3.677 3.677 0 1 0-3.318-3.318l-.018-.018a4.343 4.343 0 0 1-4.694 4.694l.018.018a3.671 3.671 0 1 0 2.273 6.247H8.34zm30.976-9.974h2.97v14.453h-2.97V6.655zm4.653 9.504a5.248 5.248 0 1 1 5.247 5.226 5.187 5.187 0 0 1-5.247-5.226zm7.524 0a2.279 2.279 0 1 0-2.277 2.34 2.221 2.221 0 0 0 2.277-2.34zm14.807-4.95v9.4c0 3.326-2.593 4.732-5.226 4.732a5.063 5.063 0 0 1-4.692-2.4l2.534-1.465a2.263 2.263 0 0 0 2.257 1.247 1.973 1.973 0 0 0 2.237-2.118V19.7a3.516 3.516 0 0 1-2.891 1.287 5.03 5.03 0 0 1 0-10.057 3.517 3.517 0 0 1 2.89 1.287v-1.01l2.892.002zm-2.89 4.75a2.4 2.4 0 1 0-2.394 2.3 2.24 2.24 0 0 0 2.395-2.3zm4.573.2a5.247 5.247 0 1 1 5.247 5.226 5.187 5.187 0 0 1-5.247-5.226zm7.524 0a2.279 2.279 0 1 0-2.277 2.34 2.22 2.22 0 0 0 2.277-2.34zm4.354-7.603a1.782 1.782 0 1 1 1.782 1.782 1.8 1.8 0 0 1-1.782-1.782zm.3 2.653h2.971v9.9h-2.975l.004-9.9zm15.795 4.951a4.97 4.97 0 0 1-4.732 5.225 3.716 3.716 0 0 1-2.95-1.208v4.891h-2.97V11.21h2.97v.93a3.717 3.717 0 0 1 2.95-1.207 4.97 4.97 0 0 1 4.732 5.227zm-2.97 0a2.356 2.356 0 1 0-2.355 2.414 2.26 2.26 0 0 0 2.355-2.415zm12.134 1.978c0 2.277-1.979 3.247-4.117 3.247a4.334 4.334 0 0 1-4.257-2.356l2.573-1.465a1.627 1.627 0 0 0 1.68 1.168c.712 0 1.069-.218 1.069-.613 0-1.09-4.87-.515-4.87-3.94 0-2.16 1.821-3.247 3.88-3.247a4.328 4.328 0 0 1 3.86 2.118l-2.534 1.366a1.435 1.435 0 0 0-1.326-.871c-.515 0-.832.2-.832.554.004 1.129 4.874.376 4.874 4.039zm10.851-6.929v9.9h-2.97v-.931a3.386 3.386 0 0 1-2.83 1.208c-2 0-3.7-1.425-3.7-4.1v-6.077h2.97v5.642a1.624 1.624 0 0 0 .444 1.3 1.631 1.631 0 0 0 1.278.5c1.089 0 1.841-.633 1.841-2.039v-5.4l2.967-.003zm17.028 3.821v6.078h-2.97v-5.821c0-.99-.475-1.623-1.425-1.623-.99 0-1.545.693-1.545 1.86v5.584h-2.969v-5.821c0-.99-.475-1.623-1.426-1.623-.99 0-1.544.693-1.544 1.86v5.584h-2.97v-9.9h2.97v.91a3.042 3.042 0 0 1 2.653-1.187 2.948 2.948 0 0 1 2.593 1.306 3.261 3.261 0 0 1 2.871-1.306c2.273 0 3.762 1.624 3.762 4.099zm2.514-3.882a2.204 2.204 0 1 0 0-4.408 2.204 2.204 0 0 0 0 4.408z"/></svg>