<svg xmlns="http://www.w3.org/2000/svg" width="93" height="92" fill="none"><g clip-path="url(#a)"><path fill="#fff" d="M44.14 25.467C43.233 17.707 42.277 9.514 42.277 0h8.542c0 9.407-.951 17.59-1.856 25.358-.736 6.331-1.441 12.387-1.572 18.607 4.29-4.475 8.042-9.219 11.972-14.189 4.847-6.127 9.965-12.596 16.691-19.323l6.041 6.04c-6.652 6.652-13.111 11.765-19.244 16.62l-.006.004c-4.995 3.954-9.773 7.736-14.262 12.04 6.197-.131 12.204-.832 18.497-1.566 7.76-.906 15.954-1.862 25.468-1.862v8.542c-9.407 0-17.59-.952-25.358-1.855l-.006-.001c-6.33-.736-12.383-1.44-18.6-1.572 4.47 4.286 9.212 8.037 14.179 11.965l.007.007c6.13 4.845 12.6 9.964 19.326 16.692l-6.04 6.04c-6.652-6.651-11.765-13.11-16.618-19.242l-.012-.016-.01-.013c-3.949-4.987-7.727-9.758-12.024-14.24.13 6.219.836 12.275 1.572 18.606C49.87 74.41 50.82 82.593 50.82 92h-8.542c0-9.514.956-17.707 1.861-25.467l.002-.013c.733-6.288 1.434-12.292 1.565-18.484-4.297 4.482-8.075 9.253-12.025 14.24l-.01.013-.01.015c-4.854 6.132-9.967 12.592-16.619 19.243l-6.04-6.04c6.727-6.728 13.197-11.846 19.324-16.692l.008-.007c4.966-3.928 9.708-7.678 14.18-11.965-6.22.131-12.276.836-18.607 1.572-7.769.904-15.952 1.856-25.358 1.856V41.73c9.514 0 17.707.956 25.467 1.861 6.293.735 12.301 1.436 18.497 1.567-4.49-4.305-9.27-8.089-14.267-12.045-6.133-4.854-12.593-9.967-19.244-16.619l6.04-6.04c6.727 6.727 11.845 13.196 16.691 19.323 3.93 4.97 7.683 9.714 11.973 14.188-.131-6.192-.832-12.196-1.565-18.484l-.002-.013z"/></g><defs><clipPath id="a"><path fill="#fff" d="M.549 0h92v92h-92z"/></clipPath></defs></svg>