<svg xmlns="http://www.w3.org/2000/svg" width="92" height="92" fill="none"><g clip-path="url(#a)"><path fill="#fff" fill-rule="evenodd" d="M48.456 16.12c0-2.03-.472-4.031-1.38-5.846a13.071 13.071 0 0 1-1.355-5.03l-.262-4.198-.262 4.197a13.07 13.07 0 0 1-1.355 5.03 13.073 13.073 0 0 0-1.38 5.847v59.76c0 2.03.473 4.031 1.38 5.846a13.075 13.075 0 0 1 1.355 5.03l.262 4.198.262-4.197c.11-1.751.57-3.462 1.355-5.03a13.07 13.07 0 0 0 1.38-5.847V16.12zm-16.365.148a13.07 13.07 0 0 1 1.38 5.846v47.773c0 2.03-.472 4.031-1.38 5.846a13.075 13.075 0 0 0-1.355 5.03l-.262 4.198-.262-4.197a13.07 13.07 0 0 0-1.355-5.03 13.07 13.07 0 0 1-1.38-5.847V22.114c0-2.03.473-4.031 1.38-5.846a13.077 13.077 0 0 0 1.355-5.03l.262-4.198.262 4.197c.11 1.75.57 3.462 1.355 5.03zm-6.112 11.84c0-2.03-.473-4.031-1.38-5.846a13.074 13.074 0 0 1-1.355-5.031l-.262-4.197-.262 4.197c-.11 1.75-.57 3.461-1.355 5.03a13.071 13.071 0 0 0-1.38 5.847v35.785c0 2.03.472 4.031 1.38 5.846a13.072 13.072 0 0 1 1.355 5.03l.262 4.198.262-4.197c.11-1.75.57-3.462 1.355-5.03a13.07 13.07 0 0 0 1.38-5.847V28.108zm-8.873 6.141a13.073 13.073 0 0 1 1.38 5.846v11.81c0 2.03-.472 4.031-1.38 5.846a13.072 13.072 0 0 0-1.354 5.031l-.263 4.197-.262-4.197c-.11-1.75-.57-3.461-1.354-5.03a13.072 13.072 0 0 1-1.38-5.847v-11.81c0-2.029.472-4.03 1.38-5.846a13.073 13.073 0 0 0 1.354-5.03l.262-4.197.263 4.197c.11 1.75.57 3.461 1.354 5.03zM10.994 46v.09-.179.09zM5 46.09V46a13.07 13.07 0 0 0 1.38 5.757 13.073 13.073 0 0 1 1.355 5.031l.262 4.197.262-4.197c.11-1.75.57-3.461 1.355-5.03A13.07 13.07 0 0 0 10.994 46a13.07 13.07 0 0 0-1.38-5.757 13.073 13.073 0 0 1-1.355-5.03l-.262-4.197-.262 4.197c-.11 1.75-.57 3.461-1.355 5.03A13.07 13.07 0 0 0 5 46v-.089.178zm34.584-35.816a13.07 13.07 0 0 1 1.38 5.846v59.76c0 2.03-.473 4.031-1.38 5.846a13.077 13.077 0 0 0-1.355 5.03l-.262 4.198-.263-4.197a13.082 13.082 0 0 0-1.354-5.03 13.07 13.07 0 0 1-1.38-5.847V16.12c0-2.03.472-4.031 1.38-5.846a13.074 13.074 0 0 0 1.354-5.03l.263-4.198.262 4.197c.11 1.75.57 3.462 1.355 5.03zm14.984 0a13.07 13.07 0 0 1 1.38 5.846v59.76c0 2.03-.472 4.031-1.38 5.846a13.076 13.076 0 0 0-1.354 5.03l-.262 4.198-.263-4.197a13.082 13.082 0 0 0-1.354-5.03 13.07 13.07 0 0 1-1.38-5.847V16.12c0-2.03.472-4.031 1.38-5.846a13.075 13.075 0 0 0 1.354-5.03l.263-4.198.262 4.197c.11 1.75.57 3.462 1.354 5.03zm8.873 11.84c0-2.03-.473-4.031-1.38-5.846a13.073 13.073 0 0 1-1.355-5.03l-.262-4.198-.262 4.197a13.07 13.07 0 0 1-1.355 5.03 13.07 13.07 0 0 0-1.38 5.847v47.773c0 2.03.472 4.031 1.38 5.846a13.076 13.076 0 0 1 1.355 5.03l.262 4.198.262-4.197c.11-1.75.57-3.462 1.355-5.03a13.07 13.07 0 0 0 1.38-5.847V22.114zm6.112.148a13.07 13.07 0 0 1 1.38 5.846v35.785c0 2.03-.472 4.031-1.38 5.846a13.077 13.077 0 0 0-1.354 5.03l-.263 4.198-.262-4.197a13.07 13.07 0 0 0-1.355-5.03 13.073 13.073 0 0 1-1.38-5.847V28.108c0-2.03.473-4.031 1.38-5.846a13.076 13.076 0 0 0 1.355-5.031l.262-4.197.263 4.197c.11 1.75.57 3.461 1.354 5.03zm8.873 17.834c0-2.03-.473-4.031-1.38-5.847a13.075 13.075 0 0 1-1.355-5.03l-.262-4.197-.263 4.197a13.073 13.073 0 0 1-1.354 5.03 13.074 13.074 0 0 0-1.38 5.846v11.81c0 2.03.472 4.031 1.38 5.846a13.074 13.074 0 0 1 1.355 5.031l.262 4.197.262-4.197c.11-1.75.57-3.461 1.355-5.03a13.07 13.07 0 0 0 1.38-5.847v-11.81zM85.918 46v.09-.179.09zm-5.993 0a13.068 13.068 0 0 0 1.38 5.757 13.076 13.076 0 0 1 1.354 5.031l.262 4.197.262-4.197c.11-1.75.57-3.461 1.355-5.03A13.068 13.068 0 0 0 85.918 46a13.068 13.068 0 0 0-1.38-5.757 13.076 13.076 0 0 1-1.355-5.03l-.262-4.197-.262 4.197c-.11 1.75-.57 3.461-1.355 5.03A13.068 13.068 0 0 0 79.924 46zm0 0v-.089V46z" clip-rule="evenodd"/></g><defs><clipPath id="a"><path fill="#fff" d="M5 0h82.417v92H5z"/></clipPath></defs></svg>