<svg xmlns="http://www.w3.org/2000/svg" width="92" height="92" fill="none"><g fill="#fff" clip-path="url(#a)"><path d="M21.838 28a13.547 13.547 0 0 0-9.58 3.968l-8.29 8.29A13.547 13.547 0 0 0 0 49.839c0 7.482 6.065 13.547 13.547 13.547a13.55 13.55 0 0 0 9.579-3.968l5.735-5.735 16.71-16.71a6.47 6.47 0 0 1 10.727 2.568l5.274-5.273A13.537 13.537 0 0 0 50.145 28a13.547 13.547 0 0 0-9.578 3.968L18.122 54.413a6.47 6.47 0 1 1-9.15-9.15l8.291-8.291A6.47 6.47 0 0 1 27.99 39.54l5.274-5.273A13.536 13.536 0 0 0 21.838 28z"/><path d="M46.428 54.413a6.47 6.47 0 0 1-10.727-2.568l-5.273 5.274a13.537 13.537 0 0 0 11.425 6.266c3.593 0 7.039-1.428 9.58-3.968l22.444-22.445a6.47 6.47 0 0 1 9.15 9.15l-8.29 8.29a6.47 6.47 0 0 1-10.728-2.567l-5.274 5.273a13.536 13.536 0 0 0 11.426 6.267c3.593 0 7.039-1.428 9.58-3.968l8.29-8.291A13.547 13.547 0 0 0 92 41.546C92 34.067 85.934 28 78.452 28a13.546 13.546 0 0 0-9.579 3.968L46.428 54.413z"/></g><defs><clipPath id="a"><path fill="#fff" d="M0 28h92v35.385H0z"/></clipPath></defs></svg>