<svg xmlns="http://www.w3.org/2000/svg" width="92" height="92" fill="none"><path fill="#fff" d="M12.143 61.07c.803 0 1.454-6.747 1.454-15.07 0-8.322-.651-15.07-1.454-15.07-.803 0-1.454 6.748-1.454 15.07 0 8.323.651 15.07 1.454 15.07zm3.865 1.674c.894 0 1.62-7.497 1.62-16.744 0-9.248-.726-16.744-1.62-16.744-.894 0-1.62 7.496-1.62 16.744 0 9.247.726 16.744 1.62 16.744zm4.306 1.876c.986 0 1.785-8.336 1.785-18.62s-.8-18.621-1.785-18.621c-.986 0-1.785 8.337-1.785 18.62 0 10.285.8 18.622 1.785 18.622zm4.765 2.062c1.098 0 1.987-9.26 1.987-20.682 0-11.422-.89-20.682-1.987-20.682-1.098 0-1.987 9.26-1.987 20.682 0 11.422.89 20.682 1.987 20.682zm5.299 2.3c1.22 0 2.208-10.29 2.208-22.982s-.989-22.981-2.208-22.981c-1.22 0-2.208 10.289-2.208 22.981 0 12.693.989 22.982 2.208 22.982zm5.907 2.558c1.352 0 2.447-11.435 2.447-25.54 0-14.105-1.095-25.54-2.447-25.54-1.351 0-2.447 11.435-2.447 25.54 0 14.105 1.096 25.54 2.447 25.54zm6.549 2.833c1.505 0 2.724-12.703 2.724-28.373 0-15.67-1.22-28.373-2.724-28.373-1.504 0-2.723 12.703-2.723 28.373 0 15.67 1.22 28.373 2.724 28.373zm7.268 3.146c1.677 0 3.036-14.112 3.036-31.52 0-17.407-1.359-31.519-3.036-31.519-1.676 0-3.036 14.112-3.036 31.52 0 17.407 1.36 31.519 3.036 31.519zm8.08 3.515c1.86 0 3.367-15.685 3.367-35.034 0-19.348-1.508-35.033-3.367-35.033-1.86 0-3.367 15.685-3.367 35.033 0 19.349 1.507 35.034 3.367 35.034zm8.977 3.882c2.063 0 3.735-17.423 3.735-38.916S69.222 7.084 67.16 7.084c-2.063 0-3.735 17.423-3.735 38.916s1.672 38.916 3.735 38.916zm9.974 4.324c2.297 0 4.158-19.36 4.158-43.24 0-23.881-1.861-43.24-4.158-43.24-2.297 0-4.158 19.359-4.158 43.24 0 23.88 1.861 43.24 4.158 43.24z"/></svg>