<svg xmlns="http://www.w3.org/2000/svg" width="92" height="92" fill="none"><g clip-path="url(#a)"><path fill="#fff" fill-rule="evenodd" d="M23 0c12.702 0 23 10.297 23 23V0h23c12.702 0 23 10.297 23 23 0 12.702-10.298 23-23 23 12.702 0 23 10.298 23 23a22.927 22.927 0 0 1-6.65 16.177l-.087.086-.076.076A22.927 22.927 0 0 1 69 92a22.926 22.926 0 0 1-16.414-6.888A22.926 22.926 0 0 1 46 69c0 12.702-10.298 23-23 23C10.297 92 0 81.702 0 69V46h23C10.297 46 0 35.702 0 23 0 10.297 10.297 0 23 0zm18.4 23c0 10.162-8.238 18.4-18.4 18.4V4.6c10.162 0 18.4 8.238 18.4 18.4zm46 46c0-10.162-8.238-18.4-18.4-18.4-10.162 0-18.4 8.238-18.4 18.4h36.8zM4.6 50.6V69c0 10.162 8.238 18.4 18.4 18.4 10.162 0 18.4-8.238 18.4-18.4V50.6H4.6zm46-9.2V4.6H69c10.162 0 18.4 8.238 18.4 18.4 0 10.162-8.238 18.4-18.4 18.4H50.6z" clip-rule="evenodd"/></g><defs><clipPath id="a"><path fill="#fff" d="M0 0h92v92H0z"/></clipPath></defs></svg>