<svg xmlns="http://www.w3.org/2000/svg" width="93" height="92" fill="none"><path stroke="#fff" stroke-miterlimit="10" stroke-width=".8" d="M74.017 60.775c8.638 0 15.64-6.615 15.64-14.775s-7.002-14.775-15.64-14.775c-8.638 0-15.64 6.615-15.64 14.775s7.002 14.775 15.64 14.775z"/><path stroke="#fff" stroke-miterlimit="10" stroke-width=".8" d="M71.514 61.603c10.081 0 18.253-6.986 18.253-15.603 0-8.618-8.172-15.604-18.252-15.604-10.081 0-18.253 6.986-18.253 15.604 0 8.617 8.172 15.603 18.252 15.603z"/><path stroke="#fff" stroke-miterlimit="10" stroke-width=".8" d="M68.993 62.432c11.523 0 20.865-7.357 20.865-16.431 0-9.075-9.342-16.432-20.865-16.432-11.524 0-20.866 7.357-20.866 16.432 0 9.074 9.342 16.43 20.866 16.43z"/><path stroke="#fff" stroke-miterlimit="10" stroke-width=".8" d="M66.49 63.26c12.967 0 23.479-7.728 23.479-17.26 0-9.532-10.512-17.259-23.479-17.259-12.966 0-23.478 7.727-23.478 17.26 0 9.531 10.511 17.259 23.478 17.259z"/><path stroke="#fff" stroke-miterlimit="10" stroke-width=".8" d="M63.989 64.088c14.4 0 26.073-8.098 26.073-18.088 0-9.989-11.674-18.087-26.073-18.087-14.4 0-26.073 8.098-26.073 18.087 0 9.99 11.673 18.088 26.073 18.088z"/><path stroke="#fff" stroke-miterlimit="10" stroke-width=".8" d="M61.467 64.915c15.842 0 28.686-8.468 28.686-18.915 0-10.446-12.844-18.915-28.686-18.915-15.843 0-28.686 8.469-28.686 18.915 0 10.447 12.843 18.915 28.686 18.915z"/><path stroke="#fff" stroke-miterlimit="10" stroke-width=".8" d="M58.964 65.725c17.286 0 31.299-8.831 31.299-19.725 0-10.894-14.013-19.725-31.299-19.725-17.285 0-31.298 8.831-31.298 19.725 0 10.894 14.013 19.725 31.298 19.725z"/><path stroke="#fff" stroke-miterlimit="10" stroke-width=".8" d="M56.444 66.553c18.729 0 33.912-9.202 33.912-20.553 0-11.35-15.183-20.553-33.912-20.553-18.728 0-33.91 9.202-33.91 20.553s15.182 20.553 33.91 20.553z"/><path stroke="#fff" stroke-miterlimit="10" stroke-width=".8" d="M53.942 67.38c20.172 0 36.524-9.572 36.524-21.38S74.114 24.62 53.942 24.62 17.418 34.191 17.418 46 33.77 67.38 53.942 67.38z"/><path stroke="#fff" stroke-miterlimit="10" stroke-width=".8" d="M51.44 68.209c21.614 0 39.136-9.944 39.136-22.21 0-12.265-17.522-22.208-39.136-22.208-21.615 0-39.137 9.943-39.137 22.209 0 12.265 17.522 22.209 39.136 22.209z"/><path stroke="#fff" stroke-miterlimit="10" stroke-width=".8" d="M48.918 69.037c23.057 0 41.75-10.314 41.75-23.037 0-12.723-18.693-23.037-41.75-23.037-23.058 0-41.75 10.314-41.75 23.037 0 12.723 18.692 23.037 41.75 23.037z"/><path stroke="#fff" stroke-miterlimit="10" stroke-width=".8" d="M46.416 69.864C70.906 69.864 90.76 59.18 90.76 46c0-13.18-19.853-23.865-44.344-23.865-24.49 0-44.344 10.684-44.344 23.865 0 13.18 19.854 23.864 44.344 23.864z"/></svg>