<svg xmlns="http://www.w3.org/2000/svg" width="92" height="92" fill="none"><g fill="#fff" clip-path="url(#a)"><path d="M12.587 66.924c3.374 2.353 8.843 2.353 12.217 0 3.374-2.354 3.374-6.17 0-8.522-3.373-2.354-8.843-2.354-12.217 0-3.374 2.353-3.374 6.168 0 8.522zm35.017-31.957c5.06 3.53 13.265 3.53 18.326 0 5.06-3.53 5.06-9.253 0-12.782-5.06-3.53-13.265-3.53-18.326 0-5.06 3.53-5.06 9.252 0 12.782zM29.016 50.945c4.217 2.942 11.055 2.942 15.272 0 4.217-2.941 4.217-7.71 0-10.652-4.217-2.941-11.055-2.941-15.272 0-4.217 2.941-4.217 7.71 0 10.652zm-27.118-2.13c2.53 1.765 6.632 1.765 9.163 0 2.53-1.765 2.53-4.627 0-6.392-2.53-1.765-6.633-1.765-9.163 0-2.53 1.765-2.53 4.627 0 6.392zm27.118-31.957c4.217 2.942 11.055 2.942 15.272 0 4.217-2.941 4.217-7.71 0-10.652-4.217-2.941-11.055-2.941-15.272 0-4.217 2.942-4.217 7.71 0 10.652zM12.587 32.836c3.374 2.354 8.843 2.354 12.217 0 3.374-2.353 3.374-6.168 0-8.521-3.373-2.354-8.843-2.354-12.217 0-3.374 2.353-3.374 6.168 0 8.521zm16.429 52.196c4.217 2.942 11.055 2.942 15.272 0 4.217-2.941 4.217-7.71 0-10.652-4.217-2.941-11.055-2.941-15.272 0-4.217 2.941-4.217 7.71 0 10.652zM69.88 52.01c5.06 3.53 13.265 3.53 18.325 0 5.06-3.53 5.06-9.253 0-12.782-5.06-3.53-13.265-3.53-18.326 0-5.06 3.53-5.06 9.252 0 12.782zM47.604 69.054c5.06 3.53 13.265 3.53 18.326 0 5.06-3.53 5.06-9.253 0-12.783-5.06-3.53-13.265-3.53-18.326 0-5.06 3.53-5.06 9.253 0 12.783z"/></g><defs><clipPath id="a"><path fill="#fff" d="M0 4h92v83.238H0z"/></clipPath></defs></svg>