<svg xmlns="http://www.w3.org/2000/svg" width="92" height="92" fill="none"><path fill="#fff" d="M50.657 73.856c.083-8.444-2.058-15.31-4.781-15.337-2.724-.027-4.998 6.797-5.08 15.241-.083 8.444 2.057 15.311 4.78 15.338 2.724.027 4.999-6.797 5.081-15.242zM34.863 71.94c4.635-7.06 6.547-13.994 4.27-15.489-2.276-1.495-7.879 3.016-12.514 10.075-4.635 7.059-6.547 13.993-4.27 15.488 2.276 1.495 7.879-3.016 12.514-10.075zM22.594 61.81c7.716-3.431 13.074-8.23 11.967-10.719-1.107-2.488-8.26-1.723-15.975 1.709-7.716 3.432-13.073 8.23-11.967 10.72 1.107 2.488 8.26 1.723 15.975-1.71zm11.04-17.696c.415-2.692-6.015-5.916-14.362-7.2-8.346-1.285-15.448-.144-15.862 2.547-.415 2.692 6.015 5.916 14.362 7.2 8.346 1.285 15.448.144 15.862-2.547zm2.997-6.414c1.804-2.04-1.864-8.228-8.191-13.82-6.328-5.592-12.92-8.472-14.723-6.431-1.803 2.04 1.864 8.228 8.192 13.82 6.327 5.593 12.919 8.472 14.722 6.431zm5.968-3.747c2.62-.741 2.88-7.93.582-16.055-2.3-8.126-6.288-14.112-8.909-13.37-2.62.741-2.88 7.93-.581 16.055 2.299 8.126 6.287 14.112 8.908 13.37zm16.205-13.117c2.46-8.078 2.34-15.27-.265-16.063-2.605-.794-6.71 5.113-9.17 13.191-2.459 8.079-2.34 15.27.265 16.064 2.605.793 6.711-5.113 9.17-13.192zm11.579 10.916c6.436-5.467 10.224-11.582 8.46-13.657-1.763-2.076-8.41.674-14.845 6.141-6.436 5.468-10.223 11.583-8.46 13.658 1.763 2.076 8.41-.674 14.846-6.142zM74.21 47.2c8.37-1.12 14.863-4.217 14.502-6.916-.361-2.7-7.44-3.98-15.81-2.86-8.37 1.12-14.862 4.215-14.5 6.915.36 2.7 7.438 3.98 15.808 2.86zm10.798 17.092c1.156-2.466-4.106-7.37-11.753-10.954-7.646-3.584-14.782-4.49-15.938-2.024-1.155 2.467 4.106 7.37 11.753 10.954 7.647 3.584 14.782 4.49 15.938 2.024zM68.924 82.487c2.306-1.45.531-8.42-3.964-15.57-4.495-7.148-10.008-11.769-12.313-10.319-2.306 1.45-.53 8.42 3.964 15.57 4.495 7.148 10.008 11.768 12.313 10.319z"/></svg>