<svg xmlns="http://www.w3.org/2000/svg" width="586" height="482" fill="none"><g clip-path="url(#a)"><path fill="#AD2FFB" d="M545.598 127.639c0-16.141-13.085-29.225-29.225-29.225V529h29.225V127.639zm-505.598 0c0-16.141 13.085-29.225 29.225-29.225V529H40V127.639z" opacity=".04"/><path fill="#AD2FFB" d="M516.373 98.414c0-16.141-13.085-29.226-29.226-29.226v430.587h29.226V98.414zM69.3 126.825c0-23.998 0-35.997 6.112-44.409a32.001 32.001 0 0 1 7.08-7.08c8.411-6.11 20.41-6.11 44.409-6.11h272.973c23.998 0 35.997 0 44.409 6.11a31.995 31.995 0 0 1 7.079 7.08c6.112 8.412 6.112 20.411 6.112 44.409v372.913H69.301V126.825z" opacity=".02"/><rect width="388" height="522.755" x="99" y="40" fill="#fff" rx="32"/><g filter="url(#b)"><rect width="332" height="34.779" x="127" y="68" fill="#F7F9FC" rx="13.042"/><rect width="108.493" height="28.258" x="130.26" y="71.26" fill="#F2F3F8" rx="10.868"/><path fill="#020710" d="M177.418 89.686h-2.598v-7.858h2.554c2.348 0 3.935 1.587 3.935 3.935 0 2.336-1.565 3.923-3.891 3.923zm-.12-6.88h-1.412v5.891h1.456c1.75 0 2.858-1.13 2.858-2.934 0-1.826-1.108-2.957-2.902-2.957zm6.746 7.01c-1.141 0-1.815-.64-1.815-1.608 0-.978.728-1.587 1.978-1.685l1.674-.13v-.152c0-.891-.533-1.207-1.25-1.207-.859 0-1.348.38-1.348 1.022h-.891c0-1.109.913-1.837 2.283-1.837 1.315 0 2.206.696 2.206 2.13v3.337h-.87l-.108-.859c-.272.61-1 .99-1.859.99zm.294-.793c.967 0 1.554-.63 1.554-1.63v-.283l-1.359.109c-.902.087-1.271.435-1.271.956 0 .566.413.848 1.076.848zm3.319 3.043v-.837h.685c.489 0 .881-.076 1.13-.75l.185-.51-2.141-5.598h1.076l1.543 4.282 1.576-4.282h1.055l-2.511 6.51c-.359.913-.891 1.294-1.706 1.294-.337 0-.62-.044-.892-.109z"/><path fill="#020710" d="m282.727 89.686-2.337-7.858h1.108l1.435 4.804c.109.413.217.826.326 1.424.13-.63.25-1.011.37-1.424l1.489-4.804h1.152l1.478 4.804c.13.424.239.837.358 1.424a12.74 12.74 0 0 1 .348-1.413l1.446-4.815h1.086l-2.369 7.858h-1.021l-1.902-6.217-1.924 6.217h-1.043zm10.764.13c-1.565 0-2.641-1.13-2.641-2.782 0-1.663 1.054-2.815 2.597-2.815 1.511 0 2.5 1.044 2.5 2.62v.38l-4.108.01c.076 1.12.663 1.74 1.673 1.74.794 0 1.315-.326 1.489-.935h.957c-.261 1.141-1.152 1.782-2.467 1.782zm-.044-4.738c-.891 0-1.456.532-1.587 1.467h3.065c0-.88-.576-1.467-1.478-1.467zm5.934 4.739c-1.565 0-2.641-1.13-2.641-2.783 0-1.663 1.054-2.815 2.598-2.815 1.51 0 2.499 1.044 2.499 2.62v.38l-4.108.01c.076 1.12.663 1.74 1.674 1.74.793 0 1.315-.326 1.489-.935h.956c-.261 1.141-1.152 1.782-2.467 1.782zm-.043-4.74c-.892 0-1.457.533-1.587 1.468h3.065c0-.88-.576-1.467-1.478-1.467zm4.684 4.609H303v-8h1.022v5.185l2.358-2.5h1.283l-2.033 2.12 2.022 3.195h-1.174l-1.554-2.456-.902.945v1.511zm80.133 0h-1.043v-7.858h1.043l2.706 6.608 2.706-6.608h1.065v7.858h-1.043v-3.108c0-1.468.011-2 .065-2.554l-2.293 5.662h-1l-2.282-5.64c.054.38.076 1.184.076 2.282v3.358zm7.785-2.663c0-1.64 1.174-2.793 2.772-2.793 1.587 0 2.76 1.152 2.76 2.793 0 1.641-1.173 2.794-2.76 2.794-1.598 0-2.772-1.153-2.772-2.794zm1.033 0c0 1.109.706 1.88 1.739 1.88 1.022 0 1.739-.771 1.739-1.88 0-1.108-.717-1.88-1.739-1.88-1.033 0-1.739.772-1.739 1.88zm6.652 2.663h-1.022v-5.315h.924l.109.816c.337-.61 1.011-.968 1.761-.968 1.402 0 2.043.859 2.043 2.217v3.25h-1.022v-3.021c0-1.076-.5-1.511-1.282-1.511-.957 0-1.511.685-1.511 1.717v2.815zm6.73 0h-1.022V85.23h-1.043v-.859h1.043V82.71h1.022v1.662h1.043v.859h-1.043v4.456zm2.981-.01h-1.021v-7.99h1.021v3.5c.337-.576.979-.967 1.805-.967 1.358 0 2.01.859 2.01 2.217v3.25h-1.021v-3.021c0-1.076-.511-1.511-1.272-1.511-.989 0-1.522.717-1.522 1.63v2.891z" opacity=".33"/></g><path fill="#7A8089" d="M130.92 131.499c0-1.24 1-2.08 2.49-2.08 1.38 0 2.27.77 2.35 2.02h-.99c-.05-.72-.56-1.14-1.37-1.14-.91 0-1.5.46-1.5 1.17 0 .58.33.93 1.01 1.09l1.19.28c1.18.27 1.78.91 1.78 1.93 0 1.3-1.01 2.13-2.55 2.13-1.47 0-2.45-.77-2.51-2.01h1c.02.69.6 1.13 1.51 1.13.96 0 1.57-.45 1.57-1.17 0-.57-.31-.93-1-1.09l-1.19-.27c-1.18-.27-1.79-.95-1.79-1.99z"/><path fill="#020710" d="M129.431 147.524h-1.976v-1.144h3.198v9.399h-1.222v-8.255zm9.246 8.242-6.344.013v-.975l3.029-2.613c1.521-1.313 1.95-1.95 1.95-2.951 0-1.183-.676-1.885-1.807-1.885-1.157 0-1.911.845-1.937 2.184h-1.274c.039-2.015 1.313-3.328 3.224-3.328 1.885 0 3.094 1.144 3.094 2.951 0 1.339-.663 2.288-2.327 3.731l-1.95 1.69h4.342v1.183z"/><path stroke="#F2F3F8" stroke-linecap="round" d="M127 170h332"/><path fill="#7A8089" d="M184.253 131.499c0-1.24 1-2.08 2.49-2.08 1.38 0 2.27.77 2.35 2.02h-.99c-.05-.72-.56-1.14-1.37-1.14-.91 0-1.5.46-1.5 1.17 0 .58.33.93 1.01 1.09l1.19.28c1.18.27 1.78.91 1.78 1.93 0 1.3-1.01 2.13-2.55 2.13-1.47 0-2.45-.77-2.51-2.01h1c.02.69.6 1.13 1.51 1.13.96 0 1.57-.45 1.57-1.17 0-.57-.31-.93-1-1.09l-1.19-.27c-1.18-.27-1.79-.95-1.79-1.99z"/><path fill="#020710" d="M182.764 147.524h-1.976v-1.144h3.198v9.399h-1.222v-8.255zm5.633 3.393h-.936v-.845l2.665-2.561h-4.225v-1.131h5.837v1.027l-2.574 2.457c1.599.195 2.808 1.274 2.808 2.964 0 1.898-1.43 3.107-3.341 3.107-1.846 0-3.172-1.131-3.172-3.081h1.261c0 1.222.754 1.937 1.937 1.937 1.222 0 2.015-.78 2.015-1.989 0-1.131-.78-1.885-2.275-1.885z"/><path fill="#7A8089" d="M237.467 136.779h-.96v-7.23h.96l2.49 6.08 2.49-6.08h.98v7.23h-.96v-2.86c0-1.35.01-1.84.06-2.35l-2.11 5.21h-.92l-2.1-5.19c.05.35.07 1.09.07 2.1v3.09z"/><path fill="#020710" d="M236.098 147.524h-1.976v-1.144h3.198v9.399h-1.222v-8.255zm9.948 6.357h-1.118v1.898h-1.222v-1.898h-4.862v-1.131l4.433-6.37h1.651v6.37h1.118v1.131zm-5.824-1.131h3.484v-5.018l-3.484 5.018z"/><path fill="#7A8089" d="M290.64 130.449v-.9h5.33v.9h-2.17v6.33h-.98v-6.33h-2.18z"/><path fill="#020710" d="M289.431 147.524h-1.976v-1.144h3.198v9.399h-1.222v-8.255zm6.05 8.411c-1.924 0-3.172-1.222-3.172-3.094h1.261c0 1.209.741 1.95 1.937 1.95 1.274 0 2.093-.845 2.093-2.119 0-1.209-.767-2.106-2.08-2.106-.793 0-1.521.377-1.95.91l-1.079-.273 1.144-4.823h4.706v1.17h-3.783l-.624 2.496c.494-.377 1.118-.572 1.82-.572 1.911 0 3.146 1.339 3.146 3.146 0 1.95-1.391 3.315-3.419 3.315z"/><path stroke="#AD2FFB" stroke-linecap="round" stroke-width="1.5" d="M273.999 170.198h40"/><circle cx="293.5" cy="164.447" r="1.5" fill="#AD2FFB"/><path fill="#7A8089" d="m343.633 136.779-2.15-7.23h1.02l1.32 4.42c.1.38.2.76.3 1.31.12-.58.23-.93.34-1.31l1.37-4.42h1.06l1.36 4.42c.12.39.22.77.33 1.31.12-.61.22-.98.32-1.3l1.33-4.43h1l-2.18 7.23h-.94l-1.75-5.72-1.77 5.72h-.96z"/><path fill="#020710" d="M342.764 147.524h-1.976v-1.144h3.198v9.399h-1.222v-8.255zm4.138 1.833 2.197-2.977h1.482l-2.353 3.12c.325-.13.663-.195.988-.195 1.95 0 3.263 1.404 3.263 3.263 0 1.963-1.482 3.367-3.419 3.367-1.95 0-3.458-1.469-3.458-3.367 0-1.118.338-1.898 1.3-3.211zm0 3.224c0 1.287.884 2.21 2.158 2.21 1.248 0 2.132-.923 2.132-2.21s-.884-2.197-2.132-2.197c-1.274 0-2.158.91-2.158 2.197z"/><path fill="#7A8089" d="M396.807 130.449v-.9h5.33v.9h-2.17v6.33h-.98v-6.33h-2.18z"/><path fill="#020710" d="M396.098 147.524h-1.976v-1.144h3.198v9.399h-1.222v-8.255zm2.624-1.144h6.565v1.17l-3.562 8.229h-1.326L404 147.55h-5.278v-1.17z"/><path fill="#7A8089" d="M454.16 133.709h-2.84v3.07h-.98v-7.23h4.36v.9h-3.38v2.37h2.84v.89z"/><path fill="#020710" d="M448.431 147.524h-1.976v-1.144h3.198v9.399h-1.222v-8.255zm2.865 5.642c0-1.131.663-2.041 1.703-2.418-.884-.377-1.365-1.118-1.365-2.067 0-1.469 1.261-2.47 3.133-2.47 1.846 0 3.094 1.001 3.094 2.483 0 .962-.494 1.703-1.378 2.054 1.053.338 1.729 1.274 1.729 2.431 0 1.651-1.378 2.756-3.458 2.756-2.093 0-3.458-1.105-3.458-2.769zm1.508-4.407c0 .923.767 1.521 1.937 1.521 1.183 0 1.924-.585 1.924-1.495 0-.897-.741-1.469-1.924-1.469-1.17 0-1.937.572-1.937 1.443zm-.26 4.316c0 1.053.871 1.729 2.21 1.729 1.326 0 2.197-.676 2.197-1.729 0-1.04-.858-1.703-2.21-1.703-1.339 0-2.197.663-2.197 1.703z"/><path fill="#7A8089" fill-rule="evenodd" d="M138.39 201.06c.35.35.35.917 0 1.267l-2.951 2.952 2.951 2.952a.896.896 0 1 1-1.267 1.267l-3.586-3.585a.897.897 0 0 1 0-1.268l3.586-3.585a.896.896 0 0 1 1.267 0z" clip-rule="evenodd" opacity=".25"/><path fill="#020710" d="M237.621 202.197v-1.652h7.784v1.652h-2.996v8.582h-1.792v-8.582h-2.996zm10.61 8.582h-1.708v-10.416h1.722v4.396c.434-.672 1.246-1.106 2.24-1.106 1.708 0 2.604 1.078 2.604 2.87v4.256h-1.708v-3.85c0-1.162-.574-1.722-1.442-1.722-1.078 0-1.708.756-1.708 1.792v3.78zm11.226-6.916h1.708v6.916h-1.582l-.126-.924c-.42.658-1.316 1.106-2.24 1.106-1.596 0-2.534-1.078-2.534-2.772v-4.326h1.708v3.724c0 1.316.518 1.848 1.47 1.848 1.078 0 1.596-.63 1.596-1.946v-3.626zm7.812-.028v1.582h-.63c-1.232 0-2.002.658-2.002 2.002v3.36h-1.708v-6.902h1.61l.098 1.008c.294-.686.952-1.148 1.876-1.148.238 0 .476.028.756.098zm.624 4.844h1.624c.014.602.462.98 1.246.98.798 0 1.232-.322 1.232-.826 0-.35-.182-.602-.798-.742l-1.246-.294c-1.246-.28-1.848-.868-1.848-1.974 0-1.358 1.148-2.17 2.744-2.17 1.554 0 2.604.896 2.618 2.24h-1.624c-.014-.588-.406-.966-1.064-.966-.672 0-1.064.308-1.064.826 0 .392.308.644.896.784l1.246.294c1.162.266 1.75.798 1.75 1.862 0 1.4-1.19 2.268-2.898 2.268-1.722 0-2.814-.924-2.814-2.282zm9.854 2.282c-2.002 0-3.248-1.47-3.248-3.612 0-2.156 1.26-3.696 3.346-3.696.966 0 1.82.406 2.254 1.092v-4.382h1.694v10.416h-1.568l-.112-1.078c-.42.798-1.316 1.26-2.366 1.26zm.378-1.568c1.19 0 1.96-.854 1.96-2.1s-.77-2.114-1.96-2.114-1.918.882-1.918 2.114c0 1.232.728 2.1 1.918 2.1zm7.506 1.568c-1.47 0-2.366-.854-2.366-2.156 0-1.274.924-2.072 2.562-2.198l2.072-.154v-.154c0-.938-.56-1.316-1.428-1.316-1.008 0-1.568.42-1.568 1.148h-1.456c0-1.498 1.232-2.478 3.108-2.478 1.862 0 3.01 1.008 3.01 2.926v4.2h-1.498l-.126-1.022c-.294.714-1.232 1.204-2.31 1.204zm.56-1.288c1.05 0 1.722-.63 1.722-1.694v-.364l-1.442.112c-1.064.098-1.47.448-1.47 1.008 0 .63.42.938 1.19.938zm4.259 4.312v-1.428h1.022c.672 0 1.092-.154 1.386-.966l.196-.518-2.786-7.21h1.806l1.778 5.04 1.876-5.04h1.764l-3.388 8.456c-.518 1.288-1.246 1.82-2.38 1.82-.476 0-.896-.056-1.274-.154zm9.023-3.822a2.22 2.22 0 0 1-1.974 2.226v-.686c.63-.112 1.106-.49 1.106-.98a.873.873 0 0 1-.406.084c-.546 0-.994-.406-.994-.966 0-.672.434-1.12 1.064-1.12.7 0 1.204.574 1.204 1.442zm7.399-8.008h-2.24v-1.61h3.962v10.234h-1.722v-8.624zm6.897 8.792c-2.142 0-3.556-1.372-3.556-3.444h1.778c0 1.162.686 1.848 1.82 1.848 1.204 0 1.974-.784 1.974-2.03 0-1.19-.714-2.002-1.946-2.002-.784 0-1.498.392-1.862.924l-1.582-.336 1.26-5.362h5.334v1.652h-4.046l-.546 2.128c.49-.322 1.106-.504 1.806-.504 2.044 0 3.402 1.386 3.402 3.402 0 2.212-1.554 3.724-3.836 3.724zm8.318-3.052v-.602h1.722v.602c0 .784.434 1.4 1.442 1.4s1.428-.574 1.428-1.47v-7.28h1.792v7.378c0 1.806-1.26 3.038-3.206 3.038-2.1 0-3.178-1.302-3.178-3.066zm13.016-4.032h1.708v6.916h-1.582l-.126-.924c-.42.658-1.316 1.106-2.24 1.106-1.596 0-2.534-1.078-2.534-2.772v-4.326h1.708v3.724c0 1.316.518 1.848 1.47 1.848 1.078 0 1.596-.63 1.596-1.946v-3.626zm5.194 6.916h-1.694v-10.416h1.694v10.416zm1.19 3.206v-1.428h1.022c.672 0 1.092-.154 1.386-.966l.196-.518-2.786-7.21h1.806l1.778 5.04 1.876-5.04h1.764l-3.388 8.456c-.518 1.288-1.246 1.82-2.38 1.82-.476 0-.896-.056-1.274-.154z"/><path fill="#7A8089" fill-rule="evenodd" d="M447.61 209.498a.897.897 0 0 1 0-1.268l2.951-2.951-2.951-2.952a.897.897 0 0 1 1.267-1.268l3.586 3.586c.35.35.35.917 0 1.267l-3.586 3.586a.896.896 0 0 1-1.267 0z" clip-rule="evenodd" opacity=".25"/><g clip-path="url(#c)"><rect width="239.822" height="40.652" x="-105.411" y="237.589" fill="#fff" rx="11.363"/><rect width="239.822" height="40.652" x="-105.411" y="237.589" stroke="#F2F3F8" stroke-width="1.178" rx="11.363"/><rect width="239.822" height="40.652" x="-105.411" y="292.462" fill="#fff" rx="11.363"/><rect width="239.822" height="40.652" x="-105.411" y="292.462" stroke="#F2F3F8" stroke-width="1.178" rx="11.363"/><rect width="239.822" height="40.652" x="-105.411" y="347.335" fill="#fff" rx="11.363"/><rect width="239.822" height="40.652" x="-105.411" y="347.335" stroke="#F2F3F8" stroke-width="1.178" rx="11.363"/><rect width="239.822" height="40.652" x="-105.411" y="402.207" fill="#fff" rx="11.363"/><rect width="239.822" height="40.652" x="-105.411" y="402.207" stroke="#F2F3F8" stroke-width="1.178" rx="11.363"/><rect width="239.822" height="40.652" x="-105.411" y="457.08" fill="#fff" rx="11.363"/><rect width="239.822" height="40.652" x="-105.411" y="457.08" stroke="#F2F3F8" stroke-width="1.178" rx="11.363"/><rect width="266.822" height="40.652" x="159.589" y="237.589" fill="#fff" rx="11.363"/><rect width="10" height="10" x="251.518" y="252.915" fill="#F2F3F8" rx="5"/><path fill="#7A8089" d="M271.044 260.513c0-1.04.609-1.876 1.565-2.223-.813-.347-1.255-1.028-1.255-1.9 0-1.351 1.16-2.271 2.881-2.271 1.697 0 2.844.92 2.844 2.283 0 .884-.454 1.565-1.267 1.888.968.311 1.59 1.171 1.59 2.235 0 1.518-1.267 2.534-3.179 2.534-1.925 0-3.179-1.016-3.179-2.546zm1.386-4.052c0 .849.705 1.399 1.781 1.399 1.087 0 1.769-.538 1.769-1.375 0-.824-.682-1.35-1.769-1.35-1.076 0-1.781.526-1.781 1.326zm-.239 3.968c0 .968.801 1.59 2.032 1.59 1.219 0 2.019-.622 2.019-1.59 0-.956-.788-1.565-2.031-1.565-1.231 0-2.02.609-2.02 1.565zm7.529-1.852c-.466 0-.86-.383-.86-.825 0-.466.394-.848.86-.848a.86.86 0 0 1 .849.848c0 .442-.394.825-.849.825zm0 4.482c-.466 0-.86-.383-.86-.837 0-.466.394-.848.86-.848a.86.86 0 0 1 .849.848.858.858 0 0 1-.849.837zm2.354-4.458c0-2.677 1.386-4.494 3.561-4.494 2.164 0 3.55 1.817 3.55 4.494 0 2.689-1.327 4.47-3.55 4.47-2.235 0-3.561-1.781-3.561-4.47zm1.159 0c0 2.127.884 3.418 2.402 3.418 1.518 0 2.391-1.291 2.391-3.418 0-2.152-.873-3.442-2.391-3.442s-2.402 1.29-2.402 3.442zm7.127 0c0-2.677 1.387-4.494 3.562-4.494 2.163 0 3.55 1.817 3.55 4.494 0 2.689-1.327 4.47-3.55 4.47-2.235 0-3.562-1.781-3.562-4.47zm1.16 0c0 2.127.884 3.418 2.402 3.418 1.518 0 2.39-1.291 2.39-3.418 0-2.152-.872-3.442-2.39-3.442-1.518 0-2.402 1.29-2.402 3.442zm12.331 4.458c-1.255 0-1.996-.705-1.996-1.769 0-1.076.801-1.745 2.176-1.853l1.84-.143v-.167c0-.98-.585-1.327-1.374-1.327-.944 0-1.482.418-1.482 1.123h-.98c0-1.219 1.004-2.019 2.51-2.019 1.446 0 2.426.765 2.426 2.342v3.669h-.956l-.12-.944c-.299.669-1.099 1.088-2.044 1.088zm.323-.873c1.064 0 1.709-.693 1.709-1.793v-.31l-1.494.119c-.992.096-1.398.478-1.398 1.052 0 .621.454.932 1.183.932zm5.476.729h-1.123v-5.844h1.004l.107.765c.299-.55.92-.932 1.745-.932.908 0 1.554.454 1.853 1.183.274-.729.98-1.183 1.888-1.183 1.339 0 2.151.836 2.151 2.187v3.824h-1.099v-3.549c0-.921-.514-1.446-1.303-1.446-.849 0-1.41.597-1.41 1.529v3.466h-1.112v-3.561c0-.921-.502-1.423-1.291-1.423-.848 0-1.41.586-1.41 1.518v3.466z"/><rect width="266.822" height="40.652" x="159.589" y="237.589" stroke="#F2F3F8" stroke-width="1.178" rx="11.363"/><rect width="266.822" height="40.652" x="159.589" y="292.462" fill="#fff" rx="11.363"/><rect width="10" height="10" x="251.518" y="307.788" fill="#F2F3F8" rx="5"/><path fill="#7A8089" d="m276.099 315.051-2.02 2.737h-1.362l2.163-2.868a2.47 2.47 0 0 1-.908.179c-1.793 0-3-1.291-3-3.012 0-1.793 1.362-3.095 3.143-3.095 1.793 0 3.179 1.35 3.179 3.107 0 1.016-.311 1.745-1.195 2.952zm0-2.964c0-1.183-.813-2.044-1.984-2.044-1.147 0-1.96.861-1.96 2.044s.813 2.02 1.96 2.02c1.171 0 1.984-.837 1.984-2.02zm3.458 1.363c-.466 0-.861-.383-.861-.825 0-.466.395-.849.861-.849a.86.86 0 0 1 .849.849c0 .442-.395.825-.849.825zm0 4.482c-.466 0-.861-.383-.861-.837 0-.466.395-.849.861-.849a.86.86 0 0 1 .849.849.858.858 0 0 1-.849.837zm2.353-4.458c0-2.678 1.387-4.494 3.562-4.494 2.163 0 3.549 1.816 3.549 4.494 0 2.689-1.326 4.469-3.549 4.469-2.235 0-3.562-1.78-3.562-4.469zm1.16 0c0 2.127.884 3.418 2.402 3.418 1.518 0 2.39-1.291 2.39-3.418 0-2.152-.872-3.443-2.39-3.443-1.518 0-2.402 1.291-2.402 3.443zm7.127 0c0-2.678 1.386-4.494 3.562-4.494 2.163 0 3.549 1.816 3.549 4.494 0 2.689-1.326 4.469-3.549 4.469-2.235 0-3.562-1.78-3.562-4.469zm1.159 0c0 2.127.885 3.418 2.403 3.418 1.517 0 2.39-1.291 2.39-3.418 0-2.152-.873-3.443-2.39-3.443-1.518 0-2.403 1.291-2.403 3.443zm12.332 4.458c-1.255 0-1.996-.706-1.996-1.769 0-1.076.801-1.745 2.175-1.853l1.841-.143v-.168c0-.98-.586-1.326-1.375-1.326-.944 0-1.482.418-1.482 1.123h-.98c0-1.219 1.004-2.02 2.51-2.02 1.446 0 2.426.765 2.426 2.343v3.669h-.956l-.119-.944c-.299.669-1.1 1.088-2.044 1.088zm.323-.873c1.063 0 1.709-.693 1.709-1.793v-.31l-1.494.119c-.992.096-1.399.478-1.399 1.052 0 .621.455.932 1.184.932zm5.476.729h-1.124v-5.844h1.004l.108.765c.299-.55.92-.933 1.745-.933.908 0 1.553.455 1.852 1.184.275-.729.98-1.184 1.889-1.184 1.338 0 2.151.837 2.151 2.188v3.824h-1.1v-3.55c0-.92-.514-1.446-1.302-1.446-.849 0-1.411.598-1.411 1.53v3.466h-1.111v-3.561c0-.921-.502-1.423-1.291-1.423-.849 0-1.41.586-1.41 1.518v3.466z"/><rect width="266.822" height="40.652" x="159.589" y="292.462" stroke="#F2F3F8" stroke-width="1.178" rx="11.363"/><rect width="266.822" height="40.652" x="159.589" y="347.335" fill="#fff" rx="11.363"/><rect width="10" height="10" x="251.518" y="362.661" fill="#AD2FFB" rx="5"/><path fill="#020710" d="M272.717 365.071H270.9v-1.051h2.94v8.641h-1.123v-7.59zm2.704 3.275c0-2.677 1.386-4.494 3.561-4.494 2.164 0 3.55 1.817 3.55 4.494 0 2.689-1.327 4.47-3.55 4.47-2.234 0-3.561-1.781-3.561-4.47zm1.159 0c0 2.127.885 3.418 2.402 3.418 1.518 0 2.391-1.291 2.391-3.418 0-2.151-.873-3.442-2.391-3.442-1.517 0-2.402 1.291-2.402 3.442zm8.311-.024c-.466 0-.861-.382-.861-.824 0-.467.395-.849.861-.849a.86.86 0 0 1 .848.849c0 .442-.394.824-.848.824zm0 4.482c-.466 0-.861-.382-.861-.837 0-.466.395-.848.861-.848.454 0 .848.382.848.848a.857.857 0 0 1-.848.837zm2.353-4.458c0-2.677 1.387-4.494 3.562-4.494 2.163 0 3.549 1.817 3.549 4.494 0 2.689-1.326 4.47-3.549 4.47-2.235 0-3.562-1.781-3.562-4.47zm1.159 0c0 2.127.885 3.418 2.403 3.418s2.39-1.291 2.39-3.418c0-2.151-.872-3.442-2.39-3.442-1.518 0-2.403 1.291-2.403 3.442zm7.128 0c0-2.677 1.386-4.494 3.562-4.494 2.163 0 3.549 1.817 3.549 4.494 0 2.689-1.326 4.47-3.549 4.47-2.235 0-3.562-1.781-3.562-4.47zm1.159 0c0 2.127.885 3.418 2.403 3.418 1.517 0 2.39-1.291 2.39-3.418 0-2.151-.873-3.442-2.39-3.442-1.518 0-2.403 1.291-2.403 3.442zm12.332 4.458c-1.255 0-1.996-.705-1.996-1.769 0-1.075.801-1.745 2.175-1.852l1.841-.144v-.167c0-.98-.586-1.327-1.375-1.327-.944 0-1.482.419-1.482 1.124h-.98c0-1.219 1.004-2.02 2.51-2.02 1.446 0 2.426.765 2.426 2.342v3.67h-.956l-.119-.945c-.299.67-1.1 1.088-2.044 1.088zm.323-.872c1.063 0 1.709-.694 1.709-1.793v-.311l-1.494.12c-.992.095-1.399.478-1.399 1.051 0 .622.455.933 1.184.933zm5.476.729h-1.124v-5.845h1.004l.108.765c.298-.55.92-.932 1.745-.932.908 0 1.553.454 1.852 1.183.275-.729.98-1.183 1.888-1.183 1.339 0 2.152.837 2.152 2.187v3.825h-1.1v-3.55c0-.92-.514-1.446-1.303-1.446-.848 0-1.41.597-1.41 1.53v3.466h-1.111v-3.562c0-.92-.502-1.422-1.291-1.422-.849 0-1.41.585-1.41 1.518v3.466z"/><rect width="266.822" height="40.652" x="159.589" y="347.335" stroke="#AD2FFB" stroke-width="1.178" rx="11.363"/><rect width="266.822" height="40.652" x="159.589" y="402.207" fill="#fff" rx="11.363"/><rect width="10" height="10" x="251.518" y="417.533" fill="#AD2FFB" rx="5"/><path fill="#020710" d="M272.717 419.944H270.9v-1.052h2.94v8.641h-1.123v-7.589zm4.248 0h-1.816v-1.052h2.94v8.641h-1.124v-7.589zm3.888 3.251c-.467 0-.861-.382-.861-.825 0-.466.394-.848.861-.848.454 0 .848.382.848.848 0 .443-.394.825-.848.825zm0 4.482c-.467 0-.861-.383-.861-.837 0-.466.394-.848.861-.848.454 0 .848.382.848.848a.857.857 0 0 1-.848.837zm2.353-4.458c0-2.677 1.386-4.494 3.561-4.494 2.164 0 3.55 1.817 3.55 4.494 0 2.689-1.327 4.47-3.55 4.47-2.235 0-3.561-1.781-3.561-4.47zm1.159 0c0 2.127.885 3.418 2.402 3.418 1.518 0 2.391-1.291 2.391-3.418 0-2.151-.873-3.442-2.391-3.442-1.517 0-2.402 1.291-2.402 3.442zm7.128 0c0-2.677 1.386-4.494 3.561-4.494 2.163 0 3.55 1.817 3.55 4.494 0 2.689-1.327 4.47-3.55 4.47-2.235 0-3.561-1.781-3.561-4.47zm1.159 0c0 2.127.884 3.418 2.402 3.418 1.518 0 2.39-1.291 2.39-3.418 0-2.151-.872-3.442-2.39-3.442-1.518 0-2.402 1.291-2.402 3.442zm12.332 4.458c-1.255 0-1.996-.705-1.996-1.769 0-1.076.8-1.745 2.175-1.852l1.84-.144v-.167c0-.98-.585-1.327-1.374-1.327-.944 0-1.482.418-1.482 1.124h-.98c0-1.219 1.004-2.02 2.51-2.02 1.446 0 2.426.765 2.426 2.342v3.669h-.956l-.12-.944c-.299.67-1.099 1.088-2.043 1.088zm.322-.873c1.064 0 1.709-.693 1.709-1.792v-.311l-1.494.119c-.992.096-1.398.478-1.398 1.052 0 .622.454.932 1.183.932zm5.476.729h-1.123v-5.844h1.004l.107.765c.299-.55.921-.932 1.745-.932.909 0 1.554.454 1.853 1.183.275-.729.98-1.183 1.888-1.183 1.339 0 2.151.836 2.151 2.187v3.824h-1.099v-3.549c0-.92-.514-1.446-1.303-1.446-.848 0-1.41.597-1.41 1.529v3.466h-1.112v-3.561c0-.92-.502-1.422-1.29-1.422-.849 0-1.411.585-1.411 1.517v3.466z"/><rect width="266.822" height="40.652" x="159.589" y="402.207" stroke="#AD2FFB" stroke-width="1.178" rx="11.363"/><rect width="266.822" height="40.652" x="159.589" y="457.08" fill="#fff" rx="11.363"/><rect width="10" height="10" x="251.518" y="472.406" fill="#F7F9FC" rx="5"/><path fill="#7A8089" d="M272.717 474.817H270.9v-1.052h2.94v8.641h-1.123v-7.589zm8.5 7.577-5.832.012v-.896l2.785-2.403c1.398-1.207 1.793-1.792 1.793-2.713 0-1.087-.622-1.733-1.662-1.733-1.063 0-1.757.777-1.781 2.008h-1.171c.036-1.852 1.207-3.059 2.964-3.059 1.733 0 2.845 1.051 2.845 2.713 0 1.231-.61 2.103-2.14 3.43l-1.792 1.553h3.991v1.088zm2.262-4.326c-.466 0-.861-.383-.861-.825 0-.466.395-.849.861-.849a.86.86 0 0 1 .848.849c0 .442-.394.825-.848.825zm0 4.481c-.466 0-.861-.382-.861-.836 0-.466.395-.849.861-.849a.86.86 0 0 1 .848.849.857.857 0 0 1-.848.836zm2.353-4.458c0-2.677 1.386-4.493 3.561-4.493 2.164 0 3.55 1.816 3.55 4.493 0 2.69-1.327 4.47-3.55 4.47-2.234 0-3.561-1.78-3.561-4.47zm1.159 0c0 2.128.885 3.419 2.402 3.419 1.518 0 2.391-1.291 2.391-3.419 0-2.151-.873-3.442-2.391-3.442-1.517 0-2.402 1.291-2.402 3.442zm7.128 0c0-2.677 1.386-4.493 3.561-4.493 2.163 0 3.55 1.816 3.55 4.493 0 2.69-1.327 4.47-3.55 4.47-2.235 0-3.561-1.78-3.561-4.47zm1.159 0c0 2.128.884 3.419 2.402 3.419 1.518 0 2.391-1.291 2.391-3.419 0-2.151-.873-3.442-2.391-3.442s-2.402 1.291-2.402 3.442zm12.332 4.458c-1.255 0-1.996-.705-1.996-1.768 0-1.076.8-1.745 2.175-1.853l1.84-.143v-.168c0-.98-.585-1.326-1.374-1.326-.944 0-1.482.418-1.482 1.123h-.98c0-1.219 1.004-2.02 2.51-2.02 1.446 0 2.426.765 2.426 2.343v3.669h-.956l-.12-.944c-.298.669-1.099 1.087-2.043 1.087zm.322-.872c1.064 0 1.709-.693 1.709-1.793v-.311l-1.494.12c-.992.096-1.398.478-1.398 1.052 0 .621.454.932 1.183.932zm5.476.729h-1.123v-5.844h1.004l.107.765c.299-.55.921-.933 1.745-.933.909 0 1.554.455 1.853 1.184.275-.729.98-1.184 1.888-1.184 1.339 0 2.151.837 2.151 2.187v3.825h-1.099v-3.55c0-.92-.514-1.446-1.303-1.446-.848 0-1.41.598-1.41 1.53v3.466h-1.112v-3.562c0-.92-.502-1.422-1.29-1.422-.849 0-1.411.586-1.411 1.518v3.466z"/><rect width="266.822" height="40.652" x="159.589" y="457.08" stroke="#F2F3F8" stroke-width="1.178" rx="11.363"/><rect width="239.822" height="40.652" x="451.589" y="237.589" fill="#fff" rx="11.363"/><rect width="239.822" height="40.652" x="451.589" y="237.589" stroke="#F2F3F8" stroke-width="1.178" rx="11.363"/><rect width="239.822" height="40.652" x="451.589" y="292.462" fill="#fff" rx="11.363"/><rect width="239.822" height="40.652" x="451.589" y="292.462" stroke="#F2F3F8" stroke-width="1.178" rx="11.363"/><rect width="239.822" height="40.652" x="451.589" y="347.335" fill="#fff" rx="11.363"/><rect width="239.822" height="40.652" x="451.589" y="347.335" stroke="#F2F3F8" stroke-width="1.178" rx="11.363"/><rect width="239.822" height="40.652" x="451.589" y="402.207" fill="#fff" rx="11.363"/><rect width="239.822" height="40.652" x="451.589" y="402.207" stroke="#F2F3F8" stroke-width="1.178" rx="11.363"/><rect width="239.822" height="40.652" x="451.589" y="457.08" fill="#fff" rx="11.363"/><rect width="239.822" height="40.652" x="451.589" y="457.08" stroke="#F2F3F8" stroke-width="1.178" rx="11.363"/></g></g><defs><clipPath id="a"><path fill="#fff" d="M0 0h586v482H0z"/></clipPath><clipPath id="c"><path fill="#fff" d="M99 237h388v316.194H99z"/></clipPath><filter id="b" width="349.389" height="52.168" x="118.305" y="59.305" color-interpolation-filters="sRGB" filterUnits="userSpaceOnUse"><feFlood flood-opacity="0" result="BackgroundImageFix"/><feGaussianBlur in="BackgroundImageFix" stdDeviation="4.347"/><feComposite in2="SourceAlpha" operator="in" result="effect1_backgroundBlur_888_18317"/><feBlend in="SourceGraphic" in2="effect1_backgroundBlur_888_18317" result="shape"/></filter></defs></svg>