<svg xmlns="http://www.w3.org/2000/svg" width="269" height="294" fill="none"><g clip-path="url(#a)"><path fill="#fff" d="M80.879 68.65c0-10.27 0-15.405 2.615-19.005a13.69 13.69 0 0 1 3.03-3.03C90.124 44 95.26 44 105.53 44h150.954c10.271 0 15.406 0 19.006 2.615a13.686 13.686 0 0 1 3.029 3.03c2.616 3.6 2.616 8.735 2.616 19.005v21.654H80.879V68.65z"/><rect width="12.61" height="12.61" x="97.73" y="60.847" fill="#DB2170" rx="6.305"/><rect width="12.61" height="12.61" x="123.387" y="60.847" fill="#FB552F" rx="6.305"/><rect width="12.61" height="12.61" x="149.044" y="60.847" fill="#FBA92F" rx="6.305"/><rect width="12.61" height="12.61" x="174.701" y="60.847" fill="#00C82C" rx="6.305"/><path fill="#fff" fill-rule="evenodd" d="M184.002 65.4a.453.453 0 0 1 0 .64l-3.626 3.626a.453.453 0 0 1-.641 0l-1.813-1.813a.453.453 0 1 1 .641-.64l1.492 1.492 3.306-3.306a.453.453 0 0 1 .641 0z" clip-rule="evenodd"/><rect width="18.284" height="18.284" x="171.864" y="58.01" stroke="#F5F6FB" stroke-width=".63" rx="4.729"/><rect width="12.61" height="12.61" x="200.359" y="60.847" fill="#58CCF3" rx="6.305"/><rect width="12.61" height="12.61" x="226.017" y="60.847" fill="#2F43FB" rx="6.305"/><rect width="12.61" height="12.61" x="251.674" y="60.847" fill="#AD2FFB" rx="6.305"/><g filter="url(#b)"><rect width="244.595" height="64.583" x="56.709" y="89.916" fill="#fff" rx="16.727"/></g><path fill="#fff" d="M53.709 120.025c0-12.545 0-18.817 3.195-23.214a16.727 16.727 0 0 1 3.7-3.7c4.397-3.195 10.67-3.195 23.214-3.195h184.378c12.544 0 18.816 0 23.213 3.195a16.736 16.736 0 0 1 3.701 3.7c3.194 4.397 3.194 10.669 3.194 23.214v34.474H53.709v-34.474z"/><rect width="210.345" height="29.869" x="70.834" y="107.041" fill="#fff" rx="8.363"/><path fill="#7A8089" d="m86.59 117.418-.338.298.02.02.318-.318zm3.736 5.379-.298-.338-.02.019.318.319zm.097-1.546.337-.298a.261.261 0 0 0-.019-.02l-.318.318zm-5.38 5.379-.317.318.02.02.298-.338zm1.45 0 .298.338.02-.02-.318-.318zm-5.282-3.833.318-.319-.01-.009-.01-.01-.298.338zm1.82-4.01a.45.45 0 0 0 0 .9v-.9zm.005.9a.45.45 0 1 0 0-.9v.9zm-1.746-.45c0-.961.78-1.74 1.74-1.74v-.9a2.64 2.64 0 0 0-2.64 2.64h.9zm0 2.738v-2.738h-.9v2.738h.9zm1.74-4.478h2.738v-.9H83.03v.9zm2.738 0c.193 0 .365.084.484.219l.675-.596a1.543 1.543 0 0 0-1.159-.523v.9zm4.479 4.478a.642.642 0 0 1-.219.484l.596.675c.32-.282.523-.697.523-1.159h-.9zm-.162-.426a.64.64 0 0 1 .162.426h.9c0-.391-.146-.75-.387-1.022l-.675.596zm-4.317 4.905a.644.644 0 0 1-.426-.161l-.596.675c.272.24.63.386 1.022.386v-.9zm.427-.161a.644.644 0 0 1-.427.161v.9c.392 0 .75-.146 1.023-.386l-.596-.675zm-4.686-3.834a.642.642 0 0 1-.219-.484h-.9c0 .462.203.877.523 1.159l.596-.675zm4.762-4.723 3.834 3.833.636-.636-3.833-3.834-.637.637zm-.909 8.576-3.833-3.834-.637.637 3.834 3.833.636-.636zm4.646-3.834-3.834 3.834.637.636 3.833-3.833-.636-.637zm-6.978-2.791h.006v-.9h-.006v.9zm16.88 5.789h-.894l2.313-6.335h.955l2.322 6.335h-.902l-.57-1.578h-2.663l-.561 1.578zm1.787-4.968-.963 2.646h2.146l-.972-2.646a2.623 2.623 0 0 1-.105-.368 3.866 3.866 0 0 1-.106.368zm7.724 5.073c-1.244 0-1.997-.929-1.997-2.235 0-1.314.762-2.278 2.032-2.278.657 0 1.209.29 1.499.815v-2.856h.814v6.449h-.736l-.07-.78c-.28.587-.858.885-1.542.885zm.167-.745c.841 0 1.358-.622 1.358-1.516 0-.876-.517-1.507-1.358-1.507-.841 0-1.332.631-1.332 1.507 0 .885.491 1.516 1.332 1.516zm5.218.745c-1.261 0-2.129-.911-2.129-2.243 0-1.341.85-2.27 2.094-2.27 1.218 0 2.015.842 2.015 2.112v.307l-3.311.008c.061.903.534 1.402 1.349 1.402.639 0 1.06-.263 1.2-.753h.771c-.21.92-.929 1.437-1.989 1.437zm-.035-3.82c-.718 0-1.174.429-1.279 1.182h2.471c0-.709-.465-1.182-1.192-1.182zm2.585 2.47h.788c0 .439.333.701.877.701.578 0 .911-.236.911-.63 0-.29-.14-.465-.587-.579l-.754-.175c-.762-.184-1.121-.561-1.121-1.192 0-.788.666-1.288 1.612-1.288.937 0 1.551.526 1.568 1.341h-.788c-.018-.429-.307-.701-.806-.701-.517 0-.806.228-.806.622 0 .289.21.482.63.587l.754.184c.727.175 1.086.508 1.086 1.148 0 .815-.701 1.332-1.717 1.332-1.007 0-1.647-.535-1.647-1.35zm3.997-.893c0-1.341.85-2.27 2.103-2.27 1.078 0 1.831.614 1.98 1.569h-.823c-.14-.543-.579-.833-1.13-.833-.78 0-1.315.596-1.315 1.525 0 .92.5 1.516 1.279 1.516.587 0 1.026-.307 1.175-.815h.823c-.166.929-.964 1.551-1.998 1.551-1.261 0-2.094-.894-2.094-2.243zm7.414-2.182v.754h-.368c-.779 0-1.261.473-1.261 1.296v2.27h-.824V121.2h.771l.053.648c.175-.447.604-.745 1.191-.745.149 0 .272.018.438.053zm1.176-.981a.546.546 0 0 1-.543-.544.54.54 0 0 1 .543-.543.54.54 0 0 1 .543.543.546.546 0 0 1-.543.544zm-.403 5.301v-4.285h.823v4.285h-.823zm2.019 1.918v-6.203h.745l.061.771c.289-.587.868-.894 1.551-.894 1.227 0 1.989.92 1.989 2.235 0 1.305-.718 2.286-1.989 2.286-.683 0-1.253-.289-1.533-.814v2.619h-.824zm.833-4.056c0 .876.508 1.507 1.349 1.507s1.34-.631 1.34-1.507c0-.885-.499-1.516-1.34-1.516-.841 0-1.349.622-1.349 1.516zm5.587 2.138h-.823v-3.593h-.842v-.692h.842v-1.34h.823v1.34h.841v.692h-.841v3.593zm1.983-5.301a.547.547 0 0 1-.543-.544.54.54 0 0 1 .543-.543c.298 0 .544.237.544.543a.547.547 0 0 1-.544.544zm-.403 5.301v-4.285h.824v4.285h-.824zm3.22 0-1.726-4.285h.876l.938 2.392c.149.403.271.762.341 1.025.071-.28.211-.648.36-1.025l.955-2.392h.858l-1.787 4.285h-.815zm4.91.105c-1.262 0-2.13-.911-2.13-2.243 0-1.341.85-2.27 2.095-2.27 1.217 0 2.015.842 2.015 2.112v.307l-3.312.008c.061.903.534 1.402 1.349 1.402.64 0 1.06-.263 1.2-.753h.771c-.21.92-.928 1.437-1.988 1.437zm-.035-3.82c-.719 0-1.175.429-1.28 1.182h2.471c0-.709-.464-1.182-1.191-1.182zm6.172 3.715h-.824v-6.449h.824v6.449zm2.465.105c-.92 0-1.463-.517-1.463-1.297 0-.789.587-1.279 1.594-1.358l1.35-.105v-.123c0-.718-.43-.972-1.008-.972-.692 0-1.086.306-1.086.823h-.719c0-.894.736-1.481 1.84-1.481 1.06 0 1.779.561 1.779 1.718v2.69h-.701l-.088-.693c-.219.491-.806.798-1.498.798zm.236-.64c.78 0 1.253-.508 1.253-1.314v-.228l-1.095.088c-.727.07-1.025.35-1.025.771 0 .455.333.683.867.683zm3.936.535h-.745v-6.449h.824v2.9c.28-.561.859-.859 1.56-.859 1.226 0 1.962.964 1.962 2.287 0 1.297-.771 2.226-2.015 2.226-.675 0-1.244-.298-1.525-.885l-.061.78zm.088-2.156c0 .894.508 1.516 1.349 1.516s1.341-.631 1.341-1.516c0-.876-.5-1.507-1.341-1.507s-1.349.631-1.349 1.507zm6.27 2.261c-1.262 0-2.129-.911-2.129-2.243 0-1.341.849-2.27 2.094-2.27 1.218 0 2.015.842 2.015 2.112v.307l-3.312.008c.061.903.534 1.402 1.349 1.402.64 0 1.06-.263 1.201-.753h.771c-.211.92-.929 1.437-1.989 1.437zm-.035-3.82c-.719 0-1.174.429-1.28 1.182h2.471c0-.709-.464-1.182-1.191-1.182zm3.776 3.715h-.824v-6.449h.824v6.449zm4.432 0h-.824v-4.285h.745l.087.657c.272-.49.815-.78 1.42-.78 1.13 0 1.647.693 1.647 1.788v2.62h-.824v-2.436c0-.868-.403-1.218-1.033-1.218-.771 0-1.218.552-1.218 1.384v2.27zm5.469.105c-.92 0-1.463-.517-1.463-1.297 0-.789.587-1.279 1.594-1.358l1.349-.105v-.123c0-.718-.429-.972-1.007-.972-.692 0-1.087.306-1.087.823h-.718c0-.894.736-1.481 1.84-1.481 1.06 0 1.779.561 1.779 1.718v2.69h-.701l-.088-.693c-.219.491-.806.798-1.498.798zm.236-.64c.78 0 1.253-.508 1.253-1.314v-.228l-1.095.088c-.727.07-1.025.35-1.025.771 0 .455.333.683.867.683zm4.015.535h-.824v-4.285h.736l.079.561c.219-.403.675-.684 1.279-.684.666 0 1.139.333 1.358.868.202-.535.719-.868 1.385-.868.981 0 1.577.614 1.577 1.604v2.804h-.806v-2.603c0-.674-.377-1.06-.955-1.06-.622 0-1.034.438-1.034 1.122v2.541h-.815v-2.611c0-.675-.368-1.043-.946-1.043-.622 0-1.034.429-1.034 1.113v2.541zm8.58.105c-1.262 0-2.129-.911-2.129-2.243 0-1.341.85-2.27 2.094-2.27 1.218 0 2.015.842 2.015 2.112v.307l-3.312.008c.062.903.535 1.402 1.35 1.402.639 0 1.06-.263 1.2-.753h.771c-.21.92-.929 1.437-1.989 1.437zm-.035-3.82c-.718 0-1.174.429-1.279 1.182h2.471c0-.709-.465-1.182-1.192-1.182zm3.283 3.82a.632.632 0 0 1-.631-.614c0-.341.29-.622.631-.622a.63.63 0 0 1 .622.622.629.629 0 0 1-.622.614zm2.422 0a.63.63 0 0 1-.631-.614c0-.341.289-.622.631-.622a.63.63 0 0 1 .622.622.629.629 0 0 1-.622.614zm2.421 0a.632.632 0 0 1-.631-.614c0-.341.29-.622.631-.622a.63.63 0 0 1 .622.622.629.629 0 0 1-.622.614z"/><rect width="210.345" height="29.869" x="70.834" y="107.041" stroke="#F2F3F8" stroke-width=".797" rx="8.363"/><g filter="url(#c)"><rect width="308" height="102" x="24" y="149" fill="#fff" rx="20.833"/></g><rect width="308" height="102" x="24" y="149" fill="#fff" rx="20.833"/><path fill="#020710" d="M50.433 181.89h-2.51v3.538H46.58v-9.915h3.853c1.947 0 3.196 1.275 3.196 3.181 0 1.852-1.262 3.196-3.196 3.196zm-.233-5.17h-2.276v3.963h2.221c1.33 0 2.071-.782 2.071-2.002 0-1.248-.754-1.961-2.016-1.961zm8.571 1.947v1.179h-.576c-1.22 0-1.975.741-1.975 2.03v3.552h-1.289v-6.692h1.207l.082 1.014c.275-.699.947-1.165 1.865-1.165.233 0 .425.027.686.082zm.53 3.401c0-2.071 1.48-3.524 3.496-3.524 2.002 0 3.483 1.453 3.483 3.524 0 2.071-1.48 3.524-3.483 3.524-2.016 0-3.497-1.453-3.497-3.524zm1.302 0c0 1.399.891 2.372 2.194 2.372 1.29 0 2.194-.973 2.194-2.372s-.905-2.373-2.194-2.373c-1.303 0-2.194.974-2.194 2.373zm7.749-4.937a.846.846 0 0 1-.85-.85c0-.48.37-.85.85-.85.453 0 .85.37.85.85 0 .466-.397.85-.85.85zm-2.345 11.341.22-1.166c.26.069.41.096.616.096.617 0 .864-.356.864-1.11v-7.57h1.29v7.693c0 1.344-.741 2.181-2.044 2.181a2.94 2.94 0 0 1-.946-.124zm7.754-2.88c-1.974 0-3.332-1.426-3.332-3.51 0-2.099 1.33-3.552 3.278-3.552 1.906 0 3.154 1.316 3.154 3.305v.48l-5.184.013c.096 1.413.837 2.195 2.112 2.195 1.001 0 1.66-.412 1.879-1.18h1.206c-.329 1.44-1.453 2.249-3.112 2.249zm-.054-5.979c-1.125 0-1.838.672-2.002 1.852h3.867c0-1.111-.727-1.852-1.865-1.852zm4.155 2.469c0-2.099 1.33-3.552 3.291-3.552 1.687 0 2.866.96 3.1 2.455h-1.29c-.22-.851-.905-1.303-1.769-1.303-1.22 0-2.057.932-2.057 2.386 0 1.44.782 2.372 2.002 2.372.92 0 1.605-.48 1.838-1.275h1.289c-.26 1.454-1.509 2.427-3.127 2.427-1.974 0-3.277-1.398-3.277-3.51zm9.657 3.346h-1.29v-5.623h-1.316v-1.083h1.317v-2.098h1.289v2.098h1.316v1.083H87.52v5.623zm7.786-9.915v8.667h4.361v1.248h-5.705v-9.915h1.344zm7.563 10.079c-1.44 0-2.291-.809-2.291-2.029 0-1.235.919-2.002 2.496-2.126l2.112-.164v-.192c0-1.125-.672-1.523-1.577-1.523-1.083 0-1.7.48-1.7 1.289h-1.125c0-1.398 1.152-2.317 2.88-2.317 1.659 0 2.784.877 2.784 2.688v4.21h-1.097l-.137-1.084c-.343.768-1.262 1.248-2.345 1.248zm.37-1.001c1.22 0 1.961-.795 1.961-2.057v-.356l-1.714.137c-1.138.109-1.605.548-1.605 1.207 0 .713.521 1.069 1.358 1.069zm6.16.837h-1.166v-10.093h1.289v4.539c.439-.878 1.344-1.344 2.441-1.344 1.92 0 3.072 1.508 3.072 3.579 0 2.03-1.207 3.483-3.154 3.483-1.056 0-1.947-.466-2.386-1.385l-.096 1.221zm.137-3.374c0 1.399.795 2.373 2.112 2.373 1.316 0 2.098-.988 2.098-2.373 0-1.371-.782-2.359-2.098-2.359-1.317 0-2.112.988-2.112 2.359zm9.813 3.538c-1.974 0-3.332-1.426-3.332-3.51 0-2.099 1.33-3.552 3.278-3.552 1.906 0 3.154 1.316 3.154 3.305v.48l-5.184.013c.096 1.413.837 2.195 2.112 2.195 1.001 0 1.659-.412 1.879-1.18h1.206c-.329 1.44-1.453 2.249-3.113 2.249zm-.054-5.979c-1.125 0-1.838.672-2.003 1.852h3.868c0-1.111-.727-1.852-1.865-1.852zm5.91 5.815h-1.289v-10.093h1.289v10.093zm1.349-1.948h1.234c0 .686.521 1.097 1.372 1.097.905 0 1.426-.37 1.426-.987 0-.452-.219-.727-.919-.905l-1.179-.274c-1.193-.288-1.756-.878-1.756-1.865 0-1.235 1.043-2.016 2.524-2.016 1.467 0 2.427.823 2.454 2.098h-1.234c-.027-.672-.48-1.097-1.261-1.097-.81 0-1.262.356-1.262.974 0 .452.329.754.987.918l1.18.288c1.138.275 1.7.796 1.7 1.797 0 1.275-1.097 2.084-2.688 2.084-1.577 0-2.578-.836-2.578-2.112z"/><g clip-path="url(#d)"><rect width="75.585" height="25.715" x="-39" y="205.75" fill="#2F43FB" fill-opacity=".03" rx="7.858"/><rect width="75.585" height="26.56" x="-39" y="205.75" fill="url(#e)" rx="7.858"/><rect width="75.585" height="25.715" x="44.471" y="205.75" fill="#0FB849" fill-opacity=".03" rx="7.858"/><path fill="#00C82C" d="M74.867 222.607H72.11v-7.658h2.682c2.263 0 3.825 1.561 3.825 3.845 0 2.252-1.53 3.813-3.751 3.813zm-.2-6.422h-1.215v5.186h1.289c1.53 0 2.462-.985 2.462-2.577 0-1.624-.953-2.609-2.535-2.609zm9.956 6.422h-4.756v-7.658h4.756v1.236h-3.415v1.97h3.06v1.184h-3.06v2.032h3.415v1.236zm3.602 0-2.892-7.658h1.425l1.677 4.411c.167.461.314.911.481 1.529.189-.67.346-1.142.493-1.529l1.655-4.411h1.394l-2.85 7.658h-1.383z"/><rect width="75.585" height="25.715" x="127.941" y="205.75" fill="#E74723" fill-opacity=".03" rx="7.858"/><path fill="#FB552F" d="M149.337 222.607h-2.755v-7.658h2.682c2.263 0 3.824 1.561 3.824 3.845 0 2.252-1.529 3.813-3.751 3.813zm-.199-6.422h-1.215v5.186h1.289c1.529 0 2.462-.985 2.462-2.577 0-1.624-.954-2.609-2.536-2.609zm9.956 6.422h-4.757v-7.658h4.757v1.236h-3.416v1.97h3.06v1.184h-3.06v2.032h3.416v1.236zm1.014-5.521c0-1.341 1.11-2.273 2.724-2.273 1.55 0 2.535.859 2.577 2.242h-1.341c-.031-.66-.503-1.048-1.257-1.048-.828 0-1.362.398-1.362 1.037 0 .545.293.849.932.995l1.205.262c1.31.283 1.949.954 1.949 2.096 0 1.425-1.111 2.347-2.797 2.347-1.635 0-2.703-.87-2.735-2.242h1.341c.011.649.534 1.037 1.394 1.037.89 0 1.456-.388 1.456-1.027 0-.513-.262-.817-.891-.953l-1.215-.273c-1.299-.283-1.98-1.027-1.98-2.2zm7.981-2.137v7.658h-1.341v-7.658h1.341zm5.05 1.131c-1.519 0-2.388 1.1-2.388 2.756 0 1.707.985 2.64 2.399 2.64 1.331 0 2.137-.733 2.137-1.959v-.032h-2.315v-1.184h3.562v4.306h-1.131l-.084-.88c-.419.587-1.289.996-2.326.996-2.148 0-3.646-1.561-3.646-3.919 0-2.326 1.519-3.981 3.824-3.981 1.75 0 3.101 1.016 3.321 2.577h-1.414c-.241-.901-1.017-1.32-1.939-1.32zm6.163 6.527h-1.32v-7.658h1.331l3.593 5.427v-5.427h1.32v7.658h-1.32l-3.604-5.427v5.427z"/><rect width="75.585" height="25.715" x="211.414" y="205.75" fill="#892FFB" fill-opacity=".03" rx="7.858"/><path fill="#AD2FFB" d="M239.896 222.607h-1.341v-7.658h1.341v3.164h3.394v-3.164h1.341v7.658h-1.341v-3.247h-3.394v3.247zm7.776 0h-1.341v-7.658h2.923c1.739 0 2.755.88 2.755 2.389 0 1.026-.482 1.76-1.383 2.126l1.456 3.143h-1.466l-1.3-2.86h-1.644v2.86zm0-6.464v2.42h1.582c.848 0 1.351-.45 1.351-1.225 0-.765-.503-1.195-1.351-1.195h-1.582zm8.433 6.464h-2.756v-7.658h2.682c2.263 0 3.825 1.561 3.825 3.845 0 2.252-1.53 3.813-3.751 3.813zm-.199-6.422h-1.216v5.186h1.289c1.53 0 2.462-.985 2.462-2.577 0-1.624-.953-2.609-2.535-2.609z"/><rect width="75.585" height="26.56" fill="url(#f)" rx="7.858" transform="matrix(-1 0 0 1 286.994 205.75)"/></g></g><defs><linearGradient id="e" x1="-39" x2="54.657" y1="218.566" y2="218.566" gradientUnits="userSpaceOnUse"><stop offset=".425" stop-color="#fff"/><stop offset="1" stop-color="#fff" stop-opacity="0"/><stop offset="1" stop-color="#fff" stop-opacity="0"/></linearGradient><linearGradient id="f" x1="0" x2="93.657" y1="12.816" y2="12.816" gradientUnits="userSpaceOnUse"><stop offset=".377" stop-color="#fff"/><stop offset="1" stop-color="#fff" stop-opacity="0"/><stop offset="1" stop-color="#fff" stop-opacity="0"/></linearGradient><clipPath id="a"><path fill="#fff" d="M0 0h269v294H0z"/></clipPath><clipPath id="d"><path fill="#fff" d="M24 205.75h308.333v28.125H24z"/></clipPath><filter id="b" width="294.596" height="114.583" x="31.709" y="39.916" color-interpolation-filters="sRGB" filterUnits="userSpaceOnUse"><feFlood flood-opacity="0" result="BackgroundImageFix"/><feColorMatrix in="SourceAlpha" result="hardAlpha" values="0 0 0 0 0 0 0 0 0 0 0 0 0 0 0 0 0 0 127 0"/><feOffset dy="-25"/><feGaussianBlur stdDeviation="12.5"/><feComposite in2="hardAlpha" operator="out"/><feColorMatrix values="0 0 0 0 0.0588235 0 0 0 0 0.721569 0 0 0 0 0.286275 0 0 0 0.03 0"/><feBlend in2="BackgroundImageFix" result="effect1_dropShadow_1085_8457"/><feBlend in="SourceGraphic" in2="effect1_dropShadow_1085_8457" result="shape"/></filter><filter id="c" width="358" height="152" x="-1" y="99" color-interpolation-filters="sRGB" filterUnits="userSpaceOnUse"><feFlood flood-opacity="0" result="BackgroundImageFix"/><feColorMatrix in="SourceAlpha" result="hardAlpha" values="0 0 0 0 0 0 0 0 0 0 0 0 0 0 0 0 0 0 127 0"/><feOffset dy="-25"/><feGaussianBlur stdDeviation="12.5"/><feComposite in2="hardAlpha" operator="out"/><feColorMatrix values="0 0 0 0 0.0588235 0 0 0 0 0.721569 0 0 0 0 0.286275 0 0 0 0.03 0"/><feBlend in2="BackgroundImageFix" result="effect1_dropShadow_1085_8457"/><feBlend in="SourceGraphic" in2="effect1_dropShadow_1085_8457" result="shape"/></filter></defs></svg>