<svg xmlns="http://www.w3.org/2000/svg" width="269" height="294" fill="none"><g clip-path="url(#a)"><path fill="#fff" d="M80.6 66.664c0-9.859 0-14.789 2.51-18.245a13.148 13.148 0 0 1 2.909-2.908C89.475 43 94.405 43 104.264 43h168.58v46.294H80.6v-22.63z"/><path fill="#020710" d="M95.277 69.147h-.824v-6.082h2.296c1.304 0 2.078.69 2.078 1.825 0 .841-.421 1.447-1.178 1.691l1.236 2.566h-.916l-1.136-2.406h-1.556v2.406zm0-5.342v2.204h1.48c.766 0 1.203-.412 1.203-1.11 0-.707-.454-1.094-1.211-1.094h-1.472zm6.024 5.442c-1.212 0-2.044-.874-2.044-2.153 0-1.287.816-2.178 2.01-2.178 1.169 0 1.935.807 1.935 2.027v.294l-3.18.009c.059.866.513 1.345 1.295 1.345.614 0 1.018-.252 1.153-.723h.74c-.202.883-.892 1.38-1.909 1.38zm-.034-3.667c-.69 0-1.127.412-1.228 1.136h2.372c0-.682-.446-1.136-1.144-1.136zm2.818 5.409v-5.956h.715l.059.74c.277-.563.832-.857 1.488-.857 1.178 0 1.91.883 1.91 2.145 0 1.253-.69 2.195-1.91 2.195-.656 0-1.203-.278-1.472-.782v2.515h-.79zm.799-3.895c0 .841.488 1.447 1.295 1.447.808 0 1.287-.606 1.287-1.447 0-.85-.479-1.455-1.287-1.455-.807 0-1.295.597-1.295 1.455zm6.019 2.153c-1.211 0-2.044-.874-2.044-2.153 0-1.287.816-2.178 2.01-2.178 1.169 0 1.935.807 1.935 2.027v.294l-3.18.009c.059.866.514 1.345 1.296 1.345.614 0 1.018-.252 1.152-.723h.74c-.202.883-.891 1.38-1.909 1.38zm-.034-3.667c-.689 0-1.127.412-1.228 1.136h2.372c0-.682-.446-1.136-1.144-1.136zm3.98 3.667c-.883 0-1.405-.496-1.405-1.245 0-.756.564-1.227 1.531-1.303l1.295-.101v-.118c0-.69-.412-.934-.967-.934-.665 0-1.043.295-1.043.791h-.69c0-.858.707-1.421 1.767-1.421 1.017 0 1.707.538 1.707 1.648v2.583h-.673l-.084-.665c-.21.471-.774.765-1.438.765zm.227-.614c.748 0 1.203-.487 1.203-1.261v-.219l-1.052.084c-.698.067-.984.337-.984.74 0 .438.32.656.833.656zm4.158.514h-.791v-3.45h-.807v-.664h.807v-1.287h.791v1.287h.808v.665h-.808v3.449zm5.592.1c-1.211 0-2.044-.874-2.044-2.153 0-1.287.816-2.178 2.01-2.178 1.169 0 1.935.807 1.935 2.027v.294l-3.18.009c.059.866.513 1.345 1.296 1.345.614 0 1.018-.252 1.152-.723h.74c-.202.883-.891 1.38-1.909 1.38zm-.034-3.667c-.689 0-1.127.412-1.228 1.136h2.372c0-.682-.446-1.136-1.144-1.136zm3.831 3.567-1.657-4.114h.841l.9 2.297c.143.387.261.731.328.984.067-.27.202-.623.345-.984l.917-2.297h.824l-1.716 4.114h-.782zm4.713.1c-1.211 0-2.044-.874-2.044-2.153 0-1.287.816-2.178 2.01-2.178 1.169 0 1.935.807 1.935 2.027v.294l-3.18.009c.059.866.513 1.345 1.296 1.345.614 0 1.017-.252 1.152-.723h.74c-.202.883-.891 1.38-1.909 1.38zm-.034-3.667c-.69 0-1.127.412-1.228 1.136h2.372c0-.682-.446-1.136-1.144-1.136zm5.173-.58v.723h-.353c-.749 0-1.212.454-1.212 1.245v2.178h-.79v-4.104h.74l.05.622c.169-.429.581-.715 1.144-.715.143 0 .261.017.421.05zm.469 5.989v-.648h.53c.379 0 .682-.059.875-.58l.143-.396-1.657-4.332h.833l1.194 3.314 1.22-3.314h.816l-1.943 5.039c-.278.706-.69 1-1.321 1-.261 0-.479-.033-.69-.083zm7.768-1.843-1.346-4.113h.816l.682 2.137c.092.303.176.614.252.975a7 7 0 0 1 .269-.975l.69-2.137h.807l.682 2.137c.067.202.201.681.269.975.067-.328.143-.614.26-.975l.69-2.137h.825l-1.405 4.114h-.749l-.715-2.204a7.966 7.966 0 0 1-.26-.96c-.043.203-.118.472-.27.968l-.715 2.196h-.782zm7.159.101c-1.211 0-2.044-.874-2.044-2.153 0-1.287.816-2.178 2.01-2.178 1.17 0 1.935.807 1.935 2.027v.294l-3.179.009c.058.866.513 1.345 1.295 1.345.614 0 1.018-.252 1.152-.723h.74c-.201.883-.891 1.38-1.909 1.38zm-.034-3.667c-.689 0-1.127.412-1.228 1.136h2.372c0-.682-.445-1.136-1.144-1.136zm4.593 3.667c-1.211 0-2.044-.874-2.044-2.153 0-1.287.816-2.178 2.01-2.178 1.169 0 1.935.807 1.935 2.027v.294l-3.18.009c.059.866.514 1.345 1.296 1.345.614 0 1.018-.252 1.152-.723h.74c-.202.883-.891 1.38-1.909 1.38zm-.034-3.667c-.689 0-1.127.412-1.228 1.136h2.372c0-.682-.446-1.136-1.144-1.136zm3.626 3.567h-.791v-6.191h.791v4.012l1.825-1.935h.992l-1.573 1.64 1.565 2.474h-.909l-1.202-1.901-.698.731v1.17z"/><path fill="#2F43FB" fill-rule="evenodd" d="M239.025 56.206c1.023-.065 2.046-.06 3.069-.06h5.187c1.043 0 2.066-.005 3.089.06.93.058 1.836.182 2.737.459 1.899.582 3.556 1.797 4.754 3.52 1.192 1.712 1.836 3.809 1.836 5.96 0 2.156-.644 4.25-1.836 5.963-1.198 1.722-2.855 2.938-4.754 3.52-.901.277-1.807.4-2.737.46-1.023.064-2.046.058-3.069.058h-5.188c-1.042 0-2.065.006-3.088-.059-.929-.059-1.835-.182-2.737-.459-1.898-.582-3.556-1.798-4.754-3.52-1.191-1.713-1.837-3.807-1.837-5.962 0-2.152.646-4.248 1.837-5.96 1.198-1.724 2.856-2.94 4.754-3.521.902-.277 1.808-.401 2.737-.46z" clip-rule="evenodd"/><g filter="url(#b)"><path fill="#fff" fill-rule="evenodd" d="M249.697 74.147a8 8 0 0 0 8-8 8 8 0 1 0-8 8z" clip-rule="evenodd"/><path stroke="#000" stroke-opacity=".04" stroke-width=".5" d="M249.697 74.397a8.25 8.25 0 0 0 8.25-8.25 8.25 8.25 0 1 0-8.25 8.25z"/></g><g filter="url(#c)"><rect width="234.812" height="62" x="54.316" y="88" fill="#fff" rx="16.058"/></g><path fill="#fff" d="M56.316 117.904c0-12.042 0-18.064 3.067-22.285a16.057 16.057 0 0 1 3.553-3.552C67.156 89 73.178 89 85.22 89h177.003c12.042 0 18.064 0 22.285 3.067a16.05 16.05 0 0 1 3.552 3.552c3.067 4.221 3.067 10.243 3.067 22.285V151H56.316v-33.096z"/><rect width="97.523" height="28.675" x="72.757" y="105.44" fill="#fff" rx="8.029"/><path stroke="#7A8089" stroke-linecap="round" stroke-linejoin="round" stroke-width=".864" d="M87.094 117.674v2.103l1.577 1.577m3.154-1.577a4.732 4.732 0 1 1-9.464 0 4.732 4.732 0 0 1 9.464 0z"/><path fill="#020710" d="m103.664 120.851-1.421 1.926h-.959l1.522-2.018a1.73 1.73 0 0 1-.639.126c-1.262 0-2.111-.909-2.111-2.12 0-1.262.959-2.178 2.212-2.178 1.262 0 2.237.95 2.237 2.187 0 .715-.218 1.228-.841 2.077zm0-2.086c0-.833-.572-1.438-1.396-1.438-.808 0-1.379.605-1.379 1.438s.571 1.422 1.379 1.422c.824 0 1.396-.589 1.396-1.422zm2.434.959c-.328 0-.606-.269-.606-.58 0-.328.278-.598.606-.598.319 0 .597.27.597.598 0 .311-.278.58-.597.58zm0 3.154a.606.606 0 0 1-.606-.589c0-.328.278-.597.606-.597.319 0 .597.269.597.597 0 .32-.278.589-.597.589zm1.656-3.137c0-1.884.976-3.163 2.507-3.163 1.522 0 2.498 1.279 2.498 3.163 0 1.892-.934 3.146-2.498 3.146-1.573 0-2.507-1.254-2.507-3.146zm.816 0c0 1.497.622 2.405 1.691 2.405 1.068 0 1.682-.908 1.682-2.405 0-1.514-.614-2.423-1.682-2.423-1.069 0-1.691.909-1.691 2.423zm5.016 0c0-1.884.976-3.163 2.507-3.163 1.522 0 2.498 1.279 2.498 3.163 0 1.892-.934 3.146-2.498 3.146-1.573 0-2.507-1.254-2.507-3.146zm.816 0c0 1.497.622 2.405 1.691 2.405 1.068 0 1.682-.908 1.682-2.405 0-1.514-.614-2.423-1.682-2.423-1.069 0-1.691.909-1.691 2.423zm8.679 3.137c-.883 0-1.405-.496-1.405-1.245 0-.757.564-1.228 1.531-1.303l1.295-.101v-.118c0-.69-.412-.934-.967-.934-.665 0-1.043.295-1.043.791h-.69c0-.858.707-1.422 1.767-1.422 1.017 0 1.707.539 1.707 1.649v2.582h-.673l-.084-.664c-.21.471-.774.765-1.438.765zm.227-.614c.748 0 1.203-.488 1.203-1.261v-.219l-1.052.084c-.698.067-.984.336-.984.74 0 .438.32.656.833.656zm3.854.513h-.791v-4.113h.707l.075.539c.211-.387.648-.657 1.228-.657.64 0 1.094.32 1.304.833.194-.513.69-.833 1.329-.833.942 0 1.514.589 1.514 1.54v2.691h-.774v-2.498c0-.647-.361-1.018-.917-1.018-.597 0-.992.421-.992 1.077v2.439h-.782v-2.506c0-.648-.354-1.001-.909-1.001-.597 0-.992.412-.992 1.068v2.439z"/><rect width="97.523" height="28.675" x="72.757" y="105.44" stroke="#F2F3F8" stroke-width=".765" rx="8.029"/><rect width="97.523" height="28.675" x="177.164" y="105.44" fill="#fff" rx="8.029"/><path stroke="#7A8089" stroke-linecap="round" stroke-linejoin="round" stroke-width=".864" d="M186.798 119.252h1.023c.581 0 1.051.47 1.051 1.051v.526c0 .58.471 1.051 1.052 1.051.58 0 1.051.471 1.051 1.051v1.549m-1.577-8.942v.822c0 .726.588 1.314 1.314 1.314h.263c.581 0 1.052.471 1.052 1.052a1.05 1.05 0 1 0 2.102 0c0-.581.471-1.052 1.052-1.052h.559m-2.662 6.565v-1.308c0-.58.471-1.051 1.051-1.051h1.611m.492-2.103a4.732 4.732 0 1 1-9.463 0 4.732 4.732 0 0 1 9.463 0z"/><path fill="#020710" d="M204.783 120.616v-3.92h.824v3.869c0 .976.538 1.514 1.506 1.514.958 0 1.488-.547 1.488-1.514v-3.869h.833v3.92c0 1.396-.892 2.262-2.321 2.262-1.439 0-2.33-.858-2.33-2.262zm5.433-3.163v-.757h4.483v.757h-1.825v5.324h-.825v-5.324h-1.833zm7.605 5.417c-1.733 0-2.885-1.245-2.885-3.129 0-1.876 1.186-3.146 2.927-3.146 1.371 0 2.423.816 2.65 2.061h-.883c-.228-.791-.909-1.27-1.792-1.27-1.228 0-2.036.925-2.036 2.346 0 1.422.808 2.347 2.036 2.347.892 0 1.598-.479 1.825-1.228h.875c-.261 1.211-1.346 2.019-2.717 2.019zm3.694-3.264h1.766v-1.766h.673v1.766h1.767v.673h-1.767v1.775h-.673v-1.775h-1.766v-.673zm5.292.135c0-1.884.976-3.163 2.507-3.163 1.522 0 2.498 1.279 2.498 3.163 0 1.892-.934 3.146-2.498 3.146-1.573 0-2.507-1.254-2.507-3.146zm.816 0c0 1.497.622 2.405 1.691 2.405 1.068 0 1.682-.908 1.682-2.405 0-1.514-.614-2.423-1.682-2.423-1.069 0-1.691.909-1.691 2.423zm6.708-.109h-.606v-.547l1.725-1.657h-2.734v-.732h3.777v.664l-1.666 1.59c1.035.126 1.817.825 1.817 1.918 0 1.228-.925 2.01-2.162 2.01-1.194 0-2.052-.732-2.052-1.993h.816c0 .79.488 1.253 1.253 1.253.791 0 1.304-.505 1.304-1.287 0-.732-.505-1.219-1.472-1.219zm3.872.092c-.328 0-.605-.269-.605-.58 0-.328.277-.598.605-.598.32 0 .597.27.597.598 0 .311-.277.58-.597.58zm0 3.154a.605.605 0 0 1-.605-.589c0-.328.277-.597.605-.597.32 0 .597.269.597.597 0 .32-.277.589-.597.589zm1.656-3.137c0-1.884.976-3.163 2.507-3.163 1.522 0 2.498 1.279 2.498 3.163 0 1.892-.934 3.146-2.498 3.146-1.573 0-2.507-1.254-2.507-3.146zm.816 0c0 1.497.623 2.405 1.691 2.405s1.682-.908 1.682-2.405c0-1.514-.614-2.423-1.682-2.423s-1.691.909-1.691 2.423zm5.016 0c0-1.884.976-3.163 2.507-3.163 1.522 0 2.498 1.279 2.498 3.163 0 1.892-.934 3.146-2.498 3.146-1.573 0-2.507-1.254-2.507-3.146zm.816 0c0 1.497.623 2.405 1.691 2.405s1.682-.908 1.682-2.405c0-1.514-.614-2.423-1.682-2.423s-1.691.909-1.691 2.423z"/><rect width="97.523" height="28.675" x="177.164" y="105.44" stroke="#F2F3F8" stroke-width=".765" rx="8.029"/><g filter="url(#d)"><rect width="296" height="102" x="24" y="150" fill="#fff" rx="20"/></g><rect width="296" height="102" x="24" y="150" fill="#fff" rx="20"/><path fill="#020710" d="M47.066 185.57h-1.344v-9.915h3.744c2.126 0 3.387 1.125 3.387 2.976 0 1.372-.685 2.359-1.92 2.757l2.016 4.182h-1.494l-1.852-3.922h-2.537v3.922zm0-8.708v3.593h2.414c1.248 0 1.96-.672 1.96-1.81 0-1.152-.74-1.783-1.974-1.783h-2.4zm9.821 8.873c-1.975 0-3.332-1.426-3.332-3.511 0-2.098 1.33-3.552 3.277-3.552 1.906 0 3.154 1.317 3.154 3.305v.48l-5.183.014c.096 1.413.836 2.194 2.111 2.194 1.002 0 1.66-.411 1.88-1.179H60c-.33 1.44-1.454 2.249-3.113 2.249zm-.055-5.979c-1.124 0-1.837.672-2.002 1.851h3.867c0-1.111-.727-1.851-1.865-1.851zm4.594 8.818v-9.71h1.166l.096 1.207c.452-.919 1.357-1.399 2.427-1.399 1.92 0 3.113 1.44 3.113 3.497 0 2.044-1.124 3.58-3.113 3.58-1.07 0-1.961-.453-2.4-1.276v4.101h-1.289zm1.303-6.35c0 1.372.795 2.359 2.112 2.359 1.316 0 2.098-.987 2.098-2.359 0-1.385-.782-2.372-2.098-2.372-1.317 0-2.112.973-2.112 2.372zm9.814 3.511c-1.975 0-3.333-1.426-3.333-3.511 0-2.098 1.33-3.552 3.278-3.552 1.906 0 3.154 1.317 3.154 3.305v.48l-5.184.014c.096 1.413.837 2.194 2.112 2.194 1.001 0 1.66-.411 1.879-1.179h1.207c-.33 1.44-1.454 2.249-3.114 2.249zm-.055-5.979c-1.125 0-1.838.672-2.002 1.851h3.867c0-1.111-.727-1.851-1.865-1.851zm6.488 5.979c-1.44 0-2.29-.809-2.29-2.03 0-1.234.918-2.002 2.495-2.125l2.112-.165v-.192c0-1.124-.672-1.522-1.577-1.522-1.083 0-1.7.48-1.7 1.289H76.89c0-1.399 1.152-2.318 2.88-2.318 1.66 0 2.784.878 2.784 2.688v4.21h-1.097l-.137-1.083c-.343.768-1.262 1.248-2.345 1.248zm.37-1.001c1.22 0 1.961-.796 1.961-2.057v-.357l-1.714.137c-1.139.11-1.605.549-1.605 1.207 0 .713.521 1.07 1.358 1.07zm6.78.836h-1.29v-5.622H83.52v-1.084h1.316v-2.098h1.29v2.098h1.316v1.084h-1.316v5.622zm5.784-3.36c0-2.07 1.48-3.524 3.497-3.524 2.002 0 3.483 1.454 3.483 3.524 0 2.071-1.481 3.525-3.483 3.525-2.016 0-3.497-1.454-3.497-3.525zm1.303 0c0 1.399.891 2.373 2.194 2.373 1.289 0 2.194-.974 2.194-2.373 0-1.398-.905-2.372-2.194-2.372-1.303 0-2.194.974-2.194 2.372zm8.393 3.36h-1.289v-6.706h1.166l.137 1.029c.425-.768 1.275-1.221 2.221-1.221 1.769 0 2.579 1.084 2.579 2.798v4.1h-1.29v-3.812c0-1.358-.63-1.906-1.618-1.906-1.207 0-1.906.864-1.906 2.166v3.552z"/><rect width="27.427" height="27.427" x="44.57" y="204.284" fill="#2F43FB" rx="7.714"/><path fill="#fff" d="M54.853 223.284h-1.316v-9.915h1.316l3.415 8.338 3.414-8.338h1.344v9.915H61.71v-3.922c0-1.851.014-2.523.082-3.223l-2.893 7.145h-1.262l-2.88-7.117c.069.48.096 1.495.096 2.88v4.237z"/><rect width="27.427" height="27.427" x="82.282" y="204.284" fill="#2F43FB" rx="7.714"/><path fill="#fff" d="M92.338 214.603v-1.234h7.309v1.234H96.67v8.681h-1.344v-8.681h-2.99z"/><rect width="27.427" height="27.427" x="119.995" y="204.284" fill="#F9FCFF" rx="7.714"/><path fill="#020710" d="M130.05 214.603v-1.234h7.31v1.234h-2.976v8.681h-1.344v-8.681h-2.99z" opacity=".12"/><rect width="27.427" height="27.427" x="157.707" y="204.284" fill="#F9FCFF" rx="7.714"/><path fill="#020710" d="m167.684 223.284-2.948-9.915h1.399l1.81 6.062c.137.521.274 1.042.411 1.796.165-.795.316-1.275.467-1.796l1.878-6.062h1.454l1.865 6.062c.165.534.302 1.056.453 1.796.164-.836.301-1.344.439-1.783l1.823-6.075h1.372l-2.99 9.915h-1.289l-2.4-7.844-2.427 7.844h-1.317z" opacity=".12"/><rect width="27.427" height="27.427" x="195.42" y="204.284" fill="#2F43FB" rx="7.714"/><path fill="#fff" d="M211.721 219.074h-3.895v4.21h-1.344v-9.915h5.979v1.234h-4.635v3.251h3.895v1.22z"/><rect width="27.427" height="27.427" x="233.132" y="204.284" fill="#F9FCFF" rx="7.714"/><path fill="#020710" d="M243.464 216.043c0-1.7 1.371-2.852 3.415-2.852 1.892 0 3.113 1.056 3.222 2.77h-1.357c-.069-.987-.768-1.563-1.879-1.563-1.248 0-2.057.631-2.057 1.604 0 .796.452 1.276 1.385 1.495l1.632.384c1.618.37 2.441 1.248 2.441 2.647 0 1.783-1.385 2.921-3.497 2.921-2.016 0-3.36-1.056-3.442-2.757h1.371c.028.947.823 1.55 2.071 1.55 1.316 0 2.153-.617 2.153-1.605 0-.781-.425-1.275-1.371-1.494l-1.632-.371c-1.618-.37-2.455-1.302-2.455-2.729z" opacity=".12"/></g><defs><filter id="b" width="33" height="33" x="233.197" y="52.647" color-interpolation-filters="sRGB" filterUnits="userSpaceOnUse"><feFlood flood-opacity="0" result="BackgroundImageFix"/><feColorMatrix in="SourceAlpha" result="hardAlpha" values="0 0 0 0 0 0 0 0 0 0 0 0 0 0 0 0 0 0 127 0"/><feOffset dy="3"/><feGaussianBlur stdDeviation=".5"/><feColorMatrix values="0 0 0 0 0 0 0 0 0 0 0 0 0 0 0 0 0 0 0.06 0"/><feBlend in2="BackgroundImageFix" result="effect1_dropShadow_1085_8456"/><feColorMatrix in="SourceAlpha" result="hardAlpha" values="0 0 0 0 0 0 0 0 0 0 0 0 0 0 0 0 0 0 127 0"/><feOffset dy="3"/><feGaussianBlur stdDeviation="4"/><feColorMatrix values="0 0 0 0 0 0 0 0 0 0 0 0 0 0 0 0 0 0 0.15 0"/><feBlend in2="effect1_dropShadow_1085_8456" result="effect2_dropShadow_1085_8456"/><feBlend in="SourceGraphic" in2="effect2_dropShadow_1085_8456" result="shape"/></filter><filter id="c" width="282.812" height="110" x="30.316" y="40" color-interpolation-filters="sRGB" filterUnits="userSpaceOnUse"><feFlood flood-opacity="0" result="BackgroundImageFix"/><feColorMatrix in="SourceAlpha" result="hardAlpha" values="0 0 0 0 0 0 0 0 0 0 0 0 0 0 0 0 0 0 127 0"/><feOffset dy="-24"/><feGaussianBlur stdDeviation="12"/><feComposite in2="hardAlpha" operator="out"/><feColorMatrix values="0 0 0 0 0.184314 0 0 0 0 0.262745 0 0 0 0 0.984314 0 0 0 0.03 0"/><feBlend in2="BackgroundImageFix" result="effect1_dropShadow_1085_8456"/><feBlend in="SourceGraphic" in2="effect1_dropShadow_1085_8456" result="shape"/></filter><filter id="d" width="344" height="150" x="0" y="102" color-interpolation-filters="sRGB" filterUnits="userSpaceOnUse"><feFlood flood-opacity="0" result="BackgroundImageFix"/><feColorMatrix in="SourceAlpha" result="hardAlpha" values="0 0 0 0 0 0 0 0 0 0 0 0 0 0 0 0 0 0 127 0"/><feOffset dy="-24"/><feGaussianBlur stdDeviation="12"/><feComposite in2="hardAlpha" operator="out"/><feColorMatrix values="0 0 0 0 0.184314 0 0 0 0 0.262745 0 0 0 0 0.984314 0 0 0 0.03 0"/><feBlend in2="BackgroundImageFix" result="effect1_dropShadow_1085_8456"/><feBlend in="SourceGraphic" in2="effect1_dropShadow_1085_8456" result="shape"/></filter><clipPath id="a"><path fill="#fff" d="M0 0h269v294H0z"/></clipPath></defs></svg>