<svg xmlns="http://www.w3.org/2000/svg" width="356" height="264" fill="none"><g clip-path="url(#a)"><g clip-path="url(#b)"><path fill="#fff" d="M16 37.6c0-9 0-13.499 2.292-16.653a12 12 0 0 1 2.655-2.655C24.1 16 28.6 16 37.6 16h280.8c8.999 0 13.499 0 16.653 2.292a11.992 11.992 0 0 1 2.655 2.655C340 24.1 340 28.6 340 37.6V268H16V37.6z"/><path stroke="#7A8089" stroke-linecap="round" stroke-linejoin="round" stroke-width="1.077" d="M39.465 35.772v3.009m-1.505-1.505h3.01m-.753 9.028v3.01m-1.505-1.505h3.01m3.761-12.037 1.72 5.158 4.3 1.612-4.3 1.613-1.72 5.159-1.72-5.16-4.298-1.612 4.299-1.612 1.72-5.158z" opacity=".8"/><path fill="#020710" d="M66.35 43.818h-3.67v3.967h-1.267v-9.343h5.634v1.163H62.68v3.063h3.67v1.15zm2.619-3.851a.805.805 0 0 1-.802-.801c0-.453.362-.802.802-.802.439 0 .8.35.8.802 0 .439-.361.8-.8.8zm-.595 7.818v-6.32h1.215v6.32h-1.215zm4.193 0h-1.214v-6.32h1.098l.13.97c.4-.724 1.201-1.15 2.093-1.15 1.667 0 2.43 1.02 2.43 2.636v3.864h-1.215v-3.592c0-1.28-.595-1.797-1.525-1.797-1.138 0-1.797.814-1.797 2.042v3.347zm8.752.155c-1.835 0-2.947-1.37-2.947-3.295 0-1.939 1.125-3.36 2.999-3.36.969 0 1.783.426 2.21 1.202v-4.213h1.201v9.511h-1.085l-.104-1.15c-.413.866-1.266 1.305-2.274 1.305zm.245-1.098c1.24 0 2.003-.918 2.003-2.236 0-1.292-.762-2.223-2.003-2.223-1.24 0-1.964.93-1.964 2.223 0 1.305.724 2.236 1.964 2.236zm7.832-5.376h.93v-1.008c0-1.551.854-2.184 2.004-2.184.233 0 .504.013.75.051v1.047h-.543c-.789 0-.996.4-.996 1.086v1.008h1.5v1.02h-1.5v5.3h-1.214v-5.3h-.93v-1.02zm4.171 3.153c0-1.951 1.396-3.321 3.295-3.321 1.887 0 3.283 1.37 3.283 3.321s-1.396 3.321-3.283 3.321c-1.9 0-3.295-1.37-3.295-3.321zm1.228 0c0 1.318.84 2.236 2.067 2.236 1.215 0 2.068-.918 2.068-2.236s-.853-2.236-2.068-2.236c-1.227 0-2.067.918-2.067 2.236zm6.281.013c0-1.977 1.254-3.347 3.102-3.347 1.589 0 2.7.905 2.92 2.313h-1.215c-.206-.801-.853-1.228-1.667-1.228-1.15 0-1.938.88-1.938 2.249 0 1.357.736 2.236 1.887 2.236.865 0 1.512-.453 1.731-1.202h1.215c-.245 1.37-1.421 2.287-2.946 2.287-1.861 0-3.089-1.318-3.089-3.308zm11.685-3.166h1.202v6.32h-1.086l-.129-.957c-.362.659-1.202 1.111-2.132 1.111-1.474 0-2.301-.995-2.301-2.546v-3.928h1.215v3.528c0 1.357.582 1.874 1.512 1.874 1.111 0 1.719-.711 1.719-2.068v-3.334zm2.321 4.484h1.163c0 .646.491 1.034 1.292 1.034.853 0 1.344-.349 1.344-.93 0-.427-.206-.686-.865-.854l-1.112-.258c-1.124-.271-1.654-.827-1.654-1.758 0-1.162.982-1.9 2.378-1.9 1.383 0 2.287.776 2.313 1.978h-1.163c-.026-.633-.452-1.034-1.189-1.034-.762 0-1.189.336-1.189.918 0 .426.31.71.931.866l1.111.271c1.073.258 1.602.75 1.602 1.693 0 1.202-1.033 1.964-2.532 1.964-1.487 0-2.43-.788-2.43-1.99zm11.627 1.835h-1.215v-5.298h-1.241v-1.021h1.241v-1.977h1.215v1.977h1.24v1.02h-1.24v5.3zm2.925-7.818a.805.805 0 0 1-.801-.801c0-.453.362-.802.801-.802.439 0 .801.35.801.802 0 .439-.362.8-.801.8zm-.595 7.818v-6.32h1.215v6.32h-1.215zm4.194 0h-1.215v-6.32h1.085l.117.828c.323-.595.995-1.008 1.886-1.008.983 0 1.68.49 2.004 1.28.297-.79 1.059-1.28 2.041-1.28 1.448 0 2.327.905 2.327 2.365v4.135h-1.189v-3.838c0-.995-.556-1.564-1.409-1.564-.918 0-1.525.646-1.525 1.654v3.748h-1.202v-3.85c0-.996-.543-1.539-1.395-1.539-.918 0-1.525.633-1.525 1.642v3.747zm12.655.155c-1.861 0-3.14-1.344-3.14-3.308 0-1.977 1.253-3.347 3.089-3.347 1.796 0 2.972 1.24 2.972 3.114v.453l-4.885.013c.09 1.33.788 2.067 1.99 2.067.943 0 1.564-.388 1.771-1.111h1.137c-.31 1.357-1.37 2.12-2.934 2.12zm-.051-5.634c-1.06 0-1.732.633-1.887 1.744h3.644c0-1.046-.685-1.744-1.757-1.744z"/><path fill="#020710" fill-opacity=".8" d="M154.956 48.975V36.683h.798v12.292h-.798z"/><g opacity=".8"><path fill="#fff" d="M302.107 34.542h16v16h-16z"/><path fill="#7A8089" fill-rule="evenodd" d="M305.542 37.975a.8.8 0 0 1 1.131 0l3.435 3.435 3.434-3.434a.8.8 0 1 1 1.131 1.13l-3.434 3.435 3.434 3.434a.799.799 0 1 1-1.131 1.132l-3.434-3.434-3.435 3.434a.8.8 0 1 1-1.131-1.132l3.434-3.434-3.434-3.434a.8.8 0 0 1 0-1.132z" clip-rule="evenodd" opacity=".5"/></g><path stroke="#F2F3F8" stroke-width="1.095" d="M16 68.538h324"/><path fill="#7A8089" d="M42.093 93.214c-2.294 0-3.78-1.594-3.78-4.06 0-2.444 1.54-4.07 3.844-4.07 1.863 0 3.253 1.087 3.522 2.778h-1.454c-.27-.915-1.056-1.454-2.1-1.454-1.454 0-2.37 1.055-2.37 2.735 0 1.67.927 2.747 2.37 2.747 1.066 0 1.885-.56 2.143-1.433H45.7c-.301 1.659-1.744 2.757-3.607 2.757zm4.337-2.8c0-1.658 1.196-2.8 2.843-2.8 1.648 0 2.843 1.142 2.843 2.8 0 1.659-1.195 2.8-2.843 2.8-1.647 0-2.843-1.141-2.843-2.8zm1.314 0c0 .97.625 1.626 1.53 1.626.904 0 1.529-.657 1.529-1.626 0-.969-.625-1.626-1.53-1.626-.904 0-1.529.657-1.529 1.626zm6.728 2.671h-1.314v-5.32h1.206l.108.625c.269-.442.807-.787 1.572-.787.808 0 1.368.399 1.648 1.013.269-.614.894-1.013 1.701-1.013 1.293 0 2.003.776 2.003 2.004v3.478h-1.303v-3.134c0-.764-.409-1.163-1.034-1.163-.635 0-1.12.41-1.12 1.282v3.015h-1.313V89.94c0-.743-.399-1.141-1.023-1.141-.625 0-1.131.409-1.131 1.27v3.016zm9.528 0h-1.314v-5.32h1.206l.108.625c.27-.442.808-.787 1.572-.787.808 0 1.368.399 1.648 1.013.27-.614.894-1.013 1.701-1.013 1.293 0 2.004.776 2.004 2.004v3.478h-1.303v-3.134c0-.764-.41-1.163-1.034-1.163-.636 0-1.12.41-1.12 1.282v3.015h-1.314V89.94c0-.743-.399-1.141-1.023-1.141-.625 0-1.131.409-1.131 1.27v3.016zm9.797.14c-1.13 0-1.82-.657-1.82-1.658 0-.98.711-1.594 1.971-1.691l1.594-.119v-.118c0-.722-.43-1.013-1.098-1.013-.776 0-1.207.324-1.207.884h-1.12c0-1.153.948-1.907 2.391-1.907 1.433 0 2.316.776 2.316 2.251v3.231H75.67l-.097-.786c-.226.549-.947.926-1.776.926zm.431-.99c.808 0 1.325-.485 1.325-1.304v-.28l-1.11.086c-.818.076-1.13.345-1.13.776 0 .484.323.721.915.721zm5.2.85h-1.314v-5.32h1.217l.108.69c.334-.54.98-.852 1.702-.852 1.335 0 2.024.83 2.024 2.208v3.274h-1.314v-2.962c0-.893-.441-1.324-1.12-1.324-.807 0-1.303.56-1.303 1.421v2.865zm7.214.14c-1.54 0-2.498-1.13-2.498-2.778 0-1.659.969-2.844 2.573-2.844.744 0 1.4.313 1.734.84v-3.37h1.303v8.012h-1.206l-.086-.83c-.323.615-1.012.97-1.82.97zm.29-1.206c.916 0 1.509-.657 1.509-1.616 0-.958-.593-1.626-1.508-1.626-.916 0-1.476.679-1.476 1.626 0 .948.56 1.616 1.476 1.616zm3.782-.55h1.25c.01.464.355.754.958.754.614 0 .948-.247.948-.635 0-.27-.14-.463-.614-.57l-.959-.227c-.958-.215-1.421-.668-1.421-1.518 0-1.045.883-1.67 2.11-1.67 1.196 0 2.004.69 2.015 1.724h-1.25c-.01-.453-.312-.744-.818-.744-.517 0-.819.237-.819.636 0 .301.237.495.69.603l.958.226c.894.205 1.346.614 1.346 1.432 0 1.077-.915 1.745-2.229 1.745-1.325 0-2.165-.71-2.165-1.755z"/><rect width="297.729" height="35.571" x="29.136" y="105.842" fill="#F9FCFF" rx="8.755"/><path stroke="#7A8089" stroke-linecap="round" stroke-width="1.077" d="M45.416 130.399h5.267c.831 0 1.505-.673 1.505-1.505v-7.213a.753.753 0 0 0-.22-.532l-4.074-4.074a.754.754 0 0 0-.532-.221h-4.204c-.83 0-1.505.674-1.505 1.505v8.278m0 3.762 3.672-3.671m0 0a2.257 2.257 0 1 0 3.194-3.192 2.257 2.257 0 0 0-3.194 3.192z" opacity=".8"/><path fill="#020710" d="M68.13 124.932h-3.419v3.696h-1.18v-8.703h5.249v1.083h-4.069v2.853h3.419v1.071zm2.44-3.587a.75.75 0 0 1-.746-.746c0-.421.337-.746.746-.746.41 0 .746.325.746.746a.75.75 0 0 1-.746.746zm-.554 7.283v-5.886h1.132v5.886h-1.132zm3.906 0H72.79v-5.886h1.023l.12.902c.374-.674 1.12-1.071 1.951-1.071 1.553 0 2.263.951 2.263 2.456v3.599h-1.132v-3.346c0-1.192-.553-1.674-1.42-1.674-1.06 0-1.673.759-1.673 1.902v3.118zm8.152.144c-1.71 0-2.745-1.276-2.745-3.069 0-1.806 1.047-3.13 2.793-3.13.903 0 1.66.397 2.058 1.12v-3.925h1.12v8.86h-1.012l-.096-1.071c-.385.806-1.18 1.215-2.118 1.215zm.228-1.023c1.156 0 1.866-.854 1.866-2.082 0-1.204-.71-2.071-1.866-2.071-1.155 0-1.83.867-1.83 2.071 0 1.215.675 2.082 1.83 2.082zm7.295-5.007h.867v-.939c0-1.445.795-2.035 1.866-2.035.217 0 .47.012.698.049v.975h-.505c-.735 0-.927.373-.927 1.011v.939h1.396v.951h-1.396v4.935h-1.132v-4.935h-.867v-.951zm3.885 2.937c0-1.818 1.3-3.094 3.07-3.094 1.757 0 3.057 1.276 3.057 3.094 0 1.817-1.3 3.093-3.057 3.093-1.77 0-3.07-1.276-3.07-3.093zm1.144 0c0 1.228.782 2.082 1.926 2.082 1.131 0 1.926-.854 1.926-2.082 0-1.228-.794-2.083-1.926-2.083-1.144 0-1.926.855-1.926 2.083zm5.851.012c0-1.842 1.167-3.118 2.889-3.118 1.48 0 2.516.843 2.72 2.155h-1.131c-.193-.747-.795-1.144-1.553-1.144-1.071 0-1.806.819-1.806 2.095 0 1.264.686 2.082 1.758 2.082.806 0 1.408-.421 1.613-1.119h1.131c-.228 1.276-1.324 2.13-2.744 2.13-1.734 0-2.877-1.227-2.877-3.081zm10.884-2.949h1.119v5.886h-1.011l-.12-.891c-.337.614-1.12 1.035-1.986 1.035-1.373 0-2.143-.927-2.143-2.371v-3.659h1.131v3.286c0 1.264.542 1.745 1.409 1.745 1.035 0 1.601-.662 1.601-1.926v-3.105zm2.162 4.177h1.083c0 .601.458.963 1.204.963.795 0 1.252-.325 1.252-.867 0-.397-.193-.638-.807-.795l-1.035-.24c-1.047-.253-1.541-.771-1.541-1.637 0-1.084.915-1.77 2.215-1.77 1.288 0 2.131.722 2.155 1.842h-1.083c-.024-.59-.422-.963-1.108-.963-.71 0-1.107.313-1.107.854 0 .398.289.663.866.807l1.036.253c.999.241 1.492.698 1.492 1.577 0 1.119-.963 1.829-2.359 1.829-1.384 0-2.263-.734-2.263-1.853zm10.83 1.709h-1.132v-4.935h-1.155v-.951h1.155V120.9h1.132v1.842h1.155v.951h-1.155v4.935zm2.725-7.283a.75.75 0 0 1-.747-.746c0-.421.337-.746.747-.746.409 0 .746.325.746.746a.75.75 0 0 1-.746.746zm-.554 7.283v-5.886h1.131v5.886h-1.131zm3.906 0h-1.132v-5.886h1.011l.109.77c.301-.554.927-.939 1.757-.939.915 0 1.565.458 1.866 1.192.277-.734.987-1.192 1.902-1.192 1.348 0 2.167.843 2.167 2.203v3.852h-1.108v-3.575c0-.927-.517-1.457-1.312-1.457-.855 0-1.42.602-1.42 1.541v3.491h-1.12v-3.587c0-.927-.505-1.433-1.3-1.433-.855 0-1.42.59-1.42 1.529v3.491zm11.788.144c-1.733 0-2.925-1.252-2.925-3.081 0-1.842 1.168-3.118 2.877-3.118 1.673 0 2.768 1.156 2.768 2.901v.421l-4.55.012c.085 1.24.735 1.926 1.854 1.926.879 0 1.457-.361 1.649-1.035h1.059c-.288 1.264-1.275 1.974-2.732 1.974zm-.048-5.248c-.987 0-1.613.59-1.758 1.625h3.395c0-.975-.638-1.625-1.637-1.625z"/><rect width="32.4" height="16.7" x="285.709" y="115.277" fill="#E74723" fill-opacity=".03" rx="8.35"/><path fill="#FB552F" d="M293.222 127.127h-1.104v-6.4h1.112l3.003 4.535v-4.535h1.104v6.4h-1.104l-3.011-4.535v4.535zm9.506 0h-3.975v-6.4h3.975v1.033h-2.854v1.646h2.557v.989h-2.557v1.699h2.854v1.033zm2.546 0-1.909-6.4h1.165l1.016 3.379c.096.351.192.71.288 1.27.105-.569.202-.902.316-1.27l1.006-3.379h1.235l.989 3.379c.105.359.202.727.307 1.27.122-.595.21-.937.306-1.261l1.033-3.388h1.139l-1.944 6.4h-1.086l-1.366-4.658-1.392 4.658h-1.103z"/><path fill="#7A8089" d="M38.313 159.737c0-1.379 1.141-2.337 2.8-2.337 1.593 0 2.606.883 2.649 2.304h-1.379c-.032-.678-.517-1.077-1.292-1.077-.85 0-1.4.41-1.4 1.067 0 .56.302.872.959 1.023l1.238.269c1.346.291 2.003.98 2.003 2.154 0 1.464-1.142 2.412-2.875 2.412-1.68 0-2.779-.894-2.811-2.305h1.378c.011.668.55 1.067 1.433 1.067.915 0 1.497-.399 1.497-1.056 0-.527-.27-.84-.916-.98l-1.249-.28c-1.335-.291-2.035-1.055-2.035-2.261zm7.945 5.675h-1.314V157.4h1.325v3.381c.334-.517.958-.85 1.723-.85 1.314 0 2.003.829 2.003 2.207v3.274h-1.314v-2.961c0-.894-.441-1.325-1.11-1.325-.828 0-1.313.581-1.313 1.378v2.908zm4.716-2.671c0-1.658 1.195-2.8 2.843-2.8 1.647 0 2.843 1.142 2.843 2.8 0 1.659-1.196 2.8-2.843 2.8-1.648 0-2.843-1.141-2.843-2.8zm1.313 0c0 .97.625 1.626 1.53 1.626.904 0 1.529-.656 1.529-1.626 0-.969-.625-1.626-1.53-1.626-.904 0-1.529.657-1.529 1.626zm8.753-2.67v1.216h-.485c-.948 0-1.54.507-1.54 1.54v2.585h-1.314v-5.309h1.239l.075.775c.226-.527.732-.883 1.443-.883.183 0 .366.022.582.076zm2.909 5.341h-1.314v-4.221h-1.023v-1.099h1.023v-1.658h1.314v1.658h1.033v1.099H63.95v4.221zm1.485-2.671c0-1.647 1.088-2.81 2.66-2.81 1.454 0 2.445.807 2.585 2.089h-1.314c-.15-.603-.592-.916-1.217-.916-.84 0-1.4.636-1.4 1.637 0 1.002.517 1.626 1.357 1.626.657 0 1.12-.323 1.26-.904h1.325c-.162 1.238-1.196 2.089-2.585 2.089-1.615 0-2.67-1.12-2.67-2.811zm9.841-2.649h1.314v5.32h-1.217l-.097-.711c-.323.506-1.012.851-1.723.851-1.228 0-1.95-.829-1.95-2.132v-3.328h1.315v2.865c0 1.012.398 1.421 1.13 1.421.83 0 1.228-.484 1.228-1.497v-2.789zm4.48 5.32h-1.314v-4.221h-1.023v-1.099h1.023v-1.658h1.314v1.658h1.034v1.099h-1.034v4.221zm1.442-1.615h1.249c.01.463.355.754.958.754.614 0 .948-.248.948-.636 0-.269-.14-.463-.614-.571l-.958-.226c-.959-.215-1.422-.667-1.422-1.518 0-1.045.883-1.669 2.111-1.669 1.195 0 2.003.689 2.014 1.723h-1.25c-.01-.453-.312-.743-.818-.743-.517 0-.818.236-.818.635 0 .301.237.495.689.603l.958.226c.894.205 1.347.614 1.347 1.432 0 1.077-.916 1.745-2.23 1.745-1.324 0-2.164-.711-2.164-1.755z"/><path stroke="#7A8089" stroke-linecap="round" stroke-linejoin="round" stroke-width="1.077" d="M47.673 194.449v-5.266l-6.77 8.275h5.266v5.267l6.77-8.276h-5.266z" opacity=".8"/><path fill="#020710" d="M64.707 200.196h-1.18v-8.703h1.18l4.454 6.729v-6.729h1.18v8.703h-1.18l-4.454-6.729v6.729zm10.008.145c-1.733 0-2.925-1.252-2.925-3.082 0-1.842 1.168-3.118 2.877-3.118 1.673 0 2.769 1.156 2.769 2.901v.422l-4.55.012c.084 1.24.734 1.926 1.853 1.926.879 0 1.457-.361 1.65-1.035h1.059c-.29 1.264-1.276 1.974-2.733 1.974zm-.048-5.249c-.987 0-1.613.59-1.758 1.625h3.395c0-.975-.638-1.625-1.637-1.625zm5.096 5.104-1.926-5.886h1.168l.975 3.057c.132.434.253.879.361 1.397a9.992 9.992 0 0 1 .385-1.397l.987-3.057h1.156l.975 3.057c.096.289.289.976.385 1.397.097-.47.205-.879.374-1.397l.987-3.057h1.18l-2.011 5.886h-1.071l-1.023-3.154a11.27 11.27 0 0 1-.374-1.372c-.06.289-.168.674-.385 1.385l-1.023 3.141h-1.12zm13.808.145c-1.734 0-2.925-1.252-2.925-3.082 0-1.842 1.167-3.118 2.876-3.118 1.674 0 2.769 1.156 2.769 2.901v.422l-4.55.012c.084 1.24.734 1.926 1.854 1.926.878 0 1.456-.361 1.649-1.035h1.06c-.29 1.264-1.277 1.974-2.733 1.974zm-.049-5.249c-.987 0-1.613.59-1.757 1.625h3.394c0-.975-.638-1.625-1.637-1.625zm5.482 5.104-2.371-5.886h1.204l1.287 3.286c.205.554.374 1.047.47 1.409.096-.386.289-.891.494-1.409l1.312-3.286h1.179l-2.455 5.886h-1.12zm6.745.145c-1.733 0-2.925-1.252-2.925-3.082 0-1.842 1.168-3.118 2.877-3.118 1.673 0 2.769 1.156 2.769 2.901v.422l-4.551.012c.085 1.24.735 1.926 1.854 1.926.879 0 1.457-.361 1.649-1.035h1.06c-.289 1.264-1.276 1.974-2.733 1.974zm-.048-5.249c-.987 0-1.613.59-1.758 1.625h3.395c0-.975-.638-1.625-1.637-1.625zm5.164 5.104h-1.132v-5.886h1.024l.12.903c.373-.674 1.119-1.072 1.95-1.072 1.553 0 2.263.951 2.263 2.456v3.599h-1.131v-3.346c0-1.192-.554-1.673-1.421-1.673-1.059 0-1.673.758-1.673 1.902v3.117zm7.453 0h-1.131v-4.935h-1.156v-.951h1.156v-1.842h1.131v1.842h1.156v.951h-1.156v4.935z"/><rect width="17.338" height="17.337" x="300.769" y="187.285" fill="#F9FCFF" rx="4.379"/><path fill="#7A8089" d="M311.891 199.46h-3.862v-6.331h3.862v.788h-3.004v1.979h2.706v.762h-2.706v2.005h3.004v.797z" opacity=".5"/><path stroke="#7A8089" stroke-linecap="round" stroke-linejoin="round" stroke-width="1.077" d="M47.673 233.303v-5.266l-6.77 8.276h5.266v5.266l6.77-8.276h-5.266z" opacity=".8"/><path fill="#020710" d="M64.707 239.051h-1.18v-8.703h1.18l4.454 6.729v-6.729h1.18v8.703h-1.18l-4.454-6.729v6.729zm10.008.144c-1.733 0-2.925-1.252-2.925-3.081 0-1.842 1.168-3.118 2.877-3.118 1.673 0 2.769 1.156 2.769 2.901v.421l-4.55.012c.084 1.24.734 1.926 1.853 1.926.879 0 1.457-.361 1.65-1.035h1.059c-.29 1.264-1.276 1.974-2.733 1.974zm-.048-5.248c-.987 0-1.613.59-1.758 1.625h3.395c0-.975-.638-1.625-1.637-1.625zm5.096 5.104-1.926-5.887h1.168l.975 3.058c.132.433.253.879.361 1.396a9.976 9.976 0 0 1 .385-1.396l.987-3.058h1.156l.975 3.058c.096.289.289.975.385 1.396.097-.469.205-.878.374-1.396l.987-3.058h1.18l-2.011 5.887h-1.071l-1.023-3.154a11.318 11.318 0 0 1-.374-1.372c-.06.289-.168.674-.385 1.384l-1.023 3.142h-1.12zm12.4 0H91.03v-5.887h1.01l.11.771c.3-.554.926-.939 1.757-.939.915 0 1.564.457 1.865 1.192.277-.735.987-1.192 1.902-1.192 1.349 0 2.167.843 2.167 2.203v3.852h-1.107v-3.575c0-.927-.518-1.457-1.312-1.457-.855 0-1.42.602-1.42 1.541v3.491h-1.12v-3.587c0-.927-.506-1.433-1.3-1.433-.855 0-1.42.59-1.42 1.529v3.491zm11.788.144c-1.734 0-2.926-1.252-2.926-3.081 0-1.842 1.168-3.118 2.877-3.118 1.674 0 2.769 1.156 2.769 2.901v.421l-4.55.012c.084 1.24.734 1.926 1.854 1.926.878 0 1.456-.361 1.649-1.035h1.059c-.289 1.264-1.276 1.974-2.732 1.974zm-.049-5.248c-.987 0-1.613.59-1.757 1.625h3.394c0-.975-.638-1.625-1.637-1.625zm6.573 5.248c-1.734 0-2.925-1.252-2.925-3.081 0-1.842 1.167-3.118 2.877-3.118 1.673 0 2.768 1.156 2.768 2.901v.421l-4.55.012c.084 1.24.734 1.926 1.854 1.926.879 0 1.456-.361 1.649-1.035h1.059c-.289 1.264-1.276 1.974-2.732 1.974zm-.048-5.248c-.987 0-1.613.59-1.758 1.625h3.395c0-.975-.638-1.625-1.637-1.625zm5.634 5.104h-1.131v-4.936h-1.156v-.951h1.156v-1.841h1.131v1.841h1.156v.951h-1.156v4.936zm2.725-7.283a.75.75 0 0 1-.746-.746c0-.422.337-.747.746-.747s.747.325.747.747a.75.75 0 0 1-.747.746zm-.554 7.283v-5.887h1.132v5.887h-1.132zm3.906 0h-1.131v-5.887h1.023l.12.903c.373-.674 1.12-1.071 1.95-1.071 1.553 0 2.263.951 2.263 2.456v3.599h-1.131v-3.347c0-1.191-.554-1.673-1.421-1.673-1.059 0-1.673.759-1.673 1.902v3.118zm5.419-3.094c0-1.661 1.072-2.961 2.781-2.961.951 0 1.685.433 2.059 1.168l.084-1h1.011v5.646c0 1.854-1.144 3.033-2.949 3.033-1.601 0-2.697-.902-2.913-2.395h1.131c.145.867.795 1.372 1.782 1.372 1.107 0 1.829-.722 1.829-1.841v-1.18c-.385.686-1.155 1.095-2.082 1.095-1.673 0-2.733-1.288-2.733-2.937zm1.132-.024c0 1.108.686 1.974 1.794 1.974 1.143 0 1.841-.818 1.841-1.974 0-1.131-.674-1.95-1.829-1.95-1.132 0-1.806.867-1.806 1.95z"/><rect width="17.338" height="17.337" x="300.769" y="226.14" fill="#F9FCFF" rx="4.379"/><path fill="#7A8089" d="M307.117 238.229h-.841v-6.331h.841l2.18 5.324 2.181-5.324h.858v6.331h-.841v-2.504c0-1.182.009-1.611.053-2.058l-1.848 4.562h-.806l-1.839-4.544c.044.306.062.954.062 1.839v2.705z" opacity=".5"/></g><path stroke="#2F43FB" stroke-opacity=".03" d="M37.6 16.5h280.8c4.511 0 7.854 0 10.465.284 2.601.281 4.417.839 5.895 1.912a11.52 11.52 0 0 1 2.544 2.544c1.073 1.478 1.631 3.294 1.912 5.895.283 2.611.284 5.954.284 10.465v229.9h-323V37.6c0-4.51 0-7.854.284-10.465.281-2.601.839-4.417 1.912-5.895a11.5 11.5 0 0 1 2.544-2.544c1.478-1.073 3.294-1.63 5.895-1.912C29.746 16.5 33.09 16.5 37.6 16.5z"/></g><defs><clipPath id="a"><path fill="#fff" d="M0 0h356v264H0z"/></clipPath><clipPath id="b"><path fill="#fff" d="M16 37.6c0-9 0-13.499 2.292-16.653a12 12 0 0 1 2.655-2.655C24.1 16 28.6 16 37.6 16h280.8c8.999 0 13.499 0 16.653 2.292a11.992 11.992 0 0 1 2.655 2.655C340 24.1 340 28.6 340 37.6V268H16V37.6z"/></clipPath></defs></svg>