<svg xmlns="http://www.w3.org/2000/svg" width="538" height="430" fill="none"><g clip-path="url(#a)"><path fill="#fff" d="M33.535 115.163c0-3.949 0-5.924.262-7.576a21.255 21.255 0 0 1 17.668-17.668c1.652-.262 3.627-.262 7.576-.262v433.595H33.535V115.163z" opacity=".24"/><path fill="#fff" d="M8.03 174.676c0-3.95 0-5.924.261-7.576a21.254 21.254 0 0 1 17.668-17.668c1.652-.262 3.627-.262 7.576-.262v374.082H8.029V174.676z" opacity=".08"/><rect width="418.301" height="590.293" x="59.849" y="11.308" fill="#fff" rx="20.446"/><path fill="#020710" d="M85.912 52.024h-2.037V40.205h2.053l5.546 8.376v-8.376h2.037v11.82h-2.037l-5.562-8.376v8.375zm13.498.21c-2.377 0-4.042-1.73-4.042-4.203 0-2.506 1.633-4.236 3.977-4.236 2.393 0 3.913 1.6 3.913 4.09v.599l-6.015.016c.146 1.406.89 2.118 2.2 2.118 1.083 0 1.794-.42 2.02-1.18h1.827c-.339 1.746-1.794 2.797-3.88 2.797zm-.048-6.823c-1.165 0-1.876.631-2.07 1.828h4.01c0-1.1-.76-1.828-1.94-1.828zm6.89 6.613-2.587-7.987h2.053l1.051 3.428c.178.63.34 1.326.485 2.07.146-.777.291-1.278.55-2.07l1.099-3.428h2.005l1.067 3.428c.097.323.421 1.52.518 2.053a37.59 37.59 0 0 1 .533-2.053l1.068-3.428h2.085l-2.765 7.987h-1.843l-1.099-3.46c-.324-1.05-.501-1.81-.566-2.215-.081.372-.226.938-.631 2.248l-1.099 3.427h-1.924zm15.092-8.52c0-2.07 1.713-3.509 4.203-3.509 2.393 0 3.913 1.326 3.978 3.46h-2.07c-.048-1.018-.776-1.617-1.94-1.617-1.277 0-2.102.615-2.102 1.6 0 .842.453 1.31 1.439 1.537l1.86.404c2.021.437 3.007 1.471 3.007 3.234 0 2.199-1.714 3.622-4.317 3.622-2.522 0-4.172-1.342-4.22-3.46h2.069c.017 1.002.825 1.6 2.151 1.6 1.374 0 2.247-.598 2.247-1.584 0-.792-.404-1.261-1.374-1.472l-1.876-.42c-2.004-.437-3.055-1.584-3.055-3.395zm9.487 4.51c0-2.473 1.633-4.22 3.994-4.22 2.183 0 3.67 1.213 3.88 3.137h-1.972c-.227-.905-.89-1.374-1.827-1.374-1.261 0-2.102.954-2.102 2.458 0 1.503.776 2.441 2.037 2.441.986 0 1.682-.485 1.892-1.358h1.988c-.242 1.86-1.794 3.137-3.88 3.137-2.425 0-4.01-1.682-4.01-4.22zm11.331 4.01h-1.972V39.995h1.988v5.077c.502-.776 1.439-1.277 2.587-1.277 1.973 0 3.008 1.245 3.008 3.314v4.915H145.8v-4.446c0-1.342-.663-1.989-1.665-1.989-1.245 0-1.973.873-1.973 2.07v4.365zm11.122.21c-2.377 0-4.042-1.73-4.042-4.203 0-2.506 1.633-4.236 3.977-4.236 2.393 0 3.913 1.6 3.913 4.09v.599l-6.015.016c.146 1.406.89 2.118 2.199 2.118 1.084 0 1.795-.42 2.021-1.18h1.827c-.339 1.746-1.794 2.797-3.88 2.797zm-.049-6.823c-1.164 0-1.875.631-2.069 1.828h4.01c0-1.1-.76-1.828-1.941-1.828zm8.758 6.824c-2.312 0-3.751-1.698-3.751-4.172 0-2.49 1.455-4.268 3.864-4.268 1.116 0 2.102.468 2.603 1.26v-5.06h1.957v12.03h-1.811l-.13-1.246c-.485.922-1.519 1.456-2.732 1.456zm.437-1.811c1.374 0 2.263-.986 2.263-2.425 0-1.44-.889-2.442-2.263-2.442-1.375 0-2.216 1.019-2.216 2.441 0 1.423.841 2.426 2.216 2.426zm11.708-6.387h1.972v7.987h-1.827l-.145-1.067c-.485.76-1.52 1.278-2.587 1.278-1.843 0-2.927-1.245-2.927-3.202v-4.996h1.973v4.301c0 1.52.598 2.134 1.698 2.134 1.245 0 1.843-.727 1.843-2.247v-4.188zm5.998 7.987h-1.956V39.995h1.956v12.03zm5.643.21c-2.377 0-4.042-1.73-4.042-4.203 0-2.506 1.633-4.236 3.977-4.236 2.393 0 3.913 1.6 3.913 4.09v.599l-6.015.016c.146 1.406.89 2.118 2.199 2.118 1.084 0 1.795-.42 2.021-1.18h1.827c-.339 1.746-1.794 2.797-3.88 2.797zm-.049-6.823c-1.164 0-1.875.631-2.069 1.828h4.01c0-1.1-.76-1.828-1.941-1.828z"/><path fill="#7A8089" fill-rule="evenodd" d="M440.197 40.487a.97.97 0 0 1 1.372 0l4.165 4.165 4.164-4.165a.97.97 0 1 1 1.372 1.372l-4.164 4.165 4.164 4.164a.97.97 0 1 1-1.372 1.372l-4.164-4.164-4.165 4.164a.97.97 0 1 1-1.372-1.372l4.165-4.164-4.165-4.165a.97.97 0 0 1 0-1.372z" clip-rule="evenodd" opacity=".5"/><rect width="371.593" height="43.997" x="83.203" y="134.524" fill="#fff" rx="12.297"/><path stroke="#7A8089" stroke-linecap="round" stroke-linejoin="round" stroke-width="1.275" d="M102.776 160.564v-8.084m0 8.084c0 .893-.724 1.617-1.617 1.617h-1.616a1.617 1.617 0 0 1-1.617-1.617v-8.084c0-.893.724-1.617 1.617-1.617h1.616c.893 0 1.617.724 1.617 1.617m0 8.084c0 .893.724 1.617 1.617 1.617h1.617c.893 0 1.617-.724 1.617-1.617m-4.851-8.084c0-.893.724-1.617 1.617-1.617h1.617c.893 0 1.617.724 1.617 1.617m0 8.084v-8.084m0 8.084c0 .893.724 1.617 1.617 1.617h1.617c.893 0 1.616-.724 1.616-1.617v-8.084c0-.893-.723-1.617-1.616-1.617h-1.617c-.893 0-1.617.724-1.617 1.617"/><path fill="#020710" d="M128.781 161.522h-3.091v-9.351h3.04c2.794 0 4.682 1.888 4.682 4.682 0 2.781-1.862 4.669-4.631 4.669zm-.142-8.187h-1.681v7.01h1.733c2.082 0 3.402-1.345 3.402-3.492 0-2.173-1.32-3.518-3.454-3.518zm8.908 8.343c-1.862 0-3.143-1.346-3.143-3.312 0-1.979 1.255-3.35 3.091-3.35 1.798 0 2.975 1.242 2.975 3.118v.452l-4.889.013c.091 1.332.789 2.07 1.992 2.07.944 0 1.565-.388 1.772-1.113h1.138c-.31 1.359-1.371 2.122-2.936 2.122zm-.052-5.64c-1.06 0-1.733.634-1.888 1.746h3.648c0-1.047-.686-1.746-1.76-1.746zm3.816 3.648h1.164c0 .646.492 1.035 1.294 1.035.853 0 1.345-.35 1.345-.932 0-.427-.207-.685-.867-.854l-1.112-.258c-1.125-.272-1.656-.828-1.656-1.759 0-1.164.983-1.902 2.38-1.902 1.384 0 2.29.776 2.316 1.979h-1.165c-.025-.634-.452-1.035-1.19-1.035-.763 0-1.19.337-1.19.919 0 .427.311.711.932.866l1.112.272c1.074.259 1.604.75 1.604 1.695 0 1.203-1.035 1.966-2.535 1.966-1.488 0-2.432-.789-2.432-1.992zm6.91-5.989a.806.806 0 0 1-.802-.802c0-.453.363-.802.802-.802.44 0 .802.349.802.802 0 .44-.362.802-.802.802zm-.595 7.825v-6.325h1.216v6.325h-1.216zm2.58-3.324c0-1.785 1.152-3.182 2.988-3.182 1.022 0 1.811.466 2.212 1.255l.091-1.074h1.086v6.067c0 1.992-1.228 3.259-3.169 3.259-1.72 0-2.897-.97-3.13-2.574h1.216c.155.932.854 1.475 1.914 1.475 1.19 0 1.966-.776 1.966-1.979v-1.268c-.414.738-1.241 1.177-2.237 1.177-1.798 0-2.937-1.384-2.937-3.156zm1.216-.026c0 1.19.738 2.122 1.928 2.122 1.228 0 1.979-.88 1.979-2.122 0-1.216-.725-2.095-1.966-2.095-1.216 0-1.941.931-1.941 2.095zm8.132 3.35h-1.216v-6.325h1.099l.13.97c.401-.724 1.203-1.151 2.095-1.151 1.669 0 2.432 1.022 2.432 2.639v3.867h-1.216v-3.595c0-1.281-.595-1.798-1.526-1.798-1.138 0-1.798.815-1.798 2.043v3.35zm9.062-8.187v-1.164h6.895v1.164h-2.807v8.187h-1.268v-8.187h-2.82zm9.668 8.343c-1.862 0-3.143-1.346-3.143-3.312 0-1.979 1.255-3.35 3.091-3.35 1.798 0 2.975 1.242 2.975 3.118v.452l-4.889.013c.091 1.332.789 2.07 1.992 2.07.944 0 1.565-.388 1.772-1.113h1.138c-.31 1.359-1.371 2.122-2.936 2.122zm-.052-5.64c-1.06 0-1.733.634-1.888 1.746h3.648c0-1.047-.686-1.746-1.76-1.746zm6.12 5.64c-1.358 0-2.16-.763-2.16-1.915 0-1.164.867-1.888 2.354-2.005l1.992-.155v-.181c0-1.061-.634-1.436-1.487-1.436-1.022 0-1.604.453-1.604 1.216h-1.061c0-1.319 1.086-2.186 2.716-2.186 1.565 0 2.626.828 2.626 2.535v3.971h-1.035l-.129-1.021c-.323.724-1.19 1.177-2.212 1.177zm.349-.945c1.151 0 1.85-.75 1.85-1.94v-.336l-1.617.129c-1.073.104-1.513.518-1.513 1.139 0 .672.491 1.008 1.28 1.008zm5.927.789h-1.216v-6.325h1.086l.117.828c.323-.595.996-1.009 1.888-1.009.983 0 1.682.492 2.005 1.281.298-.789 1.061-1.281 2.044-1.281 1.449 0 2.328.906 2.328 2.367v4.139h-1.19v-3.841c0-.996-.556-1.565-1.41-1.565-.918 0-1.526.646-1.526 1.655v3.751h-1.203v-3.854c0-.996-.543-1.539-1.397-1.539-.918 0-1.526.633-1.526 1.642v3.751zm13.681 0v-9.351h3.57c1.824 0 2.937.931 2.937 2.47 0 1.074-.466 1.798-1.397 2.186 1.034.336 1.565 1.087 1.565 2.199 0 1.552-1.126 2.496-2.975 2.496h-3.7zm3.493-8.226h-2.225v3.001h2.302c1.048 0 1.643-.569 1.643-1.539 0-.932-.621-1.462-1.72-1.462zm.181 4.1h-2.406v3.001h2.406c1.086 0 1.694-.556 1.694-1.526 0-.931-.621-1.475-1.694-1.475zm6.23 4.282c-1.358 0-2.16-.763-2.16-1.915 0-1.164.867-1.888 2.354-2.005l1.992-.155v-.181c0-1.061-.634-1.436-1.487-1.436-1.022 0-1.604.453-1.604 1.216h-1.061c0-1.319 1.087-2.186 2.716-2.186 1.566 0 2.626.828 2.626 2.535v3.971h-1.035l-.129-1.021c-.323.724-1.19 1.177-2.212 1.177zm.349-.945c1.152 0 1.85-.75 1.85-1.94v-.336l-1.617.129c-1.073.104-1.513.518-1.513 1.139 0 .672.491 1.008 1.28 1.008zm4.297-2.367c0-1.979 1.255-3.35 3.105-3.35 1.59 0 2.703.906 2.923 2.316h-1.216c-.207-.802-.854-1.229-1.669-1.229-1.151 0-1.94.879-1.94 2.25 0 1.359.737 2.238 1.889 2.238.866 0 1.513-.453 1.733-1.203h1.216c-.246 1.371-1.423 2.29-2.949 2.29-1.863 0-3.092-1.32-3.092-3.312zm8.565 3.156h-1.216v-9.52h1.216v6.17l2.807-2.975h1.526l-2.418 2.523 2.406 3.802h-1.397l-1.85-2.923-1.074 1.126v1.797zm6.569 0h-1.216v-9.52h1.216v9.52zm1.376-3.169c0-1.953 1.397-3.324 3.298-3.324 1.889 0 3.286 1.371 3.286 3.324 0 1.954-1.397 3.325-3.286 3.325-1.901 0-3.298-1.371-3.298-3.325zm1.229 0c0 1.32.84 2.238 2.069 2.238 1.216 0 2.07-.918 2.07-2.238 0-1.319-.854-2.237-2.07-2.237-1.229 0-2.069.918-2.069 2.237zm6.299-.155c0-1.785 1.152-3.182 2.988-3.182 1.022 0 1.811.466 2.212 1.255l.091-1.074h1.086v6.067c0 1.992-1.228 3.259-3.169 3.259-1.72 0-2.897-.97-3.13-2.574h1.216c.155.932.854 1.475 1.914 1.475 1.19 0 1.966-.776 1.966-1.979v-1.268c-.413.738-1.241 1.177-2.237 1.177-1.798 0-2.937-1.384-2.937-3.156zm1.216-.026c0 1.19.738 2.122 1.928 2.122 1.228 0 1.979-.88 1.979-2.122 0-1.216-.725-2.095-1.966-2.095-1.216 0-1.941.931-1.941 2.095zm14.67-4.967c-2.018 0-3.234 1.488-3.234 3.7 0 2.263 1.319 3.57 3.247 3.57 1.591 0 2.871-.815 2.871-2.704v-.271h-3.13v-1.126h4.32v5.161h-1.061l-.09-1.267c-.505.815-1.643 1.41-3.014 1.41-2.652 0-4.475-1.915-4.475-4.799 0-2.846 1.836-4.864 4.592-4.864 2.043 0 3.634 1.177 3.945 2.975h-1.346c-.349-1.19-1.384-1.785-2.625-1.785zm9.295 1.941v1.112h-.543c-1.151 0-1.863.698-1.863 1.914v3.35h-1.216v-6.312h1.139l.077.957c.259-.659.893-1.099 1.759-1.099.22 0 .401.026.647.078zm.499 3.207c0-1.953 1.397-3.324 3.299-3.324 1.888 0 3.285 1.371 3.285 3.324 0 1.954-1.397 3.325-3.285 3.325-1.902 0-3.299-1.371-3.299-3.325zm1.229 0c0 1.32.841 2.238 2.07 2.238 1.216 0 2.069-.918 2.069-2.238 0-1.319-.853-2.237-2.069-2.237-1.229 0-2.07.918-2.07 2.237zm6.287 0c0-1.953 1.397-3.324 3.299-3.324 1.888 0 3.285 1.371 3.285 3.324 0 1.954-1.397 3.325-3.285 3.325-1.902 0-3.299-1.371-3.299-3.325zm1.229 0c0 1.32.841 2.238 2.07 2.238 1.215 0 2.069-.918 2.069-2.238 0-1.319-.854-2.237-2.069-2.237-1.229 0-2.07.918-2.07 2.237zm7.917 3.169h-1.216v-6.325h1.086l.117.828c.323-.595.996-1.009 1.888-1.009.983 0 1.682.492 2.005 1.281.298-.789 1.061-1.281 2.044-1.281 1.449 0 2.328.906 2.328 2.367v4.139h-1.19v-3.841c0-.996-.556-1.565-1.41-1.565-.918 0-1.526.646-1.526 1.655v3.751h-1.203v-3.854c0-.996-.543-1.539-1.397-1.539-.918 0-1.526.633-1.526 1.642v3.751zm10.533-7.825a.806.806 0 0 1-.802-.802c0-.453.362-.802.802-.802.439 0 .802.349.802.802 0 .44-.363.802-.802.802zm-.595 7.825v-6.325h1.216v6.325h-1.216zm4.197 0h-1.216v-6.325h1.099l.13.97c.401-.724 1.202-1.151 2.095-1.151 1.669 0 2.432 1.022 2.432 2.639v3.867h-1.216v-3.595c0-1.281-.595-1.798-1.526-1.798-1.139 0-1.798.815-1.798 2.043v3.35zm5.823-3.324c0-1.785 1.151-3.182 2.988-3.182 1.022 0 1.811.466 2.212 1.255l.09-1.074h1.087v6.067c0 1.992-1.229 3.259-3.169 3.259-1.721 0-2.898-.97-3.131-2.574h1.216c.155.932.854 1.475 1.915 1.475 1.19 0 1.966-.776 1.966-1.979v-1.268c-.414.738-1.242 1.177-2.238 1.177-1.798 0-2.936-1.384-2.936-3.156zm1.216-.026c0 1.19.737 2.122 1.927 2.122 1.229 0 1.979-.88 1.979-2.122 0-1.216-.724-2.095-1.966-2.095-1.216 0-1.94.931-1.94 2.095z"/><rect width="371.593" height="43.997" x="83.203" y="134.524" stroke="#F2F3F8" stroke-width="1.275" rx="12.297"/><rect width="371.593" height="43.997" x="83.203" y="193.911" fill="#fff" rx="12.297"/><path stroke="#7A8089" stroke-linecap="round" stroke-linejoin="round" stroke-width="1.275" d="M101.968 211.867v-3.234m6.467 3.234v-3.234m-7.276 6.467h8.085m-9.701 8.084h11.318c.893 0 1.616-.723 1.616-1.616v-9.701c0-.893-.723-1.617-1.616-1.617H99.543c-.893 0-1.617.724-1.617 1.617v9.701c0 .893.724 1.616 1.617 1.616z"/><path fill="#020710" d="m127.579 220.909-2.781-9.352h1.319l1.707 5.717c.13.492.259.984.388 1.695.156-.75.298-1.203.44-1.695l1.772-5.717h1.371l1.759 5.717c.156.505.285.996.427 1.695.155-.789.285-1.268.414-1.682l1.72-5.73h1.294l-2.82 9.352h-1.216l-2.263-7.399-2.29 7.399h-1.241zm12.81.155c-1.862 0-3.143-1.345-3.143-3.311 0-1.979 1.255-3.35 3.091-3.35 1.798 0 2.976 1.242 2.976 3.117v.453l-4.89.013c.091 1.332.789 2.069 1.992 2.069.944 0 1.565-.388 1.772-1.112h1.138c-.31 1.358-1.371 2.121-2.936 2.121zm-.052-5.639c-1.06 0-1.733.634-1.888 1.746h3.648c0-1.048-.686-1.746-1.76-1.746zm6.869 5.639c-1.837 0-2.949-1.371-2.949-3.298 0-1.94 1.125-3.363 3.001-3.363.97 0 1.785.427 2.211 1.203v-4.217h1.203v9.52h-1.086l-.104-1.151c-.414.867-1.267 1.306-2.276 1.306zm.246-1.099c1.241 0 2.004-.918 2.004-2.238 0-1.293-.763-2.225-2.004-2.225-1.242 0-1.967.932-1.967 2.225 0 1.307.725 2.238 1.967 2.238zm6.19.944h-1.216v-6.325h1.1l.129.97c.401-.724 1.203-1.151 2.096-1.151 1.668 0 2.431 1.022 2.431 2.639v3.867h-1.215v-3.596c0-1.28-.595-1.798-1.527-1.798-1.138 0-1.798.815-1.798 2.044v3.35zm8.954.155c-1.863 0-3.143-1.345-3.143-3.311 0-1.979 1.254-3.35 3.091-3.35 1.798 0 2.975 1.242 2.975 3.117v.453l-4.889.013c.09 1.332.789 2.069 1.992 2.069.944 0 1.565-.388 1.772-1.112h1.138c-.311 1.358-1.371 2.121-2.936 2.121zm-.052-5.639c-1.061 0-1.733.634-1.889 1.746h3.648c0-1.048-.685-1.746-1.759-1.746zm3.816 3.647h1.164c0 .647.491 1.035 1.293 1.035.854 0 1.345-.349 1.345-.931 0-.427-.207-.686-.866-.854l-1.113-.258c-1.125-.272-1.655-.828-1.655-1.76 0-1.164.983-1.901 2.38-1.901 1.384 0 2.289.776 2.315 1.979h-1.164c-.026-.634-.453-1.035-1.19-1.035-.763 0-1.19.337-1.19.919 0 .426.31.711.931.866l1.113.272c1.073.259 1.604.75 1.604 1.694 0 1.203-1.035 1.966-2.536 1.966-1.487 0-2.431-.789-2.431-1.992zm8.85 1.992c-1.837 0-2.949-1.371-2.949-3.298 0-1.94 1.125-3.363 3.001-3.363.97 0 1.785.427 2.212 1.203v-4.217h1.203v9.52h-1.087l-.103-1.151c-.414.867-1.268 1.306-2.277 1.306zm.246-1.099c1.242 0 2.005-.918 2.005-2.238 0-1.293-.763-2.225-2.005-2.225s-1.966.932-1.966 2.225c0 1.307.724 2.238 1.966 2.238zm6.824 1.099c-1.358 0-2.16-.763-2.16-1.914 0-1.164.867-1.888 2.354-2.005l1.992-.155v-.181c0-1.061-.633-1.436-1.487-1.436-1.022 0-1.604.453-1.604 1.216h-1.061c0-1.319 1.087-2.186 2.717-2.186 1.565 0 2.625.828 2.625 2.535v3.971h-1.034l-.13-1.022c-.323.725-1.19 1.177-2.212 1.177zm.35-.944c1.151 0 1.849-.75 1.849-1.94v-.336l-1.616.129c-1.074.103-1.514.517-1.514 1.138 0 .673.492 1.009 1.281 1.009zm3.951 3.622v-.996h.815c.582 0 1.047-.091 1.345-.893l.22-.608-2.548-6.661h1.28l1.837 5.096 1.875-5.096h1.255l-2.988 7.748c-.427 1.087-1.06 1.539-2.031 1.539-.401 0-.737-.051-1.06-.129zm7.8-3.337c0 .931-.699 1.707-1.617 1.824v-.544c.53-.09.906-.44.906-.84a.675.675 0 0 1-.35.077.768.768 0 0 1-.789-.789c0-.517.35-.892.867-.892.543 0 .983.452.983 1.164zm4.667-2.096v-.465h1.229v.465c0 .919.504 1.578 1.539 1.578 1.061 0 1.526-.646 1.526-1.617v-6.713h1.268v6.765c0 1.682-1.125 2.742-2.794 2.742-1.785 0-2.768-1.138-2.768-2.755zm11.839-3.725h1.203v6.325h-1.087l-.129-.957c-.362.66-1.203 1.112-2.134 1.112-1.475 0-2.302-.996-2.302-2.548v-3.932h1.215v3.531c0 1.358.582 1.876 1.514 1.876 1.112 0 1.72-.712 1.72-2.07v-3.337zm4.209 6.325h-1.216v-9.52h1.216v9.52zm8.224.155c-1.914 0-3.156-1.215-3.156-3.078h1.255c0 1.203.737 1.94 1.927 1.94 1.267 0 2.082-.841 2.082-2.108 0-1.203-.763-2.096-2.069-2.096-.789 0-1.514.375-1.94.906l-1.074-.272 1.138-4.799h4.683v1.164h-3.764l-.621 2.484c.491-.375 1.112-.569 1.811-.569 1.901 0 3.13 1.332 3.13 3.13 0 1.94-1.384 3.298-3.402 3.298z"/><rect width="371.593" height="43.997" x="83.203" y="193.911" stroke="#F5F6FB" stroke-width="1.275" rx="12.297"/><rect width="166.048" height="43.997" x="83.203" y="253.298" fill="#fff" rx="12.297"/><path stroke="#7A8089" stroke-linecap="round" stroke-linejoin="round" stroke-width="1.275" d="M105.202 272.062v3.233l2.425 2.426m4.85-2.426a7.275 7.275 0 1 1-14.552.001 7.275 7.275 0 0 1 14.552-.001z"/><path fill="#020710" d="m130.683 277.334-2.186 2.962h-1.475l2.342-3.104c-.324.129-.66.194-.984.194-1.94 0-3.246-1.397-3.246-3.26 0-1.94 1.474-3.35 3.402-3.35 1.94 0 3.44 1.462 3.44 3.363 0 1.099-.336 1.888-1.293 3.195zm0-3.208c0-1.281-.88-2.212-2.147-2.212-1.242 0-2.122.931-2.122 2.212 0 1.281.88 2.186 2.122 2.186 1.267 0 2.147-.905 2.147-2.186zm3.742 1.475c-.504 0-.931-.414-.931-.893 0-.504.427-.918.931-.918a.93.93 0 0 1 .919.918c0 .479-.427.893-.919.893zm0 4.85c-.504 0-.931-.414-.931-.905 0-.505.427-.919.931-.919a.93.93 0 0 1 .919.919c0 .491-.427.905-.919.905zm5.225-4.993h-.932v-.84l2.652-2.549h-4.204v-1.125h5.808v1.022l-2.561 2.445c1.591.194 2.794 1.267 2.794 2.949 0 1.888-1.423 3.091-3.325 3.091-1.836 0-3.156-1.125-3.156-3.065h1.255c0 1.215.75 1.927 1.927 1.927 1.216 0 2.005-.776 2.005-1.979 0-1.126-.776-1.876-2.263-1.876zm4.674.168c0-2.897 1.5-4.863 3.854-4.863 2.342 0 3.842 1.966 3.842 4.863 0 2.911-1.436 4.838-3.842 4.838-2.418 0-3.854-1.927-3.854-4.838zm1.254 0c0 2.303.958 3.7 2.6 3.7 1.643 0 2.587-1.397 2.587-3.7 0-2.328-.944-3.725-2.587-3.725-1.642 0-2.6 1.397-2.6 3.725zm13.347 4.825c-1.359 0-2.161-.763-2.161-1.914 0-1.164.867-1.889 2.355-2.005l1.991-.155v-.181c0-1.061-.633-1.436-1.487-1.436-1.022 0-1.604.453-1.604 1.216h-1.061c0-1.32 1.087-2.186 2.717-2.186 1.565 0 2.626.828 2.626 2.535v3.971h-1.035l-.13-1.022c-.323.724-1.19 1.177-2.211 1.177zm.349-.944c1.151 0 1.849-.75 1.849-1.94v-.337l-1.616.13c-1.074.103-1.514.517-1.514 1.138 0 .673.492 1.009 1.281 1.009zm5.926.789h-1.216v-6.325h1.087l.116.828c.324-.595.996-1.009 1.889-1.009.983 0 1.681.491 2.005 1.28.297-.789 1.06-1.28 2.043-1.28 1.449 0 2.329.905 2.329 2.367v4.139h-1.19v-3.842c0-.996-.557-1.565-1.41-1.565-.919 0-1.527.647-1.527 1.656v3.751h-1.203v-3.855c0-.996-.543-1.539-1.396-1.539-.919 0-1.527.634-1.527 1.643v3.751z"/><rect width="166.048" height="43.997" x="83.203" y="253.298" stroke="#F5F6FB" stroke-width="1.275" rx="12.297"/><path fill="#7A8089" fill-rule="evenodd" d="M269.284 270.729a.972.972 0 0 1 1.372 0l3.881 3.881a.97.97 0 0 1 0 1.372l-3.881 3.88a.97.97 0 1 1-1.372-1.372l2.225-2.224h-7.359a.97.97 0 1 1 0-1.94h7.359l-2.225-2.225a.972.972 0 0 1 0-1.372z" clip-rule="evenodd"/><rect width="166.048" height="43.997" x="288.748" y="253.298" fill="#fff" rx="12.297"/><path stroke="#7A8089" stroke-linecap="round" stroke-linejoin="round" stroke-width="1.275" d="M310.747 272.062v3.233l2.425 2.426m4.85-2.426a7.275 7.275 0 1 1-7.275-7.275 7.275 7.275 0 0 1 7.275 7.275z"/><path fill="#020710" d="M332.567 272.082h-1.966v-1.138h3.182v9.352h-1.216v-8.214zm2.927 3.544c0-2.897 1.5-4.863 3.854-4.863 2.342 0 3.842 1.966 3.842 4.863 0 2.911-1.436 4.838-3.842 4.838-2.418 0-3.854-1.927-3.854-4.838zm1.255 0c0 2.303.957 3.7 2.599 3.7 1.643 0 2.587-1.397 2.587-3.7 0-2.328-.944-3.725-2.587-3.725-1.642 0-2.599 1.397-2.599 3.725zm8.994-.025c-.505 0-.931-.414-.931-.893 0-.504.426-.918.931-.918a.93.93 0 0 1 .918.918c0 .479-.427.893-.918.893zm0 4.85c-.505 0-.931-.414-.931-.905 0-.505.426-.919.931-.919a.93.93 0 0 1 .918.919c0 .491-.427.905-.918.905zm2.547-4.825c0-2.897 1.5-4.863 3.854-4.863 2.341 0 3.842 1.966 3.842 4.863 0 2.911-1.436 4.838-3.842 4.838-2.419 0-3.854-1.927-3.854-4.838zm1.254 0c0 2.303.958 3.7 2.6 3.7 1.643 0 2.587-1.397 2.587-3.7 0-2.328-.944-3.725-2.587-3.725-1.642 0-2.6 1.397-2.6 3.725zm7.714 0c0-2.897 1.501-4.863 3.855-4.863 2.341 0 3.841 1.966 3.841 4.863 0 2.911-1.435 4.838-3.841 4.838-2.419 0-3.855-1.927-3.855-4.838zm1.255 0c0 2.303.957 3.7 2.6 3.7 1.642 0 2.587-1.397 2.587-3.7 0-2.328-.945-3.725-2.587-3.725-1.643 0-2.6 1.397-2.6 3.725zm13.346 4.825c-1.358 0-2.16-.763-2.16-1.914 0-1.164.866-1.889 2.354-2.005l1.992-.155v-.181c0-1.061-.634-1.436-1.488-1.436-1.021 0-1.603.453-1.603 1.216h-1.061c0-1.32 1.086-2.186 2.716-2.186 1.565 0 2.626.828 2.626 2.535v3.971H374.2l-.129-1.022c-.324.724-1.19 1.177-2.212 1.177zm.349-.944c1.151 0 1.85-.75 1.85-1.94v-.337l-1.617.13c-1.074.103-1.513.517-1.513 1.138 0 .673.491 1.009 1.28 1.009zm5.927.789h-1.216v-6.325h1.086l.117.828c.323-.595.996-1.009 1.888-1.009.983 0 1.682.491 2.005 1.28.298-.789 1.061-1.28 2.044-1.28 1.448 0 2.328.905 2.328 2.367v4.139h-1.19v-3.842c0-.996-.556-1.565-1.41-1.565-.918 0-1.526.647-1.526 1.656v3.751h-1.203v-3.855c0-.996-.543-1.539-1.397-1.539-.918 0-1.526.634-1.526 1.643v3.751z"/><rect width="166.048" height="43.997" x="288.748" y="253.298" stroke="#F5F6FB" stroke-width="1.275" rx="12.297"/><rect width="371.593" height="43.997" x="83.203" y="312.685" fill="#fff" rx="12.297"/><path stroke="#7A8089" stroke-linecap="round" stroke-linejoin="round" stroke-width="1.275" d="M105.202 328.501a3.234 3.234 0 1 1 0 4.278m2.425 9.179h-9.701v-.809a4.85 4.85 0 0 1 9.701 0v.809zm0 0h4.85v-.809a4.85 4.85 0 0 0-7.275-4.201m.808-6.308a3.234 3.234 0 1 1-6.468 0 3.234 3.234 0 0 1 6.468 0z"/><path fill="#7A8089" d="M126.078 339.683h-1.319l3.415-9.352h1.409l3.428 9.352h-1.332l-.841-2.329h-3.932l-.828 2.329zm2.639-7.334-1.423 3.906h3.169l-1.436-3.906a4.113 4.113 0 0 1-.155-.544c-.026.13-.091.35-.155.544zm7.626 7.489c-1.837 0-2.95-1.371-2.95-3.299 0-1.94 1.126-3.363 3.001-3.363.97 0 1.785.427 2.212 1.203v-4.216h1.203v9.52h-1.086l-.104-1.152c-.414.867-1.268 1.307-2.276 1.307zm.245-1.1c1.242 0 2.005-.918 2.005-2.237 0-1.294-.763-2.225-2.005-2.225-1.241 0-1.966.931-1.966 2.225 0 1.306.725 2.237 1.966 2.237zm7.51 1.1c-1.836 0-2.949-1.371-2.949-3.299 0-1.94 1.126-3.363 3.001-3.363.97 0 1.785.427 2.212 1.203v-4.216h1.203v9.52h-1.087l-.103-1.152c-.414.867-1.268 1.307-2.277 1.307zm.246-1.1c1.242 0 2.005-.918 2.005-2.237 0-1.294-.763-2.225-2.005-2.225s-1.966.931-1.966 2.225c0 1.306.724 2.237 1.966 2.237zm8.111-2.38c0-1.785 1.151-3.182 2.988-3.182 1.022 0 1.811.466 2.212 1.255l.09-1.074h1.087v6.067c0 1.992-1.229 3.259-3.169 3.259-1.721 0-2.898-.97-3.131-2.574h1.216c.156.932.854 1.475 1.915 1.475 1.19 0 1.966-.776 1.966-1.979v-1.268c-.414.738-1.242 1.177-2.238 1.177-1.798 0-2.936-1.384-2.936-3.156zm1.216-.025c0 1.19.737 2.121 1.927 2.121 1.229 0 1.979-.88 1.979-2.121 0-1.216-.724-2.096-1.966-2.096-1.216 0-1.94.931-1.94 2.096zm11.287-2.976h1.203v6.326h-1.086l-.13-.958c-.362.66-1.202 1.113-2.134 1.113-1.474 0-2.302-.996-2.302-2.548v-3.933h1.216v3.532c0 1.358.582 1.875 1.513 1.875 1.112 0 1.72-.711 1.72-2.069v-3.338zm5.57 6.481c-1.862 0-3.143-1.345-3.143-3.311 0-1.98 1.255-3.351 3.092-3.351 1.798 0 2.975 1.242 2.975 3.118v.452l-4.89.013c.091 1.333.789 2.07 1.992 2.07.944 0 1.565-.388 1.772-1.112h1.139c-.311 1.358-1.372 2.121-2.937 2.121zm-.051-5.64c-1.061 0-1.734.634-1.889 1.746h3.648c0-1.047-.686-1.746-1.759-1.746zm3.815 3.648h1.164c0 .647.492 1.035 1.294 1.035.854 0 1.345-.35 1.345-.932 0-.426-.207-.685-.867-.853l-1.112-.259c-1.125-.272-1.656-.828-1.656-1.759 0-1.164.983-1.902 2.38-1.902 1.384 0 2.29.776 2.316 1.979h-1.164c-.026-.633-.453-1.034-1.19-1.034-.764 0-1.19.336-1.19.918 0 .427.31.711.931.867l1.112.271c1.074.259 1.604.751 1.604 1.695 0 1.203-1.035 1.966-2.535 1.966-1.487 0-2.432-.789-2.432-1.992zm8.101 1.837h-1.216v-5.304h-1.242v-1.022h1.242v-1.979h1.216v1.979h1.241v1.022h-1.241v5.304z"/><rect width="371.593" height="43.997" x="83.203" y="312.685" stroke="#F5F6FB" stroke-width="1.275" rx="12.297"/><rect width="371.593" height="43.997" x="83.203" y="372.071" fill="#fff" rx="12.297"/><path fill="#FB552F" fill-rule="evenodd" d="M105.201 384.368a9.7 9.7 0 0 1 9.701 9.701 9.7 9.7 0 0 1-9.701 9.701 9.7 9.7 0 0 1-9.701-9.701 9.7 9.7 0 0 1 9.701-9.701zm-4.725 7.395v3.461a1.416 1.416 0 0 0 1.421 1.41h5.046a.258.258 0 0 0 .258-.256v-3.461a1.416 1.416 0 0 0-1.422-1.409h-5.045a.257.257 0 0 0-.258.255zm7.047 1.351 2.083-1.522c.18-.15.321-.112.321.159v4.64c0 .308-.172.271-.321.158l-2.083-1.518v-1.917z" clip-rule="evenodd"/><path fill="#020710" d="M131.679 399.069h-6.61v-1.177l5.019-7.01h-4.941v-1.165h6.519v1.139l-5.058 7.036h5.071v1.177zm.767-3.169c0-1.953 1.397-3.324 3.298-3.324 1.889 0 3.286 1.371 3.286 3.324 0 1.953-1.397 3.325-3.286 3.325-1.901 0-3.298-1.372-3.298-3.325zm1.229 0c0 1.32.841 2.238 2.069 2.238 1.216 0 2.07-.918 2.07-2.238 0-1.319-.854-2.237-2.07-2.237-1.228 0-2.069.918-2.069 2.237zm6.287 0c0-1.953 1.397-3.324 3.298-3.324 1.889 0 3.286 1.371 3.286 3.324 0 1.953-1.397 3.325-3.286 3.325-1.901 0-3.298-1.372-3.298-3.325zm1.229 0c0 1.32.84 2.238 2.069 2.238 1.216 0 2.07-.918 2.07-2.238 0-1.319-.854-2.237-2.07-2.237-1.229 0-2.069.918-2.069 2.237zm7.917 3.169h-1.216v-6.325h1.086l.117.828c.323-.595.996-1.009 1.888-1.009.983 0 1.682.492 2.005 1.281.297-.789 1.061-1.281 2.044-1.281 1.448 0 2.328.906 2.328 2.367v4.139h-1.19v-3.841c0-.996-.556-1.565-1.41-1.565-.918 0-1.526.646-1.526 1.655v3.751h-1.203v-3.854c0-.996-.543-1.539-1.397-1.539-.919 0-1.526.633-1.526 1.642v3.751zm14.923 0h-1.242v-9.352h1.242l3.221 7.865 3.22-7.865h1.268v9.352h-1.242v-3.699c0-1.746.013-2.38.078-3.04l-2.729 6.739h-1.19l-2.717-6.713c.065.453.091 1.41.091 2.716v3.997zm12.409.156c-1.863 0-3.143-1.346-3.143-3.312 0-1.979 1.254-3.35 3.091-3.35 1.798 0 2.975 1.242 2.975 3.117v.453l-4.889.013c.09 1.332.789 2.07 1.992 2.07.944 0 1.565-.388 1.772-1.113h1.138c-.31 1.358-1.371 2.122-2.936 2.122zm-.052-5.64c-1.06 0-1.733.634-1.888 1.746h3.647c0-1.048-.685-1.746-1.759-1.746zm7.063 5.64c-1.863 0-3.144-1.346-3.144-3.312 0-1.979 1.255-3.35 3.092-3.35 1.798 0 2.975 1.242 2.975 3.117v.453l-4.89.013c.091 1.332.789 2.07 1.992 2.07.945 0 1.566-.388 1.772-1.113h1.139c-.311 1.358-1.371 2.122-2.936 2.122zm-.052-5.64c-1.061 0-1.733.634-1.889 1.746h3.648c0-1.048-.686-1.746-1.759-1.746zm6.055 5.484h-1.216v-5.303h-1.242v-1.022h1.242v-1.979h1.216v1.979h1.241v1.022h-1.241v5.303zm2.928-7.825a.806.806 0 0 1-.802-.802c0-.453.362-.802.802-.802.439 0 .802.349.802.802 0 .44-.363.802-.802.802zm-.595 7.825v-6.325h1.215v6.325h-1.215zm4.197 0h-1.216v-6.325h1.099l.129.97c.401-.724 1.203-1.151 2.096-1.151 1.669 0 2.432 1.022 2.432 2.639v3.867h-1.216v-3.596c0-1.28-.595-1.797-1.527-1.797-1.138 0-1.797.814-1.797 2.043v3.35zm5.823-3.324c0-1.785 1.151-3.182 2.988-3.182 1.022 0 1.811.466 2.212 1.255l.09-1.074h1.087v6.067c0 1.992-1.229 3.259-3.169 3.259-1.721 0-2.898-.97-3.131-2.574h1.216c.155.931.854 1.475 1.915 1.475 1.19 0 1.966-.776 1.966-1.979v-1.268c-.414.737-1.242 1.177-2.238 1.177-1.798 0-2.936-1.384-2.936-3.156zm1.216-.026c0 1.19.737 2.122 1.927 2.122 1.229 0 1.979-.88 1.979-2.122 0-1.216-.724-2.095-1.966-2.095-1.216 0-1.94.931-1.94 2.095z"/><path fill="#7A8089" fill-rule="evenodd" d="M430.144 391.796a.84.84 0 0 1 1.188 0l2.766 2.766 2.766-2.766a.84.84 0 0 1 1.188 1.188l-3.36 3.36a.84.84 0 0 1-1.188 0l-3.36-3.36a.84.84 0 0 1 0-1.188z" clip-rule="evenodd" opacity=".5"/><rect width="371.593" height="43.997" x="83.203" y="372.071" stroke="#F5F6FB" stroke-width="1.275" rx="12.297"/><g filter="url(#b)"><rect width="372.869" height="37.64" x="82.565" y="76.845" fill="#F9FCFF" rx="14.115"/><path fill="#020710" d="M135.661 93.047v-1.059h6.269v1.059h-2.552v7.445h-1.153v-7.445h-2.564zm7.991 7.586c-1.235 0-1.964-.694-1.964-1.74 0-1.06.788-1.718 2.141-1.824l1.811-.14v-.166c0-.964-.576-1.305-1.352-1.305-.93 0-1.459.412-1.459 1.106h-.964c0-1.2.988-1.988 2.47-1.988 1.423 0 2.387.753 2.387 2.305v3.611h-.941l-.117-.929c-.294.659-1.082 1.07-2.012 1.07zm.318-.858c1.047 0 1.682-.683 1.682-1.765v-.306l-1.47.118c-.977.094-1.376.47-1.376 1.035 0 .612.446.918 1.164.918zm3.813-.953h1.059c0 .588.447.94 1.176.94.776 0 1.223-.317 1.223-.846 0-.388-.188-.623-.788-.776l-1.011-.236c-1.024-.247-1.506-.752-1.506-1.6 0-1.058.894-1.728 2.164-1.728 1.259 0 2.082.705 2.106 1.8h-1.059c-.023-.577-.411-.942-1.082-.942-.694 0-1.082.306-1.082.835 0 .389.282.647.847.789l1.011.247c.977.235 1.459.682 1.459 1.54 0 1.094-.941 1.788-2.306 1.788-1.352 0-2.211-.717-2.211-1.811zm6.872 1.67h-1.105v-8.657h1.105v5.61l2.553-2.705h1.388l-2.2 2.294 2.188 3.458h-1.27l-1.682-2.658-.977 1.023v1.635z" opacity=".33"/><rect width="121.937" height="30.582" x="208.031" y="80.373" fill="#F2F3F8" rx="11.762"/><path fill="#020710" d="M261.255 100.492h-5.187v-8.504h5.187v1.059h-4.034v2.658h3.634v1.023h-3.634v2.694h4.034v1.07zm2.945 0-2.318-5.752h1.177l1.258 3.212c.2.54.365 1.023.459 1.376.094-.377.282-.87.482-1.377l1.282-3.21h1.153l-2.399 5.751H264.2zm6.59.141c-1.693 0-2.858-1.223-2.858-3.01 0-1.8 1.141-3.047 2.811-3.047 1.635 0 2.706 1.129 2.706 2.834v.412l-4.446.012c.082 1.211.717 1.882 1.811 1.882.859 0 1.423-.353 1.611-1.012h1.036c-.283 1.235-1.247 1.929-2.671 1.929zm-.047-5.128c-.964 0-1.576.576-1.717 1.588h3.317c0-.953-.623-1.588-1.6-1.588zm5.046 4.987h-1.105V94.74h1l.117.883c.365-.66 1.094-1.047 1.906-1.047 1.517 0 2.211.929 2.211 2.4v3.516h-1.106v-3.27c0-1.164-.541-1.635-1.388-1.635-1.035 0-1.635.741-1.635 1.859v3.046zm7.284 0h-1.106V95.67h-1.129v-.93h1.129v-1.8h1.106v1.8h1.129v.93h-1.129v4.822z"/><path fill="#020710" d="M372.075 100.492h-1.129v-8.504h1.129l2.929 7.151 2.929-7.151h1.153v8.504h-1.13v-3.364c0-1.588.012-2.164.071-2.764l-2.482 6.128h-1.082l-2.47-6.105c.059.412.082 1.283.082 2.47v3.635zm11.285.141c-1.694 0-2.859-1.223-2.859-3.01 0-1.8 1.141-3.047 2.811-3.047 1.635 0 2.706 1.129 2.706 2.834v.412l-4.446.012c.082 1.211.717 1.882 1.811 1.882.859 0 1.423-.353 1.612-1.012h1.035c-.283 1.235-1.247 1.929-2.67 1.929zm-.048-5.128c-.964 0-1.576.576-1.717 1.588h3.317c0-.953-.623-1.588-1.6-1.588zm6.423 5.128c-1.694 0-2.859-1.223-2.859-3.01 0-1.8 1.141-3.047 2.812-3.047 1.635 0 2.705 1.129 2.705 2.834v.412l-4.446.012c.082 1.211.717 1.882 1.811 1.882.859 0 1.423-.353 1.612-1.012h1.035c-.283 1.235-1.247 1.929-2.67 1.929zm-.047-5.128c-.965 0-1.577.576-1.718 1.588h3.317c0-.953-.623-1.588-1.599-1.588zm5.506 4.987h-1.106V95.67h-1.129v-.93h1.129v-1.8h1.106v1.8h1.129v.93h-1.129v4.822zm2.662-7.116c-.4 0-.729-.33-.729-.73 0-.411.329-.729.729-.729.4 0 .73.318.73.73 0 .4-.33.729-.73.729zm-.541 7.116V94.74h1.106v5.752h-1.106zm3.817 0h-1.106V94.74h1l.117.883c.365-.66 1.094-1.047 1.906-1.047 1.517 0 2.211.929 2.211 2.4v3.516h-1.105v-3.27c0-1.164-.541-1.635-1.388-1.635-1.035 0-1.635.741-1.635 1.859v3.046zm5.295-3.023c0-1.623 1.047-2.893 2.717-2.893.929 0 1.647.423 2.012 1.14l.082-.976h.988v5.517c0 1.811-1.117 2.964-2.882 2.964-1.564 0-2.635-.882-2.846-2.341h1.105c.142.847.777 1.341 1.741 1.341 1.082 0 1.788-.705 1.788-1.799v-1.153c-.376.67-1.129 1.07-2.035 1.07-1.635 0-2.67-1.258-2.67-2.87zm1.106-.023c0 1.082.67 1.929 1.752 1.929 1.118 0 1.8-.8 1.8-1.93 0-1.105-.659-1.905-1.788-1.905-1.106 0-1.764.847-1.764 1.906z" opacity=".33"/></g><rect width="418.301" height="590.293" x="59.849" y="11.308" stroke="#F2F3F8" stroke-width="1.617" rx="20.446"/><path fill="#fff" d="M504.465 115.163c0-3.949 0-5.924-.262-7.576a21.254 21.254 0 0 0-17.668-17.668c-1.652-.262-3.627-.262-7.576-.262v433.595h25.506V115.163z" opacity=".24"/><path fill="#fff" d="M529.971 174.676c0-3.95 0-5.924-.262-7.576a21.253 21.253 0 0 0-17.668-17.668c-1.652-.262-3.627-.262-7.576-.262v374.082h25.506V174.676z" opacity=".08"/></g><defs><clipPath id="a"><path fill="#fff" d="M0 0h538v430H0z"/></clipPath><filter id="b" width="391.689" height="56.459" x="73.156" y="67.435" color-interpolation-filters="sRGB" filterUnits="userSpaceOnUse"><feFlood flood-opacity="0" result="BackgroundImageFix"/><feGaussianBlur in="BackgroundImageFix" stdDeviation="4.705"/><feComposite in2="SourceAlpha" operator="in" result="effect1_backgroundBlur_1085_8452"/><feBlend in="SourceGraphic" in2="effect1_backgroundBlur_1085_8452" result="shape"/></filter></defs></svg>