<svg xmlns="http://www.w3.org/2000/svg" width="586" height="482" fill="none"><g clip-path="url(#a)"><rect width="586" height="482" fill="#fff" rx="32"/><g filter="url(#b)"><path fill="#0FB849" fill-opacity=".16" d="M293 372c72.349 0 131-58.651 131-131 0-72.349-58.651-131-131-131-72.349 0-131 58.651-131 131 0 72.349 58.651 131 131 131z"/></g><g filter="url(#c)" opacity=".04"><g clip-path="url(#d)"><rect width="308" height="118" x="78" y="125" fill="#182743" rx="20.017"/><g filter="url(#e)"><rect width="242" height="34.779" x="111" y="153" fill="#F2F3F8" rx="13.042"/><rect width="78.493" height="28.258" x="114.261" y="156.261" fill="#D7D8DF" fill-opacity=".32" rx="10.868"/><path fill="#020710" d="M146.419 174.686h-2.598v-7.858h2.554c2.348 0 3.935 1.587 3.935 3.935 0 2.336-1.565 3.923-3.891 3.923zm-.12-6.88h-1.413v5.891h1.457c1.749 0 2.858-1.13 2.858-2.934 0-1.826-1.109-2.957-2.902-2.957zm6.746 7.01c-1.141 0-1.815-.641-1.815-1.608 0-.978.728-1.587 1.978-1.685l1.674-.13v-.152c0-.891-.533-1.207-1.25-1.207-.859 0-1.348.381-1.348 1.022h-.891c0-1.109.913-1.837 2.282-1.837 1.315 0 2.207.696 2.207 2.13v3.337h-.87l-.109-.859c-.271.609-1 .989-1.858.989zm.293-.793c.968 0 1.555-.63 1.555-1.63v-.283l-1.359.109c-.902.087-1.272.435-1.272.956 0 .565.413.848 1.076.848zm3.32 3.043v-.837h.685c.489 0 .88-.076 1.13-.75l.185-.51-2.141-5.598h1.076l1.543 4.283 1.576-4.283h1.054l-2.51 6.511c-.359.912-.891 1.293-1.707 1.293-.337 0-.619-.044-.891-.109z"/><path fill="#020710" d="m221.727 174.686-2.336-7.858h1.108l1.435 4.804c.108.413.217.826.326 1.424.13-.631.25-1.011.369-1.424l1.489-4.804h1.152l1.478 4.804c.131.424.24.837.359 1.424.131-.663.239-1.065.348-1.413l1.445-4.815h1.087l-2.369 7.858h-1.022l-1.902-6.217-1.923 6.217h-1.044zm10.764.13c-1.565 0-2.641-1.13-2.641-2.782 0-1.663 1.055-2.815 2.598-2.815 1.511 0 2.5 1.044 2.5 2.62v.38l-4.109.011c.076 1.119.663 1.739 1.674 1.739.793 0 1.315-.326 1.489-.935h.956c-.26 1.141-1.152 1.782-2.467 1.782zm-.043-4.738c-.891 0-1.456.532-1.587 1.467h3.065c0-.88-.576-1.467-1.478-1.467zm5.934 4.738c-1.565 0-2.641-1.13-2.641-2.782 0-1.663 1.054-2.815 2.597-2.815 1.511 0 2.5 1.044 2.5 2.62v.38l-4.108.011c.076 1.119.663 1.739 1.674 1.739.793 0 1.315-.326 1.489-.935h.956c-.261 1.141-1.152 1.782-2.467 1.782zm-.044-4.738c-.891 0-1.456.532-1.586 1.467h3.065c0-.88-.577-1.467-1.479-1.467zm4.685 4.608h-1.022v-7.999h1.022v5.184l2.358-2.5h1.282l-2.032 2.12 2.022 3.195h-1.174l-1.554-2.456-.902.945v1.511zm50.133 0h-1.044v-7.858h1.044l2.706 6.608 2.706-6.608h1.065v7.858h-1.043v-3.108c0-1.468.011-2 .065-2.554l-2.293 5.662h-1l-2.283-5.641c.055.381.077 1.185.077 2.283v3.358zm7.785-2.663c0-1.641 1.174-2.793 2.772-2.793 1.586 0 2.76 1.152 2.76 2.793 0 1.641-1.174 2.793-2.76 2.793-1.598 0-2.772-1.152-2.772-2.793zm1.033 0c0 1.109.706 1.881 1.739 1.881 1.021 0 1.738-.772 1.738-1.881 0-1.108-.717-1.88-1.738-1.88-1.033 0-1.739.772-1.739 1.88zm6.652 2.663h-1.022v-5.315h.924l.108.816c.337-.609 1.011-.968 1.761-.968 1.402 0 2.043.859 2.043 2.217v3.25h-1.021v-3.021c0-1.076-.5-1.511-1.283-1.511-.956 0-1.51.685-1.51 1.717v2.815zm6.729 0h-1.021v-4.456h-1.044v-.859h1.044v-1.662h1.021v1.662h1.044v.859h-1.044v4.456zm2.982-.011h-1.022v-7.988h1.022v3.5c.337-.576.978-.968 1.804-.968 1.359 0 2.011.859 2.011 2.217v3.25h-1.022v-3.021c0-1.076-.511-1.511-1.271-1.511-.989 0-1.522.717-1.522 1.63v2.891z" opacity=".33"/></g><path fill="#7A8089" d="M115.8 222h-.96v-7.23h.96l2.49 6.08 2.49-6.08h.98V222h-.96v-2.86c0-1.35.01-1.84.06-2.35l-2.11 5.21h-.92l-2.1-5.19c.05.35.07 1.09.07 2.1V222z"/><path fill="#020710" d="M114.431 232.745h-1.976v-1.144h3.198V241h-1.222v-8.255zm9.948 6.357h-1.118V241h-1.222v-1.898h-4.862v-1.131l4.433-6.37h1.651v6.37h1.118v1.131zm-5.824-1.131h3.484v-5.018l-3.484 5.018z"/><path fill="#7A8089" d="M172.89 215.67v-.9h5.33v.9h-2.17V222h-.98v-6.33h-2.18z"/><path fill="#020710" d="M171.681 232.745h-1.976v-1.144h3.198V241h-1.222v-8.255zm6.05 8.411c-1.924 0-3.172-1.222-3.172-3.094h1.261c0 1.209.741 1.95 1.937 1.95 1.274 0 2.093-.845 2.093-2.119 0-1.209-.767-2.106-2.08-2.106-.793 0-1.521.377-1.95.91l-1.079-.273 1.144-4.823h4.706v1.17h-3.783l-.624 2.496c.494-.377 1.118-.572 1.82-.572 1.911 0 3.146 1.339 3.146 3.146 0 1.95-1.391 3.315-3.419 3.315z"/><path fill="#7A8089" d="m229.8 222-2.15-7.23h1.02l1.32 4.42c.1.38.2.76.3 1.31.12-.58.23-.93.34-1.31l1.37-4.42h1.06l1.36 4.42c.12.39.22.77.33 1.31.12-.61.22-.98.32-1.3l1.33-4.43h1l-2.18 7.23h-.94l-1.75-5.72-1.77 5.72h-.96z"/><path fill="#020710" d="M228.931 232.745h-1.976v-1.144h3.198V241h-1.222v-8.255zm4.137 1.833 2.197-2.977h1.482l-2.353 3.12c.325-.13.663-.195.988-.195 1.95 0 3.263 1.404 3.263 3.263 0 1.963-1.482 3.367-3.419 3.367-1.95 0-3.458-1.469-3.458-3.367 0-1.118.338-1.898 1.3-3.211zm0 3.224c0 1.287.884 2.21 2.158 2.21 1.248 0 2.132-.923 2.132-2.21s-.884-2.197-2.132-2.197c-1.274 0-2.158.91-2.158 2.197z"/><path fill="#7A8089" d="M286.89 215.67v-.9h5.33v.9h-2.17V222h-.98v-6.33h-2.18z"/><path fill="#020710" d="M286.181 232.745h-1.976v-1.144h3.198V241h-1.222v-8.255zm2.624-1.144h6.565v1.17L291.808 241h-1.326l3.601-8.229h-5.278v-1.17z"/><path fill="#7A8089" d="M348.16 218.93h-2.84V222h-.98v-7.23h4.36v.9h-3.38v2.37h2.84v.89z"/><path fill="#020710" d="M342.431 232.745h-1.976v-1.144h3.198V241h-1.222v-8.255zm2.865 5.642c0-1.131.663-2.041 1.703-2.418-.884-.377-1.365-1.118-1.365-2.067 0-1.469 1.261-2.47 3.133-2.47 1.846 0 3.094 1.001 3.094 2.483 0 .962-.494 1.703-1.378 2.054 1.053.338 1.729 1.274 1.729 2.431 0 1.651-1.378 2.756-3.458 2.756-2.093 0-3.458-1.105-3.458-2.769zm1.508-4.407c0 .923.767 1.521 1.937 1.521 1.183 0 1.924-.585 1.924-1.495 0-.897-.741-1.469-1.924-1.469-1.17 0-1.937.572-1.937 1.443zm-.26 4.316c0 1.053.871 1.729 2.21 1.729 1.326 0 2.197-.676 2.197-1.729 0-1.04-.858-1.703-2.21-1.703-1.339 0-2.197.663-2.197 1.703z"/></g></g><g clip-path="url(#f)"><rect width="298" height="157" x="83" y="76" fill="#fff" rx="24"/><g filter="url(#g)"><rect width="242" height="34.779" x="111" y="104" fill="#F7F9FC" rx="13.042"/><rect width="78.493" height="28.258" x="114.261" y="107.261" fill="#F2F3F8" rx="10.868"/><path fill="#020710" d="M146.419 125.686h-2.598v-7.858h2.554c2.348 0 3.935 1.587 3.935 3.935 0 2.336-1.565 3.923-3.891 3.923zm-.12-6.88h-1.413v5.891h1.457c1.749 0 2.858-1.13 2.858-2.934 0-1.826-1.109-2.957-2.902-2.957zm6.746 7.01c-1.141 0-1.815-.641-1.815-1.608 0-.978.728-1.587 1.978-1.685l1.674-.13v-.152c0-.891-.533-1.207-1.25-1.207-.859 0-1.348.381-1.348 1.022h-.891c0-1.109.913-1.837 2.282-1.837 1.315 0 2.207.696 2.207 2.13v3.337h-.87l-.109-.859c-.271.609-1 .989-1.858.989zm.293-.793c.968 0 1.555-.63 1.555-1.63v-.283l-1.359.109c-.902.087-1.272.435-1.272.956 0 .565.413.848 1.076.848zm3.32 3.043v-.837h.685c.489 0 .88-.076 1.13-.75l.185-.51-2.141-5.598h1.076l1.543 4.283 1.576-4.283h1.054l-2.51 6.511c-.359.912-.891 1.293-1.707 1.293-.337 0-.619-.044-.891-.109z"/><path fill="#020710" d="m221.727 125.686-2.336-7.858h1.108l1.435 4.804c.108.413.217.826.326 1.424.13-.631.25-1.011.369-1.424l1.489-4.804h1.152l1.478 4.804c.131.424.24.837.359 1.424.131-.663.239-1.065.348-1.413l1.445-4.815h1.087l-2.369 7.858h-1.022l-1.902-6.217-1.923 6.217h-1.044zm10.764.13c-1.565 0-2.641-1.13-2.641-2.782 0-1.663 1.055-2.815 2.598-2.815 1.511 0 2.5 1.044 2.5 2.62v.38l-4.109.011c.076 1.119.663 1.739 1.674 1.739.793 0 1.315-.326 1.489-.935h.956c-.26 1.141-1.152 1.782-2.467 1.782zm-.043-4.738c-.891 0-1.456.532-1.587 1.467h3.065c0-.88-.576-1.467-1.478-1.467zm5.934 4.738c-1.565 0-2.641-1.13-2.641-2.782 0-1.663 1.054-2.815 2.597-2.815 1.511 0 2.5 1.044 2.5 2.62v.38l-4.108.011c.076 1.119.663 1.739 1.674 1.739.793 0 1.315-.326 1.489-.935h.956c-.261 1.141-1.152 1.782-2.467 1.782zm-.044-4.738c-.891 0-1.456.532-1.586 1.467h3.065c0-.88-.577-1.467-1.479-1.467zm4.685 4.608h-1.022v-7.999h1.022v5.184l2.358-2.5h1.282l-2.032 2.12 2.022 3.195h-1.174l-1.554-2.456-.902.945v1.511zm50.133 0h-1.044v-7.858h1.044l2.706 6.608 2.706-6.608h1.065v7.858h-1.043v-3.108c0-1.468.011-2 .065-2.554l-2.293 5.662h-1l-2.283-5.641c.055.381.077 1.185.077 2.283v3.358zm7.785-2.663c0-1.641 1.174-2.793 2.772-2.793 1.586 0 2.76 1.152 2.76 2.793 0 1.641-1.174 2.793-2.76 2.793-1.598 0-2.772-1.152-2.772-2.793zm1.033 0c0 1.109.706 1.881 1.739 1.881 1.021 0 1.738-.772 1.738-1.881 0-1.108-.717-1.88-1.738-1.88-1.033 0-1.739.772-1.739 1.88zm6.652 2.663h-1.022v-5.315h.924l.108.816c.337-.609 1.011-.968 1.761-.968 1.402 0 2.043.859 2.043 2.217v3.25h-1.021v-3.021c0-1.076-.5-1.511-1.283-1.511-.956 0-1.51.685-1.51 1.717v2.815zm6.729 0h-1.021v-4.456h-1.044v-.859h1.044v-1.662h1.021v1.662h1.044v.859h-1.044v4.456zm2.982-.011h-1.022v-7.988h1.022v3.5c.337-.576.978-.968 1.804-.968 1.359 0 2.011.859 2.011 2.217v3.25h-1.022v-3.021c0-1.076-.511-1.511-1.271-1.511-.989 0-1.522.717-1.522 1.63v2.891z" opacity=".33"/></g><path fill="#7A8089" d="M115.8 173h-.96v-7.23h.96l2.49 6.08 2.49-6.08h.98V173h-.96v-2.86c0-1.35.01-1.84.06-2.35l-2.11 5.21h-.92l-2.1-5.19c.05.35.07 1.09.07 2.1V173z"/><path fill="#020710" d="M114.431 183.745h-1.976v-1.144h3.198V192h-1.222v-8.255zm9.948 6.357h-1.118V192h-1.222v-1.898h-4.862v-1.131l4.433-6.37h1.651v6.37h1.118v1.131zm-5.824-1.131h3.484v-5.018l-3.484 5.018z"/><path fill="#7A8089" d="M172.89 166.67v-.9h5.33v.9h-2.17V173h-.98v-6.33h-2.18z"/><path fill="#020710" d="M171.681 183.745h-1.976v-1.144h3.198V192h-1.222v-8.255zm6.05 8.411c-1.924 0-3.172-1.222-3.172-3.094h1.261c0 1.209.741 1.95 1.937 1.95 1.274 0 2.093-.845 2.093-2.119 0-1.209-.767-2.106-2.08-2.106-.793 0-1.521.377-1.95.91l-1.079-.273 1.144-4.823h4.706v1.17h-3.783l-.624 2.496c.494-.377 1.118-.572 1.82-.572 1.911 0 3.146 1.339 3.146 3.146 0 1.95-1.391 3.315-3.419 3.315z"/><path fill="#7A8089" d="m229.8 173-2.15-7.23h1.02l1.32 4.42c.1.38.2.76.3 1.31.12-.58.23-.93.34-1.31l1.37-4.42h1.06l1.36 4.42c.12.39.22.77.33 1.31.12-.61.22-.98.32-1.3l1.33-4.43h1l-2.18 7.23h-.94l-1.75-5.72-1.77 5.72h-.96z"/><path fill="#020710" d="M228.931 183.745h-1.976v-1.144h3.198V192h-1.222v-8.255zm4.137 1.833 2.197-2.977h1.482l-2.353 3.12c.325-.13.663-.195.988-.195 1.95 0 3.263 1.404 3.263 3.263 0 1.963-1.482 3.367-3.419 3.367-1.95 0-3.458-1.469-3.458-3.367 0-1.118.338-1.898 1.3-3.211zm0 3.224c0 1.287.884 2.21 2.158 2.21 1.248 0 2.132-.923 2.132-2.21s-.884-2.197-2.132-2.197c-1.274 0-2.158.91-2.158 2.197z"/><path stroke="#AD2FFB" stroke-linecap="round" stroke-width="1.5" d="M213.499 206.419h40"/><circle cx="233" cy="200.668" r="1.5" fill="#AD2FFB"/><path fill="#7A8089" d="M286.89 166.67v-.9h5.33v.9h-2.17V173h-.98v-6.33h-2.18z"/><path fill="#020710" d="M286.181 183.745h-1.976v-1.144h3.198V192h-1.222v-8.255zm2.624-1.144h6.565v1.17L291.808 192h-1.326l3.601-8.229h-5.278v-1.17z"/><path fill="#7A8089" d="M348.16 169.93h-2.84V173h-.98v-7.23h4.36v.9h-3.38v2.37h2.84v.89z"/><path fill="#020710" d="M342.431 183.745h-1.976v-1.144h3.198V192h-1.222v-8.255zm2.865 5.642c0-1.131.663-2.041 1.703-2.418-.884-.377-1.365-1.118-1.365-2.067 0-1.469 1.261-2.47 3.133-2.47 1.846 0 3.094 1.001 3.094 2.483 0 .962-.494 1.703-1.378 2.054 1.053.338 1.729 1.274 1.729 2.431 0 1.651-1.378 2.756-3.458 2.756-2.093 0-3.458-1.105-3.458-2.769zm1.508-4.407c0 .923.767 1.521 1.937 1.521 1.183 0 1.924-.585 1.924-1.495 0-.897-.741-1.469-1.924-1.469-1.17 0-1.937.572-1.937 1.443zm-.26 4.316c0 1.053.871 1.729 2.21 1.729 1.326 0 2.197-.676 2.197-1.729 0-1.04-.858-1.703-2.21-1.703-1.339 0-2.197.663-2.197 1.703z"/><g filter="url(#h)" opacity=".04"><rect width="188" height="93" fill="#182743" rx="20.017" transform="matrix(-1 0 0 1 381 140)"/></g></g><rect width="297" height="156" x="83.5" y="76.5" stroke="url(#i)" rx="23.5"/><g filter="url(#j)" opacity=".04"><rect width="310" height="153" x="198" y="264" fill="#182743" rx="24"/></g><g clip-path="url(#k)"><rect width="300" height="257" x="203" y="150" fill="#fff" rx="24"/><path fill="#7A8089" fill-rule="evenodd" d="M242.725 176.923a.81.81 0 0 1 0 1.143l-2.662 2.661 2.662 2.662a.808.808 0 0 1-1.143 1.142l-3.233-3.232a.808.808 0 0 1 0-1.143l3.233-3.233a.81.81 0 0 1 1.143 0z" clip-rule="evenodd" opacity=".24"/><path fill="#020710" d="M302.899 177.49V176h7.018v1.49h-2.701v7.737H305.6v-7.737h-2.701zm9.566 7.737h-1.54v-9.391h1.552v3.963c.392-.605 1.124-.997 2.02-.997 1.54 0 2.348.972 2.348 2.588v3.837h-1.54v-3.471c0-1.048-.518-1.553-1.3-1.553-.972 0-1.54.682-1.54 1.616v3.408zm10.121-6.235h1.54v6.235H322.7l-.114-.833c-.379.593-1.186.997-2.02.997-1.438 0-2.284-.972-2.284-2.499v-3.9h1.54v3.357c0 1.187.467 1.666 1.325 1.666.972 0 1.439-.568 1.439-1.754v-3.269zm7.043-.026v1.427h-.568c-1.11 0-1.805.593-1.805 1.805v3.029h-1.54v-6.223h1.452l.088.909c.265-.618.859-1.035 1.692-1.035.214 0 .429.025.681.088zm.563 4.368h1.464c.013.542.417.883 1.124.883.719 0 1.11-.29 1.11-.744 0-.316-.164-.543-.719-.669l-1.123-.266c-1.124-.252-1.667-.782-1.667-1.779 0-1.225 1.035-1.957 2.474-1.957 1.401 0 2.348.808 2.361 2.02h-1.464c-.013-.53-.366-.871-.96-.871-.606 0-.959.278-.959.745 0 .353.278.58.808.706l1.123.266c1.048.239 1.578.719 1.578 1.678 0 1.263-1.073 2.045-2.613 2.045-1.552 0-2.537-.833-2.537-2.057zm8.885 2.057c-1.805 0-2.929-1.325-2.929-3.256 0-1.944 1.136-3.333 3.017-3.333.871 0 1.641.366 2.032.985v-3.951h1.528v9.391h-1.414l-.101-.972c-.379.72-1.187 1.136-2.133 1.136zm.341-1.414c1.072 0 1.767-.77 1.767-1.893s-.695-1.906-1.767-1.906c-1.073 0-1.73.795-1.73 1.906 0 1.111.657 1.893 1.73 1.893zm6.767 1.414c-1.325 0-2.133-.77-2.133-1.944 0-1.148.833-1.868 2.31-1.981l1.868-.139v-.139c0-.846-.505-1.187-1.288-1.187-.909 0-1.413.379-1.413 1.035h-1.313c0-1.35 1.111-2.234 2.802-2.234 1.679 0 2.714.909 2.714 2.638v3.787h-1.351l-.113-.921c-.265.643-1.111 1.085-2.083 1.085zm.505-1.161c.946 0 1.552-.568 1.552-1.527v-.329l-1.3.101c-.959.089-1.325.404-1.325.909 0 .568.379.846 1.073.846zm3.839 3.888v-1.288h.922c.606 0 .984-.139 1.249-.871l.177-.467-2.512-6.5h1.628l1.603 4.544 1.692-4.544h1.59l-3.054 7.624c-.467 1.161-1.124 1.64-2.146 1.64-.429 0-.808-.05-1.149-.138zm8.135-3.446c0 1.047-.757 1.88-1.78 2.007v-.619c.568-.101.997-.442.997-.883a.792.792 0 0 1-.366.075c-.492 0-.896-.366-.896-.871 0-.606.392-1.009.96-1.009.631 0 1.085.517 1.085 1.3zm6.672-7.22h-2.02V176h3.572v9.227h-1.552v-7.775zm4.435 1.262 1.995-2.714h1.843l-2.209 2.941c.227-.063.467-.101.694-.101 1.906 0 3.193 1.338 3.193 3.206 0 1.969-1.464 3.345-3.433 3.345-1.994 0-3.484-1.464-3.484-3.357 0-1.111.366-1.919 1.401-3.32zm.253 3.332c0 1.124.745 1.906 1.83 1.906 1.048 0 1.805-.782 1.805-1.906 0-1.111-.745-1.88-1.805-1.88-1.098 0-1.83.769-1.83 1.88zm9.374.581v-.543h1.552v.543c0 .707.392 1.262 1.301 1.262.908 0 1.287-.517 1.287-1.325V176h1.616v6.652c0 1.628-1.136 2.739-2.891 2.739-1.893 0-2.865-1.174-2.865-2.764zm11.736-3.635h1.539v6.235h-1.426l-.113-.833c-.379.593-1.187.997-2.02.997-1.439 0-2.285-.972-2.285-2.499v-3.9h1.54v3.357c0 1.187.467 1.666 1.326 1.666.972 0 1.439-.568 1.439-1.754v-3.269zm4.683 6.235h-1.528v-9.391h1.528v9.391zm1.072 2.891v-1.288h.922c.605 0 .984-.139 1.249-.871l.177-.467-2.512-6.5h1.628l1.603 4.544 1.692-4.544h1.59l-3.054 7.624c-.467 1.161-1.124 1.64-2.146 1.64-.429 0-.808-.05-1.149-.138z"/><path fill="#7A8089" fill-rule="evenodd" d="M463.276 184.531a.81.81 0 0 1 0-1.143l2.662-2.661-2.662-2.661a.81.81 0 0 1 1.143-1.143l3.233 3.232a.808.808 0 0 1 0 1.143l-3.233 3.233a.81.81 0 0 1-1.143 0z" clip-rule="evenodd" opacity=".24"/><g clip-path="url(#l)"><rect width="240.565" height="36.652" x="232.719" y="210.036" fill="#fff" rx="10.244"/><rect width="9.016" height="9.016" x="315.602" y="223.854" fill="#F2F3F8" rx="4.508"/><path fill="#7A8089" d="m337.764 230.394-1.821 2.468h-1.229l1.951-2.586c-.27.107-.55.161-.819.161-1.617 0-2.705-1.163-2.705-2.715 0-1.616 1.228-2.791 2.834-2.791 1.616 0 2.866 1.218 2.866 2.802 0 .916-.28 1.573-1.077 2.661zm0-2.672c0-1.067-.733-1.843-1.789-1.843-1.034 0-1.767.776-1.767 1.843s.733 1.821 1.767 1.821c1.056 0 1.789-.754 1.789-1.821zm3.117 1.228c-.42 0-.775-.345-.775-.743 0-.42.355-.765.775-.765.41 0 .765.345.765.765 0 .398-.355.743-.765.743zm0 4.041c-.42 0-.775-.345-.775-.754 0-.42.355-.765.775-.765.41 0 .765.345.765.765a.773.773 0 0 1-.765.754zm2.122-4.019c0-2.414 1.25-4.052 3.211-4.052 1.951 0 3.2 1.638 3.2 4.052 0 2.424-1.196 4.03-3.2 4.03-2.015 0-3.211-1.606-3.211-4.03zm1.045 0c0 1.918.798 3.082 2.166 3.082 1.369 0 2.155-1.164 2.155-3.082 0-1.94-.786-3.103-2.155-3.103-1.368 0-2.166 1.163-2.166 3.103zm6.426 0c0-2.414 1.25-4.052 3.211-4.052 1.951 0 3.201 1.638 3.201 4.052 0 2.424-1.196 4.03-3.201 4.03-2.015 0-3.211-1.606-3.211-4.03zm1.046 0c0 1.918.797 3.082 2.165 3.082 1.369 0 2.156-1.164 2.156-3.082 0-1.94-.787-3.103-2.156-3.103-1.368 0-2.165 1.163-2.165 3.103zm11.118 4.019c-1.132 0-1.8-.636-1.8-1.595 0-.969.722-1.573 1.961-1.67l1.66-.129v-.151c0-.884-.528-1.196-1.239-1.196-.852 0-1.337.377-1.337 1.013H361c0-1.099.905-1.821 2.263-1.821 1.304 0 2.187.689 2.187 2.112v3.308h-.862l-.108-.851c-.269.603-.991.98-1.842.98zm.291-.786c.959 0 1.541-.625 1.541-1.617v-.28l-1.347.108c-.895.086-1.261.431-1.261.948 0 .56.409.841 1.067.841zm4.937.657h-1.013v-5.269h.905l.097.689c.269-.495.83-.84 1.573-.84.819 0 1.401.409 1.67 1.067.248-.658.884-1.067 1.703-1.067 1.207 0 1.94.754 1.94 1.972v3.448h-.992v-3.201c0-.829-.463-1.303-1.174-1.303-.765 0-1.272.538-1.272 1.379v3.125h-1.002v-3.211c0-.83-.453-1.283-1.164-1.283-.765 0-1.271.528-1.271 1.369v3.125z"/><rect width="240.565" height="36.652" x="232.719" y="210.036" stroke="#F2F3F8" stroke-width="1.062" rx="10.244"/><rect width="240.565" height="36.652" x="232.719" y="259.509" fill="#fff" rx="10.244"/><rect width="9.016" height="9.016" x="315.602" y="273.327" fill="#00C82C" rx="4.508"/><path fill="#020710" d="M334.714 275.492h-1.638v-.948h2.651v7.79h-1.013v-6.842zm2.438 2.953c0-2.414 1.25-4.052 3.211-4.052 1.951 0 3.201 1.638 3.201 4.052 0 2.424-1.196 4.03-3.201 4.03-2.015 0-3.211-1.606-3.211-4.03zm1.046 0c0 1.918.797 3.081 2.165 3.081 1.369 0 2.155-1.163 2.155-3.081 0-1.94-.786-3.104-2.155-3.104-1.368 0-2.165 1.164-2.165 3.104zm7.492-.022c-.42 0-.775-.345-.775-.744 0-.42.355-.765.775-.765.41 0 .765.345.765.765 0 .399-.355.744-.765.744zm0 4.041c-.42 0-.775-.345-.775-.755 0-.42.355-.765.775-.765.41 0 .765.345.765.765 0 .41-.355.755-.765.755zm2.122-4.019c0-2.414 1.25-4.052 3.211-4.052 1.95 0 3.2 1.638 3.2 4.052 0 2.424-1.196 4.03-3.2 4.03-2.015 0-3.211-1.606-3.211-4.03zm1.045 0c0 1.918.798 3.081 2.166 3.081 1.369 0 2.155-1.163 2.155-3.081 0-1.94-.786-3.104-2.155-3.104-1.368 0-2.166 1.164-2.166 3.104zm6.426 0c0-2.414 1.25-4.052 3.211-4.052 1.951 0 3.201 1.638 3.201 4.052 0 2.424-1.196 4.03-3.201 4.03-2.015 0-3.211-1.606-3.211-4.03zm1.046 0c0 1.918.797 3.081 2.165 3.081 1.369 0 2.156-1.163 2.156-3.081 0-1.94-.787-3.104-2.156-3.104-1.368 0-2.165 1.164-2.165 3.104zm11.118 4.019c-1.132 0-1.8-.636-1.8-1.595 0-.97.722-1.573 1.961-1.67l1.66-.13v-.15c0-.884-.528-1.196-1.239-1.196-.852 0-1.337.377-1.337 1.012h-.883c0-1.099.905-1.821 2.263-1.821 1.303 0 2.187.69 2.187 2.112v3.308h-.862l-.108-.851c-.269.604-.991.981-1.842.981zm.291-.787c.959 0 1.541-.625 1.541-1.616v-.28l-1.347.107c-.895.087-1.261.431-1.261.949 0 .56.409.84 1.067.84zm4.937.657h-1.013v-5.269h.905l.097.69c.269-.496.83-.841 1.573-.841.819 0 1.401.41 1.67 1.067.248-.657.884-1.067 1.703-1.067 1.207 0 1.94.755 1.94 1.972v3.448h-.992v-3.2c0-.83-.463-1.304-1.174-1.304-.765 0-1.272.539-1.272 1.38v3.124h-1.002v-3.211c0-.829-.453-1.282-1.164-1.282-.765 0-1.271.528-1.271 1.369v3.124z"/><rect width="240.565" height="36.652" x="232.719" y="259.509" stroke="#00C82C" stroke-width="1.062" rx="10.244"/><rect width="240.565" height="36.652" x="232.719" y="308.982" fill="#fff" rx="10.244"/><rect width="9.016" height="9.016" x="315.602" y="322.8" fill="#00C82C" rx="4.508"/><path fill="#020710" d="M334.714 324.966h-1.638v-.949h2.651v7.791h-1.013v-6.842zm3.831 0h-1.638v-.949h2.65v7.791h-1.012v-6.842zm3.504 2.931c-.42 0-.775-.345-.775-.744 0-.42.355-.765.775-.765.41 0 .765.345.765.765 0 .399-.355.744-.765.744zm0 4.04c-.42 0-.775-.344-.775-.754 0-.42.355-.765.775-.765.41 0 .765.345.765.765 0 .41-.355.754-.765.754zm2.122-4.019c0-2.414 1.25-4.051 3.211-4.051 1.951 0 3.201 1.637 3.201 4.051 0 2.425-1.197 4.03-3.201 4.03-2.015 0-3.211-1.605-3.211-4.03zm1.045 0c0 1.918.798 3.082 2.166 3.082 1.369 0 2.155-1.164 2.155-3.082 0-1.939-.786-3.103-2.155-3.103-1.368 0-2.166 1.164-2.166 3.103zm6.426 0c0-2.414 1.25-4.051 3.211-4.051 1.951 0 3.201 1.637 3.201 4.051 0 2.425-1.196 4.03-3.201 4.03-2.015 0-3.211-1.605-3.211-4.03zm1.046 0c0 1.918.797 3.082 2.165 3.082 1.369 0 2.156-1.164 2.156-3.082 0-1.939-.787-3.103-2.156-3.103-1.368 0-2.165 1.164-2.165 3.103zm11.118 4.019c-1.132 0-1.8-.635-1.8-1.594 0-.97.722-1.574 1.961-1.671l1.66-.129v-.151c0-.883-.528-1.196-1.239-1.196-.852 0-1.337.377-1.337 1.013h-.883c0-1.099.905-1.821 2.263-1.821 1.304 0 2.187.69 2.187 2.112v3.308h-.862l-.108-.851c-.269.603-.991.98-1.842.98zm.291-.786c.959 0 1.541-.625 1.541-1.617v-.28l-1.347.108c-.895.086-1.261.431-1.261.948 0 .561.409.841 1.067.841zm4.937.657h-1.013v-5.269h.905l.097.69c.269-.496.83-.841 1.573-.841.819 0 1.401.409 1.67 1.067.248-.658.884-1.067 1.703-1.067 1.207 0 1.94.754 1.94 1.972v3.448h-.992v-3.2c0-.83-.463-1.304-1.174-1.304-.765 0-1.272.539-1.272 1.379v3.125h-1.002v-3.211c0-.83-.453-1.282-1.164-1.282-.765 0-1.271.528-1.271 1.368v3.125z"/><rect width="240.565" height="36.652" x="232.719" y="308.982" stroke="#00C82C" stroke-width="1.062" rx="10.244"/><rect width="240.565" height="36.652" x="232.719" y="358.455" fill="#fff" rx="10.244"/><rect width="9.016" height="9.016" x="315.602" y="372.272" fill="#F2F3F8" rx="4.508"/><path fill="#7A8089" d="M334.714 374.438h-1.638v-.948h2.651v7.79h-1.013v-6.842zm7.664 6.831-5.258.011v-.808l2.511-2.166c1.26-1.088 1.616-1.616 1.616-2.446 0-.98-.56-1.562-1.498-1.562-.959 0-1.584.7-1.605 1.81h-1.056c.032-1.67 1.088-2.758 2.672-2.758 1.562 0 2.565.948 2.565 2.446 0 1.109-.55 1.896-1.929 3.092l-1.617 1.401h3.599v.98zm2.039-3.9c-.42 0-.776-.345-.776-.744 0-.42.356-.765.776-.765.41 0 .765.345.765.765 0 .399-.355.744-.765.744zm0 4.041c-.42 0-.776-.345-.776-.755 0-.42.356-.765.776-.765.41 0 .765.345.765.765 0 .41-.355.755-.765.755zm2.122-4.02c0-2.413 1.25-4.051 3.211-4.051 1.95 0 3.2 1.638 3.2 4.051 0 2.425-1.196 4.03-3.2 4.03-2.015 0-3.211-1.605-3.211-4.03zm1.045 0c0 1.918.797 3.082 2.166 3.082 1.368 0 2.155-1.164 2.155-3.082 0-1.939-.787-3.103-2.155-3.103-1.369 0-2.166 1.164-2.166 3.103zm6.426 0c0-2.413 1.25-4.051 3.211-4.051 1.951 0 3.2 1.638 3.2 4.051 0 2.425-1.196 4.03-3.2 4.03-2.015 0-3.211-1.605-3.211-4.03zm1.045 0c0 1.918.798 3.082 2.166 3.082 1.369 0 2.155-1.164 2.155-3.082 0-1.939-.786-3.103-2.155-3.103-1.368 0-2.166 1.164-2.166 3.103zm11.118 4.02c-1.131 0-1.799-.636-1.799-1.595 0-.97.722-1.573 1.961-1.67l1.659-.13v-.151c0-.883-.528-1.196-1.239-1.196-.851 0-1.336.378-1.336 1.013h-.883c0-1.099.905-1.821 2.262-1.821 1.304 0 2.188.69 2.188 2.112v3.308h-.862l-.108-.851c-.269.603-.991.981-1.843.981zm.291-.787c.959 0 1.541-.625 1.541-1.616v-.281l-1.347.108c-.894.086-1.26.431-1.26.948 0 .561.409.841 1.066.841zm4.937.657h-1.012v-5.269h.905l.097.69c.269-.496.829-.841 1.573-.841.819 0 1.401.41 1.67 1.067.248-.657.884-1.067 1.703-1.067 1.206 0 1.939.754 1.939 1.972v3.448h-.991v-3.2c0-.83-.463-1.304-1.175-1.304-.765 0-1.271.539-1.271 1.379v3.125h-1.002v-3.211c0-.83-.453-1.282-1.164-1.282-.765 0-1.272.528-1.272 1.368v3.125z"/><rect width="240.565" height="36.652" x="232.719" y="358.455" stroke="#F2F3F8" stroke-width="1.062" rx="10.244"/></g></g><rect width="299" height="256" x="203.5" y="150.5" stroke="url(#m)" rx="23.5"/></g><defs><filter id="b" width="654" height="654" x="-34" y="-86" color-interpolation-filters="sRGB" filterUnits="userSpaceOnUse"><feFlood flood-opacity="0" result="BackgroundImageFix"/><feBlend in="SourceGraphic" in2="BackgroundImageFix" result="shape"/><feGaussianBlur result="effect1_foregroundBlur_599_4924" stdDeviation="98"/></filter><filter id="c" width="374.722" height="184.722" x="44.639" y="91.639" color-interpolation-filters="sRGB" filterUnits="userSpaceOnUse"><feFlood flood-opacity="0" result="BackgroundImageFix"/><feBlend in="SourceGraphic" in2="BackgroundImageFix" result="shape"/><feGaussianBlur result="effect1_foregroundBlur_599_4924" stdDeviation="16.68"/></filter><filter id="e" width="259.389" height="52.168" x="102.305" y="144.305" color-interpolation-filters="sRGB" filterUnits="userSpaceOnUse"><feFlood flood-opacity="0" result="BackgroundImageFix"/><feGaussianBlur in="BackgroundImageFix" stdDeviation="4.347"/><feComposite in2="SourceAlpha" operator="in" result="effect1_backgroundBlur_599_4924"/><feBlend in="SourceGraphic" in2="effect1_backgroundBlur_599_4924" result="shape"/></filter><filter id="g" width="259.389" height="52.168" x="102.305" y="95.305" color-interpolation-filters="sRGB" filterUnits="userSpaceOnUse"><feFlood flood-opacity="0" result="BackgroundImageFix"/><feGaussianBlur in="BackgroundImageFix" stdDeviation="4.347"/><feComposite in2="SourceAlpha" operator="in" result="effect1_backgroundBlur_599_4924"/><feBlend in="SourceGraphic" in2="effect1_backgroundBlur_599_4924" result="shape"/></filter><filter id="h" width="254.722" height="159.722" x="159.639" y="106.639" color-interpolation-filters="sRGB" filterUnits="userSpaceOnUse"><feFlood flood-opacity="0" result="BackgroundImageFix"/><feBlend in="SourceGraphic" in2="BackgroundImageFix" result="shape"/><feGaussianBlur result="effect1_foregroundBlur_599_4924" stdDeviation="16.68"/></filter><filter id="j" width="376.722" height="219.722" x="164.639" y="230.639" color-interpolation-filters="sRGB" filterUnits="userSpaceOnUse"><feFlood flood-opacity="0" result="BackgroundImageFix"/><feBlend in="SourceGraphic" in2="BackgroundImageFix" result="shape"/><feGaussianBlur result="effect1_foregroundBlur_599_4924" stdDeviation="16.68"/></filter><clipPath id="a"><rect width="586" height="482" fill="#fff" rx="32"/></clipPath><clipPath id="d"><rect width="308" height="118" x="78" y="125" fill="#fff" rx="20.017"/></clipPath><clipPath id="f"><rect width="298" height="157" x="83" y="76" fill="#fff" rx="24"/></clipPath><clipPath id="k"><rect width="300" height="257" x="203" y="150" fill="#fff" rx="24"/></clipPath><clipPath id="l"><path fill="#fff" d="M178.092 209.505H527.91v235.606H178.092z"/></clipPath><linearGradient id="i" x1="83" x2="165.516" y1="232.992" y2="55.033" gradientUnits="userSpaceOnUse"><stop stop-color="#F7F9FC"/><stop offset="0" stop-color="#F2F3F8"/><stop offset="1" stop-color="#FCFCFC"/></linearGradient><linearGradient id="m" x1="203" x2="373.139" y1="406.987" y2="181.324" gradientUnits="userSpaceOnUse"><stop stop-color="#F7F9FC"/><stop offset="0" stop-color="#F2F3F8"/><stop offset="1" stop-color="#FCFCFC"/></linearGradient></defs></svg>