<svg xmlns="http://www.w3.org/2000/svg" width="654" height="530" fill="none"><rect width="586" height="482" x="34" y="24" fill="#fff" rx="32"/><g filter="url(#a)"><path fill="#2D5DFB" fill-opacity=".16" d="M327 396c72.349 0 131-58.651 131-131 0-72.349-58.651-131-131-131-72.349 0-131 58.651-131 131 0 72.349 58.651 131 131 131z"/></g><g filter="url(#b)" opacity=".04"><rect width="256" height="192" x="102" y="169" fill="#182743" rx="20.017"/></g><rect width="245.198" height="250.012" x="107.67" y="100.509" fill="#fff" rx="23.5"/><path fill="#020710" d="m133.777 142.016-4.3-14.46h2.04l2.64 8.84c.2.76.4 1.52.6 2.62.24-1.16.46-1.86.68-2.62l2.74-8.84h2.12l2.72 8.84c.24.78.44 1.54.66 2.62.24-1.22.44-1.96.64-2.6l2.66-8.86h2l-4.36 14.46h-1.88l-3.5-11.44-3.54 11.44h-1.92zm19.808.24c-2.88 0-4.86-2.08-4.86-5.12 0-3.06 1.94-5.18 4.78-5.18 2.78 0 4.6 1.92 4.6 4.82v.7l-7.56.02c.14 2.06 1.22 3.2 3.08 3.2 1.46 0 2.42-.6 2.74-1.72h1.76c-.48 2.1-2.12 3.28-4.54 3.28zm-.08-8.72c-1.64 0-2.68.98-2.92 2.7h5.64c0-1.62-1.06-2.7-2.72-2.7zm10.92 8.72c-2.88 0-4.86-2.08-4.86-5.12 0-3.06 1.94-5.18 4.78-5.18 2.78 0 4.6 1.92 4.6 4.82v.7l-7.56.02c.14 2.06 1.22 3.2 3.08 3.2 1.46 0 2.42-.6 2.74-1.72h1.76c-.48 2.1-2.12 3.28-4.54 3.28zm-.08-8.72c-1.64 0-2.68.98-2.92 2.7h5.64c0-1.62-1.06-2.7-2.72-2.7zm8.62 8.48h-1.88v-14.72h1.88v9.54l4.34-4.6h2.36l-3.74 3.9 3.72 5.88h-2.16l-2.86-4.52-1.66 1.74v2.78zm10.156 0h-1.88v-14.72h1.88v14.72zm1.827 4.38v-1.54h1.26c.9 0 1.62-.14 2.08-1.38l.34-.94-3.94-10.3h1.98l2.84 7.88 2.9-7.88h1.94l-4.62 11.98c-.66 1.68-1.64 2.38-3.14 2.38-.62 0-1.14-.08-1.64-.2zm17.29-4.38h-2.04l5.28-14.46h2.18l5.3 14.46h-2.06l-1.3-3.6h-6.08l-1.28 3.6zm4.08-11.34-2.2 6.04h4.9l-2.22-6.04c-.1-.28-.2-.62-.24-.84-.04.2-.14.54-.24.84zm7.231 6.46c0-3.06 1.94-5.18 4.8-5.18 2.46 0 4.18 1.4 4.52 3.58h-1.88c-.32-1.24-1.32-1.9-2.58-1.9-1.78 0-3 1.36-3 3.48 0 2.1 1.14 3.46 2.92 3.46 1.34 0 2.34-.7 2.68-1.86h1.88c-.38 2.12-2.2 3.54-4.56 3.54-2.88 0-4.78-2.04-4.78-5.12zm14.084 4.88h-1.88v-8.2h-1.92v-1.58h1.92v-3.06h1.88v3.06h1.92v1.58h-1.92v8.2zm4.527-12.1c-.68 0-1.24-.56-1.24-1.24 0-.7.56-1.24 1.24-1.24.68 0 1.24.54 1.24 1.24 0 .68-.56 1.24-1.24 1.24zm-.92 12.1v-9.78h1.88v9.78h-1.88zm7.349 0-3.94-9.78h2l2.14 5.46c.34.92.62 1.74.78 2.34.16-.64.48-1.48.82-2.34l2.18-5.46h1.96l-4.08 9.78h-1.86zm8.356-12.1c-.68 0-1.24-.56-1.24-1.24 0-.7.56-1.24 1.24-1.24.68 0 1.24.54 1.24 1.24 0 .68-.56 1.24-1.24 1.24zm-.92 12.1v-9.78h1.88v9.78h-1.88zm7.369 0h-1.88v-8.2h-1.92v-1.58h1.92v-3.06h1.88v3.06h1.92v1.58h-1.92v8.2zm2.668 4.38v-1.54h1.26c.9 0 1.62-.14 2.08-1.38l.34-.94-3.94-10.3h1.98l2.84 7.88 2.9-7.88h1.94l-4.62 11.98c-.66 1.68-1.64 2.38-3.14 2.38-.62 0-1.14-.08-1.64-.2z"/><path fill="#7A8089" d="M129.837 154.728h1.642v-1.642h.842v1.642h1.642v.842h-1.642v1.65h-.842v-1.65h-1.642v-.842zm9.351 3.194-4.184.008v-.792l1.973-1.667c.817-.693 1.089-1.089 1.089-1.667 0-.685-.371-1.073-1.007-1.073-.66 0-1.073.462-1.081 1.238h-1.048c.008-1.32.85-2.179 2.129-2.179 1.288 0 2.088.735 2.088 1.956 0 .842-.462 1.477-1.378 2.261l-1.089.933h2.508v.982zm.651-2.996c0-1.873 1.007-3.144 2.55-3.144s2.558 1.271 2.558 3.144c0 1.865-.957 3.111-2.558 3.111s-2.55-1.246-2.55-3.111zm1.04 0c0 1.395.561 2.179 1.51 2.179.957 0 1.519-.784 1.519-2.179 0-1.427-.562-2.211-1.519-2.211-.949 0-1.51.784-1.51 2.211zm7.857-1.559c0 .932-.66 1.584-1.576 1.584s-1.577-.652-1.577-1.584c0-.925.661-1.585 1.577-1.585.916 0 1.576.66 1.576 1.585zm3.309-1.461-4.58 6.024h-1.007l4.58-6.024h1.007zm-4.11 1.461c0-.479-.313-.809-.775-.809s-.768.33-.768.809c0 .478.314.808.768.808.462 0 .775-.33.775-.808zm4.993 3.086c0 .924-.652 1.584-1.568 1.584-.924 0-1.576-.66-1.576-1.584s.652-1.584 1.576-1.584c.916 0 1.568.66 1.568 1.584zm-.8 0c0-.479-.314-.809-.768-.809-.462 0-.776.33-.776.809 0 .479.314.809.776.809.454 0 .768-.33.768-.809zm3.642-.536c0-1.263.801-2.138 1.981-2.138 1.015 0 1.725.578 1.865 1.477h-.776c-.132-.511-.544-.784-1.064-.784-.735 0-1.238.562-1.238 1.436 0 .867.47 1.428 1.205 1.428.553 0 .965-.289 1.106-.767h.775c-.156.874-.907 1.46-1.881 1.46-1.189 0-1.973-.842-1.973-2.112zm4.409-.009c0-1.246.891-2.121 2.104-2.121 1.205 0 2.096.875 2.096 2.121s-.891 2.121-2.096 2.121c-1.213 0-2.104-.875-2.104-2.121zm.784 0c0 .842.536 1.428 1.32 1.428.776 0 1.321-.586 1.321-1.428 0-.841-.545-1.427-1.321-1.427-.784 0-1.32.586-1.32 1.427zm5.051 2.022h-.776v-4.035h.693l.074.528c.207-.38.636-.644 1.205-.644.628 0 1.073.314 1.279.817.19-.503.677-.817 1.304-.817.925 0 1.486.578 1.486 1.51v2.641h-.759v-2.451c0-.635-.355-.998-.9-.998-.586 0-.974.412-.974 1.056v2.393h-.767v-2.459c0-.635-.347-.982-.891-.982-.586 0-.974.404-.974 1.048v2.393zm6.34 1.807v-5.842h.702l.057.726c.273-.553.817-.842 1.461-.842 1.155 0 1.873.867 1.873 2.105 0 1.229-.676 2.153-1.873 2.153-.644 0-1.18-.272-1.444-.767v2.467h-.776zm.784-3.82c0 .825.479 1.419 1.271 1.419.792 0 1.263-.594 1.263-1.419 0-.834-.471-1.428-1.263-1.428-.792 0-1.271.586-1.271 1.428zm5.344 2.112c-.866 0-1.378-.487-1.378-1.221 0-.743.553-1.205 1.502-1.279l1.271-.099v-.116c0-.677-.404-.916-.949-.916-.652 0-1.023.289-1.023.776h-.677c0-.842.693-1.395 1.733-1.395.999 0 1.675.528 1.675 1.618v2.533h-.66l-.082-.652c-.207.462-.76.751-1.412.751zm.223-.602c.735 0 1.18-.479 1.18-1.238v-.215l-1.031.083c-.685.066-.966.33-.966.726 0 .429.314.644.817.644zm5.316-3.565v.709h-.346c-.735 0-1.189.446-1.189 1.222v2.137h-.775v-4.027h.726l.049.611c.165-.421.57-.702 1.123-.702.14 0 .256.017.412.05zm2.324 4.167c-1.188 0-2.005-.858-2.005-2.112 0-1.263.8-2.138 1.972-2.138 1.147 0 1.898.792 1.898 1.989v.289l-3.119.008c.058.85.503 1.321 1.271 1.321.602 0 .998-.248 1.13-.71h.726c-.198.866-.874 1.353-1.873 1.353zm-.033-3.598c-.677 0-1.106.405-1.205 1.114h2.327c0-.668-.437-1.114-1.122-1.114zm4.382 3.598c-1.172 0-1.881-.875-1.881-2.104 0-1.238.718-2.146 1.914-2.146.619 0 1.139.273 1.411.768v-2.691h.768v6.074h-.693l-.066-.734c-.265.553-.809.833-1.453.833zm.157-.701c.792 0 1.279-.586 1.279-1.428 0-.825-.487-1.419-1.279-1.419-.792 0-1.254.594-1.254 1.419 0 .834.462 1.428 1.254 1.428zm6.569.602h-.775v-3.383h-.793v-.652h.793v-1.263h.775v1.263h.792v.652h-.792v3.383zm1.184-2.022c0-1.246.892-2.121 2.105-2.121 1.205 0 2.096.875 2.096 2.121s-.891 2.121-2.096 2.121c-1.213 0-2.105-.875-2.105-2.121zm.784 0c0 .842.537 1.428 1.321 1.428.775 0 1.32-.586 1.32-1.428 0-.841-.545-1.427-1.32-1.427-.784 0-1.321.586-1.321 1.427zm7.324 2.022h-.775v-6.074h.775v6.074zm2.322.099c-.866 0-1.378-.487-1.378-1.221 0-.743.553-1.205 1.502-1.279l1.271-.099v-.116c0-.677-.404-.916-.949-.916-.652 0-1.023.289-1.023.776h-.677c0-.842.693-1.395 1.733-1.395.998 0 1.675.528 1.675 1.618v2.533h-.66l-.083-.652c-.206.462-.759.751-1.411.751zm.223-.602c.735 0 1.18-.479 1.18-1.238v-.215l-1.031.083c-.685.066-.966.33-.966.726 0 .429.314.644.817.644zm2.675-.669h.743c0 .413.314.661.825.661.545 0 .859-.223.859-.595 0-.272-.132-.437-.553-.544l-.71-.165c-.718-.174-1.056-.529-1.056-1.123 0-.742.627-1.213 1.518-1.213.883 0 1.461.495 1.477 1.263h-.742c-.017-.405-.289-.66-.76-.66-.487 0-.759.214-.759.586 0 .272.198.453.594.552l.71.174c.685.165 1.023.478 1.023 1.081 0 .767-.66 1.254-1.617 1.254-.949 0-1.552-.503-1.552-1.271zm5.168 1.172h-.775v-3.383h-.793v-.652h.793v-1.263h.775v1.263h.793v.652h-.793v3.383zm4.612 0-1.321-4.035h.801l.668 2.096c.091.297.174.602.248.957.066-.355.173-.693.264-.957l.677-2.096h.792l.668 2.096c.066.198.199.668.265.957.066-.322.14-.602.255-.957l.677-2.096h.809l-1.378 4.035h-.735l-.701-2.162a7.692 7.692 0 0 1-.256-.941c-.041.198-.116.462-.264.949l-.702 2.154h-.767zm7.024.099c-1.189 0-2.006-.858-2.006-2.112 0-1.263.801-2.138 1.973-2.138 1.147 0 1.898.792 1.898 1.989v.289l-3.12.008c.058.85.504 1.321 1.271 1.321.603 0 .999-.248 1.131-.71h.726c-.198.866-.875 1.353-1.873 1.353zm-.033-3.598c-.677 0-1.106.405-1.205 1.114h2.327c0-.668-.437-1.114-1.122-1.114zm4.505 3.598c-1.188 0-2.005-.858-2.005-2.112 0-1.263.801-2.138 1.972-2.138 1.148 0 1.899.792 1.899 1.989v.289l-3.12.008c.058.85.503 1.321 1.271 1.321.602 0 .999-.248 1.131-.71h.726c-.198.866-.875 1.353-1.874 1.353zm-.033-3.598c-.676 0-1.105.405-1.204 1.114h2.327c0-.668-.438-1.114-1.123-1.114zm3.557 3.499h-.776v-6.074h.776v3.937l1.791-1.898h.974l-1.543 1.609 1.535 2.426h-.892l-1.18-1.865-.685.718v1.147z"/><g clip-path="url(#c)"><path fill="#F7F9FC" d="M129.177 228.301h20.631v74.96h-20.631v-74.96z"/></g><g clip-path="url(#d)"><path fill="#F7F9FC" d="M159.436 274.377h20.631v28.884h-20.631v-28.884z"/></g><g clip-path="url(#e)"><path fill="#F7F9FC" d="M189.694 244.806h20.631v58.455h-20.631v-58.455z"/></g><g clip-path="url(#f)"><path fill="#2F43FB" d="M219.954 195.292h20.631v107.969h-20.631V195.292z"/></g><g clip-path="url(#g)"><path fill="#F7F9FC" d="M250.213 217.298h20.631v85.963h-20.631v-85.963z"/></g><g clip-path="url(#h)"><path fill="#F7F9FC" d="M280.472 268.876h20.631v34.385h-20.631v-34.385z"/></g><g clip-path="url(#i)"><path fill="#F7F9FC" d="M310.73 204.231h20.632v99.03H310.73v-99.03z"/></g><path fill="#2F43FB" fill-rule="evenodd" d="M217.892 169.4a5.502 5.502 0 0 0-5.501 5.502v8.736a5.501 5.501 0 0 0 5.501 5.502h7.796c1.155 0 2.061 1.106 2.899 1.901l.839.796a1.274 1.274 0 0 0 1.755 0l.839-.796c.838-.795 1.744-1.901 2.899-1.901h8.418a5.502 5.502 0 0 0 5.502-5.502v-8.736a5.502 5.502 0 0 0-5.502-5.502h-25.445z" clip-rule="evenodd"/><path fill="#fff" d="M219.18 176.982h-1.046v-.605h1.692v4.972h-.646v-4.367zm4.891 4.36-3.356.007v-.516l1.602-1.382c.805-.695 1.032-1.032 1.032-1.561 0-.626-.358-.997-.956-.997-.612 0-1.011.447-1.025 1.155h-.674c.021-1.066.695-1.76 1.706-1.76.997 0 1.637.605 1.637 1.561 0 .708-.351 1.21-1.231 1.973l-1.032.894h2.297v.626zm2.26-4.346v-.619h3.665v.619h-1.492v4.353h-.674v-4.353h-1.499zm4.672 4.436c-.722 0-1.148-.406-1.148-1.018 0-.619.461-1.004 1.252-1.066l1.059-.083v-.096c0-.564-.337-.763-.791-.763-.544 0-.853.24-.853.646h-.564c0-.701.578-1.162 1.444-1.162.832 0 1.396.44 1.396 1.348v2.111h-.55l-.069-.543c-.172.385-.632.626-1.176.626zm.186-.502c.612 0 .983-.399.983-1.032v-.179l-.859.069c-.571.055-.805.275-.805.605 0 .358.262.537.681.537zm2.229-.557h.619c0 .343.262.55.688.55.454 0 .715-.186.715-.495 0-.227-.11-.365-.46-.454l-.592-.138c-.598-.144-.88-.44-.88-.935 0-.619.522-1.011 1.265-1.011.736 0 1.217.413 1.231 1.052h-.619c-.013-.337-.24-.55-.632-.55-.406 0-.633.179-.633.488 0 .227.165.378.495.461l.591.144c.571.138.853.399.853.901 0 .64-.55 1.046-1.348 1.046-.791 0-1.293-.42-1.293-1.059zm4.018.976h-.646v-5.061h.646v3.28l1.493-1.582h.811l-1.286 1.341 1.279 2.022h-.742l-.984-1.554-.571.598v.956zm2.577-.976h.619c0 .343.262.55.688.55.454 0 .715-.186.715-.495 0-.227-.11-.365-.46-.454l-.592-.138c-.598-.144-.88-.44-.88-.935 0-.619.522-1.011 1.265-1.011.736 0 1.217.413 1.231 1.052h-.619c-.014-.337-.24-.55-.632-.55-.406 0-.633.179-.633.488 0 .227.165.378.495.461l.591.144c.571.138.853.399.853.901 0 .64-.55 1.046-1.348 1.046-.791 0-1.293-.42-1.293-1.059z"/><path fill="#7A8089" d="M135.84 320.013h1.012l2.38 5.812h.082l2.379-5.812h1.012v7.002h-.793v-5.32h-.068l-2.188 5.32h-.766l-2.188-5.32h-.069v5.32h-.793v-7.002zm30.876.752v-.752h5.252v.752h-2.202v6.25h-.848v-6.25h-2.202zm30.414 6.25-1.915-7.002h.861l1.464 5.703h.068l1.491-5.703h.957l1.491 5.703h.068l1.464-5.703h.861l-1.914 7.002h-.876l-1.545-5.58h-.055l-1.545 5.58h-.875zm30.105-6.25v-.752h5.251v.752h-2.202v6.25h-.848v-6.25h-2.201zm31.141 6.25v-7.002h4.199v.752h-3.351v2.366h3.036v.752h-3.036v3.132h-.848zm33.588-5.251a1.07 1.07 0 0 0-.499-.807c-.292-.192-.649-.288-1.073-.288-.31 0-.582.051-.814.151-.23.1-.41.238-.54.414a.989.989 0 0 0-.192.598c0 .187.045.348.134.482.091.132.207.243.348.332.142.086.29.158.445.215.155.055.297.099.427.133l.711.192c.183.048.385.114.609.198.225.085.441.2.646.345.207.144.378.329.513.554.134.226.202.503.202.831 0 .379-.1.72-.298 1.026-.196.305-.483.548-.861.728-.377.18-.834.27-1.371.27-.502 0-.936-.081-1.303-.243a2.072 2.072 0 0 1-.862-.676 1.935 1.935 0 0 1-.352-1.009h.875c.023.264.112.483.267.656.157.171.356.299.595.383.242.082.501.123.78.123.323 0 .614-.052.871-.157a1.49 1.49 0 0 0 .612-.444c.151-.192.226-.415.226-.67a.822.822 0 0 0-.195-.568 1.44 1.44 0 0 0-.513-.356 5.364 5.364 0 0 0-.687-.239l-.862-.246c-.547-.157-.98-.382-1.299-.674-.319-.291-.478-.673-.478-1.145a1.7 1.7 0 0 1 .318-1.026c.214-.294.501-.522.861-.684a2.913 2.913 0 0 1 1.214-.246c.451 0 .852.081 1.203.243.351.16.629.378.835.657.207.278.316.593.328.947h-.821zm30.259 0a1.07 1.07 0 0 0-.499-.807c-.292-.192-.65-.288-1.074-.288-.31 0-.581.051-.813.151-.231.1-.411.238-.541.414a.994.994 0 0 0-.191.598c0 .187.044.348.133.482.091.132.208.243.349.332.141.086.29.158.445.215.154.055.297.099.427.133l.711.192c.182.048.385.114.609.198.225.085.441.2.646.345.207.144.378.329.513.554.134.226.201.503.201.831 0 .379-.099.72-.297 1.026-.196.305-.483.548-.862.728-.376.18-.833.27-1.371.27-.501 0-.935-.081-1.302-.243a2.072 2.072 0 0 1-.862-.676 1.935 1.935 0 0 1-.352-1.009h.875c.023.264.112.483.267.656.157.171.355.299.595.383.241.082.501.123.779.123.324 0 .615-.052.872-.157a1.49 1.49 0 0 0 .612-.444c.151-.192.226-.415.226-.67a.822.822 0 0 0-.195-.568 1.44 1.44 0 0 0-.513-.356 5.364 5.364 0 0 0-.687-.239l-.862-.246c-.547-.157-.98-.382-1.299-.674-.319-.291-.479-.673-.479-1.145a1.7 1.7 0 0 1 .318-1.026c.215-.294.502-.522.862-.684a2.91 2.91 0 0 1 1.214-.246c.451 0 .852.081 1.203.243.351.16.629.378.834.657.208.278.317.593.329.947h-.821z"/><rect width="245.198" height="250.012" x="107.67" y="100.509" stroke="url(#j)" rx="23.5"/><g filter="url(#k)" opacity=".04"><rect width="260" height="181" x="291" y="259" fill="#182743" rx="20.017"/></g><g filter="url(#l)" opacity=".04"><rect width="73" height="182" x="280" y="169" fill="#182743" rx="20.017"/></g><rect width="247.949" height="250.012" x="296.993" y="179.595" fill="#fff" rx="23.5"/><path fill="#020710" d="M323.62 213.622h-1.44v-1.3l4.1-3.94h-6.5v-1.74h8.98v1.58l-3.96 3.78c2.46.3 4.32 1.96 4.32 4.56 0 2.92-2.2 4.78-5.14 4.78-2.84 0-4.88-1.74-4.88-4.74h1.94c0 1.88 1.16 2.98 2.98 2.98 1.88 0 3.1-1.2 3.1-3.06 0-1.74-1.2-2.9-3.5-2.9zm16.615 7.46-9.76.02v-1.5l4.66-4.02c2.34-2.02 3-3 3-4.54 0-1.82-1.04-2.9-2.78-2.9-1.78 0-2.94 1.3-2.98 3.36h-1.96c.06-3.1 2.02-5.12 4.96-5.12 2.9 0 4.76 1.76 4.76 4.54 0 2.06-1.02 3.52-3.58 5.74l-3 2.6h6.68v1.82zm6.572-12.64v-1.8h10.66v1.8h-4.34v12.66h-1.96v-12.66h-4.36zm13.589 12.9c-2.1 0-3.34-1.18-3.34-2.96 0-1.8 1.34-2.92 3.64-3.1l3.08-.24v-.28c0-1.64-.98-2.22-2.3-2.22-1.58 0-2.48.7-2.48 1.88h-1.64c0-2.04 1.68-3.38 4.2-3.38 2.42 0 4.06 1.28 4.06 3.92v6.14h-1.6l-.2-1.58c-.5 1.12-1.84 1.82-3.42 1.82zm.54-1.46c1.78 0 2.86-1.16 2.86-3v-.52l-2.5.2c-1.66.16-2.34.8-2.34 1.76 0 1.04.76 1.56 1.98 1.56zm6.483-1.62h1.8c0 1 .76 1.6 2 1.6 1.32 0 2.08-.54 2.08-1.44 0-.66-.32-1.06-1.34-1.32l-1.72-.4c-1.74-.42-2.56-1.28-2.56-2.72 0-1.8 1.52-2.94 3.68-2.94 2.14 0 3.54 1.2 3.58 3.06h-1.8c-.04-.98-.7-1.6-1.84-1.6-1.18 0-1.84.52-1.84 1.42 0 .66.48 1.1 1.44 1.34l1.72.42c1.66.4 2.48 1.16 2.48 2.62 0 1.86-1.6 3.04-3.92 3.04-2.3 0-3.76-1.22-3.76-3.08zm11.685 2.84h-1.88v-14.72h1.88v9.54l4.34-4.6h2.36l-3.74 3.9 3.72 5.88h-2.16l-2.86-4.52-1.66 1.74v2.78zm7.495-2.84h1.8c0 1 .76 1.6 2 1.6 1.32 0 2.08-.54 2.08-1.44 0-.66-.32-1.06-1.34-1.32l-1.72-.4c-1.74-.42-2.56-1.28-2.56-2.72 0-1.8 1.52-2.94 3.68-2.94 2.14 0 3.54 1.2 3.58 3.06h-1.8c-.04-.98-.7-1.6-1.84-1.6-1.18 0-1.84.52-1.84 1.42 0 .66.48 1.1 1.44 1.34l1.72.42c1.66.4 2.48 1.16 2.48 2.62 0 1.86-1.6 3.04-3.92 3.04-2.3 0-3.76-1.22-3.76-3.08z"/><path fill="#7A8089" d="M321.669 237.107c-1.7 0-2.831-1.221-2.831-3.07 0-1.84 1.164-3.086 2.872-3.086 1.345 0 2.377.8 2.6 2.021h-.867c-.223-.775-.891-1.246-1.758-1.246-1.204 0-1.997.908-1.997 2.303 0 1.394.793 2.302 1.997 2.302.875 0 1.568-.47 1.791-1.205h.858c-.255 1.189-1.32 1.981-2.665 1.981zm3.261-2.113c0-1.246.891-2.121 2.104-2.121 1.205 0 2.097.875 2.097 2.121s-.892 2.121-2.097 2.121c-1.213 0-2.104-.875-2.104-2.121zm.784 0c0 .842.536 1.428 1.32 1.428.776 0 1.321-.586 1.321-1.428 0-.841-.545-1.427-1.321-1.427-.784 0-1.32.586-1.32 1.427zm5.051 2.022h-.776v-4.035h.693l.075.528c.206-.38.635-.644 1.205-.644.627 0 1.072.314 1.279.817.19-.503.676-.817 1.304-.817.924 0 1.485.578 1.485 1.51v2.641h-.759v-2.451c0-.635-.355-.998-.9-.998-.586 0-.974.412-.974 1.056v2.393h-.767v-2.459c0-.636-.347-.982-.891-.982-.586 0-.974.404-.974 1.048v2.393zm6.34 1.807v-5.842h.702l.058.726c.272-.553.817-.842 1.46-.842 1.156 0 1.874.867 1.874 2.105 0 1.229-.677 2.153-1.874 2.153-.643 0-1.18-.272-1.444-.767v2.467h-.776zm.784-3.82c0 .825.479 1.419 1.271 1.419.792 0 1.263-.594 1.263-1.419 0-.834-.471-1.428-1.263-1.428-.792 0-1.271.586-1.271 1.428zm4.957 2.013h-.776v-6.074h.776v6.074zm2.883.099c-1.188 0-2.005-.858-2.005-2.112 0-1.263.8-2.138 1.972-2.138 1.147 0 1.898.792 1.898 1.989v.289l-3.119.008c.057.85.503 1.32 1.271 1.32.602 0 .998-.247 1.13-.709h.726c-.198.866-.874 1.353-1.873 1.353zm-.033-3.598c-.677 0-1.106.404-1.205 1.114h2.327c0-.668-.437-1.114-1.122-1.114zm3.863 3.499h-.776v-3.383h-.792v-.652h.792v-1.263h.776v1.263h.792v.652h-.792v3.383zm3.189.099c-1.188 0-2.005-.858-2.005-2.112 0-1.263.801-2.138 1.972-2.138 1.148 0 1.899.792 1.899 1.989v.289l-3.12.008c.058.85.503 1.32 1.271 1.32.602 0 .999-.247 1.131-.709h.726c-.198.866-.875 1.353-1.874 1.353zm-.033-3.598c-.676 0-1.105.404-1.204 1.114h2.327c0-.668-.438-1.114-1.123-1.114zm4.382 3.598c-1.171 0-1.881-.875-1.881-2.104 0-1.238.718-2.146 1.914-2.146.619 0 1.139.272 1.412.768v-2.691h.767v6.074h-.693l-.066-.734c-.264.553-.809.833-1.453.833zm.157-.701c.792 0 1.279-.586 1.279-1.428 0-.825-.487-1.419-1.279-1.419-.792 0-1.254.594-1.254 1.419 0 .834.462 1.428 1.254 1.428zm5.81-4.391a.514.514 0 0 1-.511-.511c0-.289.231-.512.511-.512a.51.51 0 0 1 .512.512c0 .28-.231.511-.512.511zm-.379 4.993v-4.035h.775v4.035h-.775zm2.677 0h-.775v-4.035h.701l.083.619c.255-.463.767-.735 1.337-.735 1.064 0 1.551.652 1.551 1.684v2.467h-.776v-2.294c0-.817-.379-1.147-.973-1.147-.727 0-1.148.52-1.148 1.304v2.137zm7.152 0h-.792v-5.966h.792l2.055 5.017 2.055-5.017h.809v5.966h-.793v-2.36c0-1.114.009-1.519.05-1.939l-1.741 4.299h-.759l-1.734-4.283c.042.289.058.9.058 1.733v2.55zm7.356.099c-.866 0-1.378-.487-1.378-1.221 0-.743.553-1.205 1.502-1.279l1.271-.099v-.116c0-.677-.405-.916-.949-.916-.652 0-1.024.289-1.024.776h-.676c0-.842.693-1.395 1.733-1.395.998 0 1.675.528 1.675 1.618v2.533h-.66l-.083-.652c-.206.462-.759.751-1.411.751zm.223-.602c.734 0 1.18-.479 1.18-1.238v-.215l-1.032.083c-.684.066-.965.33-.965.726 0 .429.314.644.817.644zm2.521 2.31v-.635h.52c.371 0 .668-.058.858-.569l.14-.388-1.626-4.25h.817l1.172 3.251 1.197-3.251h.8l-1.906 4.943c-.272.693-.677.982-1.296.982-.255 0-.47-.033-.676-.083z"/><path stroke="#7A8089" stroke-linecap="round" stroke-linejoin="round" stroke-width="1.375" d="M505.47 212.449h.009m6.61 0h.01m6.609 0h.01m-12.302 0a.947.947 0 1 1-1.893-.001.947.947 0 0 1 1.893.001zm6.619 0a.947.947 0 1 1-1.893-.001.947.947 0 0 1 1.893.001zm6.619 0a.946.946 0 1 1-1.892 0 .946.946 0 0 1 1.892 0z" opacity=".24"/><path stroke="#F2F3F8" stroke-linecap="round" stroke-width=".688" d="M318.844 271.97h201.497m-201.497 27.508h201.497m-201.497 27.509h201.497m-201.497 27.508h201.497m-201.497 27.508h201.497"/><path fill="#7A8089" d="M320.663 399.099h1.012l2.38 5.812h.082l2.38-5.812h1.012v7.002h-.794v-5.32h-.068l-2.188 5.32h-.766l-2.188-5.32h-.068v5.32h-.794v-7.002zm10.002 7.125c-.333 0-.635-.063-.906-.188a1.552 1.552 0 0 1-.646-.551c-.16-.241-.24-.533-.24-.875 0-.301.059-.545.178-.732.118-.189.277-.337.475-.444.199-.107.417-.187.657-.24.241-.054.484-.098.728-.129.319-.042.578-.072.776-.093.201-.023.346-.06.438-.113.093-.052.14-.143.14-.273v-.027c0-.338-.092-.6-.277-.787-.182-.187-.459-.28-.831-.28-.385 0-.687.084-.906.253a1.494 1.494 0 0 0-.462.54l-.765-.274c.136-.319.319-.567.547-.745.23-.18.481-.305.752-.376.273-.073.542-.109.807-.109.168 0 .362.02.581.061.221.039.434.12.639.243.208.123.38.309.517.557.136.249.205.581.205.999v3.46h-.807v-.712h-.041a1.423 1.423 0 0 1-.274.366c-.127.13-.297.241-.509.332a1.967 1.967 0 0 1-.776.137zm.123-.725c.319 0 .588-.063.807-.188a1.283 1.283 0 0 0 .67-1.111v-.739c-.034.041-.11.079-.226.113-.114.032-.246.06-.396.085a16.24 16.24 0 0 1-.773.103c-.21.027-.406.072-.588.133-.18.06-.326.15-.438.27-.109.119-.164.281-.164.486 0 .28.104.492.311.636.21.141.475.212.797.212zm3.756.602v-5.252h.78v.793h.055c.095-.26.269-.47.519-.632a1.53 1.53 0 0 1 .848-.243l.222.003c.089.003.157.006.202.011v.82a2.402 2.402 0 0 0-.188-.031 1.845 1.845 0 0 0-.304-.024c-.255 0-.483.054-.684.161a1.176 1.176 0 0 0-.643 1.07v3.324h-.807zm32.795 0h-.889l2.571-7.002h.876l2.571 7.002h-.889l-2.093-5.895h-.054l-2.093 5.895zm.328-2.736h3.584v.753h-3.584v-.753zm5.782 4.705v-7.221h.779v.834h.096c.059-.091.142-.207.246-.348.107-.144.26-.272.459-.383.2-.114.471-.171.813-.171.442 0 .832.11 1.17.331.337.221.6.535.789.941.189.405.284.884.284 1.435 0 .557-.095 1.039-.284 1.447-.189.405-.451.72-.786.943a2.056 2.056 0 0 1-1.159.332c-.337 0-.608-.056-.81-.168a1.504 1.504 0 0 1-.469-.386 5.448 5.448 0 0 1-.253-.362h-.068v2.776h-.807zm.793-4.595c0 .396.058.746.175 1.049.116.301.286.537.509.708.223.169.497.253.82.253.338 0 .619-.089.845-.267.228-.18.399-.421.513-.724.116-.306.174-.645.174-1.019a2.77 2.77 0 0 0-.171-.999 1.536 1.536 0 0 0-.509-.707c-.226-.176-.51-.264-.852-.264-.328 0-.604.084-.827.25a1.498 1.498 0 0 0-.506.691 2.837 2.837 0 0 0-.171 1.029zm5.074 2.626v-5.252h.779v.793h.055c.096-.26.269-.47.52-.632.251-.162.533-.243.848-.243l.222.003c.089.003.156.006.202.011v.82a2.495 2.495 0 0 0-.188-.031 1.858 1.858 0 0 0-.305-.024c-.255 0-.483.054-.683.161a1.176 1.176 0 0 0-.643 1.07v3.324h-.807zm31.125-7.002h1.012l2.379 5.812h.082l2.38-5.812h1.012v7.002h-.793v-5.32h-.069l-2.188 5.32h-.766l-2.188-5.32h-.068v5.32h-.793v-7.002zm10.001 7.125c-.333 0-.635-.063-.906-.188a1.559 1.559 0 0 1-.646-.551c-.16-.241-.239-.533-.239-.875 0-.301.059-.545.177-.732.119-.189.277-.337.476-.444.198-.107.417-.187.656-.24.242-.054.484-.098.728-.129.319-.042.578-.072.776-.093.201-.023.347-.06.438-.113.093-.052.14-.143.14-.273v-.027c0-.338-.092-.6-.277-.787-.182-.187-.459-.28-.831-.28-.385 0-.687.084-.906.253a1.5 1.5 0 0 0-.461.54l-.766-.274c.137-.319.319-.567.547-.745.23-.18.481-.305.752-.376.274-.073.543-.109.807-.109.169 0 .362.02.581.061.221.039.434.12.64.243.207.123.379.309.516.557.137.249.205.581.205.999v3.46h-.807v-.712h-.041a1.44 1.44 0 0 1-.273.366c-.128.13-.298.241-.51.332-.212.091-.47.137-.776.137zm.123-.725c.319 0 .588-.063.807-.188a1.276 1.276 0 0 0 .67-1.111v-.739c-.034.041-.109.079-.225.113-.114.032-.247.06-.397.085a16.177 16.177 0 0 1-.773.103 3.102 3.102 0 0 0-.588.133c-.18.06-.326.15-.437.27-.11.119-.165.281-.165.486 0 .28.104.492.312.636.209.141.475.212.796.212zm4.088 2.571a1.75 1.75 0 0 1-.588-.096l.205-.711c.197.05.37.068.52.055a.622.622 0 0 0 .4-.202c.119-.118.227-.311.325-.578l.15-.41-1.942-5.279h.876l1.449 4.185h.055l1.45-4.185h.875l-2.229 6.017a2.27 2.27 0 0 1-.373.674 1.4 1.4 0 0 1-.516.4c-.194.087-.413.13-.657.13zm35.357-8.971h.848v5.005c0 .447-.082.826-.246 1.138a1.68 1.68 0 0 1-.694.712c-.299.161-.651.242-1.057.242-.383 0-.724-.069-1.022-.208a1.69 1.69 0 0 1-.705-.602 1.656 1.656 0 0 1-.256-.927h.834a.92.92 0 0 0 .147.52c.101.146.237.26.411.342.173.082.37.123.591.123.244 0 .451-.051.622-.154a.972.972 0 0 0 .39-.451c.091-.201.137-.446.137-.735v-5.005zm5.747 4.854v-3.104h.807v5.252h-.807v-.889h-.055a1.724 1.724 0 0 1-.574.68c-.26.185-.588.277-.985.277a1.76 1.76 0 0 1-.875-.215 1.511 1.511 0 0 1-.602-.657c-.145-.294-.218-.664-.218-1.111v-3.337h.806v3.282c0 .383.108.689.322.917.216.227.492.341.827.341.201 0 .405-.051.612-.153.21-.103.385-.26.527-.472.143-.212.215-.482.215-.811zm3.092-1.012v3.16h-.807v-5.252h.779v.821h.069c.123-.267.31-.481.561-.643.25-.164.574-.246.971-.246.355 0 .666.073.933.218.267.144.474.363.622.657.148.292.222.661.222 1.108v3.337h-.806v-3.283c0-.412-.108-.734-.322-.964-.214-.232-.508-.349-.882-.349-.258 0-.488.056-.691.168-.2.112-.359.275-.475.489a1.616 1.616 0 0 0-.174.779zm38.049-3.842h.847v5.005c0 .447-.082.826-.246 1.138-.164.313-.395.55-.694.712-.298.161-.651.242-1.056.242a2.4 2.4 0 0 1-1.023-.208 1.693 1.693 0 0 1-.704-.602 1.648 1.648 0 0 1-.256-.927h.834a.92.92 0 0 0 .147.52c.1.146.237.26.41.342.173.082.371.123.592.123.244 0 .451-.051.622-.154a.972.972 0 0 0 .39-.451c.091-.201.137-.446.137-.735v-5.005zm5.747 4.854v-3.104h.807v5.252h-.807v-.889h-.055a1.724 1.724 0 0 1-.574.68c-.26.185-.588.277-.985.277a1.76 1.76 0 0 1-.875-.215 1.511 1.511 0 0 1-.602-.657c-.146-.294-.219-.664-.219-1.111v-3.337h.807v3.282c0 .383.107.689.322.917.216.227.492.341.827.341.201 0 .405-.051.612-.153.21-.103.385-.26.526-.472.144-.212.216-.482.216-.811zm3.091-4.854v7.002h-.806v-7.002h.806z"/><path stroke="#2F43FB" stroke-linecap="round" stroke-width="2.063" d="M318.5 383.034c14.534-7.229 8.258-42.741 23.726-60.861 8.075-9.46 32.437 23.864 36.792 14.441 56.736-122.755 54.329-8.94 77.711 10.66 23.382 19.599 39.199-21.319 64.988-10.66"/><path fill="#2F43FB" fill-rule="evenodd" d="M407.215 252.371a5.502 5.502 0 0 0-5.502 5.502v8.569a5.501 5.501 0 0 0 5.502 5.501h7.806c1.156 0 2.064 1.111 2.906 1.903l.825.776a1.274 1.274 0 0 0 1.747 0l.824-.776c.843-.792 1.75-1.903 2.907-1.903h8.43a5.501 5.501 0 0 0 5.501-5.501v-8.569a5.501 5.501 0 0 0-5.501-5.502h-25.445z" clip-rule="evenodd"/><path fill="#65FF87" d="m410.863 259.612 3.439 4.814h-6.877l3.438-4.814z"/><path fill="#fff" d="m421.312 265.012-3.358.007v-.516l1.603-1.384c.805-.694 1.033-1.032 1.033-1.561 0-.627-.358-.998-.957-.998-.612 0-1.011.447-1.025 1.156h-.674c.02-1.067.695-1.762 1.706-1.762.998 0 1.638.606 1.638 1.562 0 .709-.351 1.211-1.232 1.975l-1.032.895h2.298v.626zm2.246.089c-1.019 0-1.679-.647-1.679-1.637h.667c0 .639.392 1.032 1.025 1.032.675 0 1.108-.448 1.108-1.122 0-.64-.406-1.115-1.101-1.115-.42 0-.805.2-1.032.482l-.571-.144.606-2.553h2.49v.619h-2.002l-.33 1.321c.261-.199.592-.303.963-.303 1.012 0 1.665.709 1.665 1.666 0 1.032-.736 1.754-1.809 1.754zm4.856-3.881c0 .737-.523 1.266-1.259 1.266-.729 0-1.252-.529-1.252-1.266 0-.743.523-1.273 1.252-1.273.736 0 1.259.53 1.259 1.273zm2.622-1.169-3.778 4.968h-.66l3.777-4.968h.661zm-3.152 1.169c0-.447-.296-.756-.729-.756-.427 0-.723.309-.723.756 0 .441.296.75.723.75s.729-.309.729-.75zm3.86 2.622c0 .736-.529 1.266-1.259 1.266-.729 0-1.259-.53-1.259-1.266 0-.743.53-1.266 1.259-1.266.73 0 1.259.523 1.259 1.266zm-.536 0c0-.447-.289-.757-.723-.757-.426 0-.722.31-.722.757 0 .44.296.75.722.75.427 0 .723-.31.723-.75z"/><circle cx="419.938" cy="280.911" r="4.126" fill="#2F43FB" stroke="#fff" stroke-width=".688"/><rect width="247.949" height="250.012" x="296.993" y="179.595" stroke="url(#m)" rx="23.5"/><defs><clipPath id="c"><rect width="20.631" height="74.96" x="129.177" y="228.301" fill="#fff" rx="5.502"/></clipPath><clipPath id="d"><rect width="20.631" height="28.884" x="159.436" y="274.377" fill="#fff" rx="5.502"/></clipPath><clipPath id="e"><rect width="20.631" height="58.455" x="189.694" y="244.806" fill="#fff" rx="5.502"/></clipPath><clipPath id="f"><rect width="20.631" height="107.97" x="219.954" y="195.292" fill="#fff" rx="5.502"/></clipPath><clipPath id="g"><rect width="20.631" height="85.963" x="250.213" y="217.298" fill="#fff" rx="5.502"/></clipPath><clipPath id="h"><rect width="20.631" height="34.385" x="280.472" y="268.876" fill="#fff" rx="5.502"/></clipPath><clipPath id="i"><rect width="20.631" height="99.029" x="310.73" y="204.231" fill="#fff" rx="5.502"/></clipPath><filter id="a" width="654" height="654" x="0" y="-62" color-interpolation-filters="sRGB" filterUnits="userSpaceOnUse"><feFlood flood-opacity="0" result="BackgroundImageFix"/><feBlend in="SourceGraphic" in2="BackgroundImageFix" result="shape"/><feGaussianBlur result="effect1_foregroundBlur_319_8332" stdDeviation="98"/></filter><filter id="b" width="322.722" height="258.722" x="68.639" y="135.639" color-interpolation-filters="sRGB" filterUnits="userSpaceOnUse"><feFlood flood-opacity="0" result="BackgroundImageFix"/><feBlend in="SourceGraphic" in2="BackgroundImageFix" result="shape"/><feGaussianBlur result="effect1_foregroundBlur_319_8332" stdDeviation="16.68"/></filter><filter id="k" width="326.722" height="247.722" x="257.639" y="225.639" color-interpolation-filters="sRGB" filterUnits="userSpaceOnUse"><feFlood flood-opacity="0" result="BackgroundImageFix"/><feBlend in="SourceGraphic" in2="BackgroundImageFix" result="shape"/><feGaussianBlur result="effect1_foregroundBlur_319_8332" stdDeviation="16.68"/></filter><filter id="l" width="139.722" height="248.722" x="246.639" y="135.639" color-interpolation-filters="sRGB" filterUnits="userSpaceOnUse"><feFlood flood-opacity="0" result="BackgroundImageFix"/><feBlend in="SourceGraphic" in2="BackgroundImageFix" result="shape"/><feGaussianBlur result="effect1_foregroundBlur_319_8332" stdDeviation="16.68"/></filter><linearGradient id="j" x1="107.17" x2="279.007" y1="351.009" y2="159.506" gradientUnits="userSpaceOnUse"><stop stop-color="#F7F9FC"/><stop offset="0" stop-color="#F2F3F8"/><stop offset="1" stop-color="#FCFCFC"/></linearGradient><linearGradient id="m" x1="296.493" x2="468.114" y1="430.095" y2="236.696" gradientUnits="userSpaceOnUse"><stop stop-color="#F7F9FC"/><stop offset="0" stop-color="#F2F3F8"/><stop offset="1" stop-color="#FCFCFC"/></linearGradient></defs></svg>