<svg xmlns="http://www.w3.org/2000/svg" viewBox="0 0 24 24" fill="currentColor" aria-hidden="true" data-slot="icon" color="var(--token-db38de21-934a-4874-9ade-ad85fd1126e6, rgb(47, 67, 251))" style="width: 100%; height: 100%;"><path fill-rule="evenodd" d="M3 6a3 3 0 0 1 3-3h2.25a3 3 0 0 1 3 3v2.25a3 3 0 0 1-3 3H6a3 3 0 0 1-3-3V6Zm9.75 0a3 3 0 0 1 3-3H18a3 3 0 0 1 3 3v2.25a3 3 0 0 1-3 3h-2.25a3 3 0 0 1-3-3V6ZM3 15.75a3 3 0 0 1 3-3h2.25a3 3 0 0 1 3 3V18a3 3 0 0 1-3 3H6a3 3 0 0 1-3-3v-2.25Zm9.75 0a3 3 0 0 1 3-3H18a3 3 0 0 1 3 3V18a3 3 0 0 1-3 3h-2.25a3 3 0 0 1-3-3v-2.25Z" clip-rule="evenodd"></path></svg>