<svg xmlns="http://www.w3.org/2000/svg" width="646" height="468" fill="none"><g clip-path="url(#a)"><g clip-path="url(#b)"><path fill="#fff" d="M78.4 46.578h489.2c6.762 0 11.788 0 15.716.426 3.917.425 6.674 1.266 8.924 2.901a17.415 17.415 0 0 1 3.855 3.855c1.635 2.25 2.476 5.007 2.901 8.924.425 3.928.426 8.954.426 15.716v405.256H46.578V78.4c0-6.762 0-11.788.426-15.716.425-3.917 1.266-6.674 2.901-8.924a17.424 17.424 0 0 1 3.855-3.855c2.25-1.635 5.007-2.476 8.924-2.9 3.928-.426 8.954-.427 15.716-.427z"/><path stroke="#7A8089" stroke-linecap="round" stroke-linejoin="round" stroke-width="1.156" d="M78.774 74.874v3.177m-1.588-1.588h3.177m-.794 9.531v3.178m-1.589-1.589h3.177m3.972-12.709 1.816 5.447 4.538 1.702-4.538 1.702-1.816 5.447-1.816-5.447-4.539-1.702 4.54-1.702 1.815-5.447z" opacity=".8"/><path fill="#020710" d="M107.802 84.165h-4.267v4.612h-1.472V77.915h6.55v1.352h-5.078v3.56h4.267v1.338zm3.045-4.477a.936.936 0 0 1-.931-.932c0-.526.42-.931.931-.931.511 0 .932.405.932.931a.937.937 0 0 1-.932.932zm-.691 9.09V81.43h1.412v7.347h-1.412zm4.875 0h-1.412V81.43h1.277l.15 1.127c.466-.841 1.397-1.337 2.434-1.337 1.938 0 2.824 1.187 2.824 3.065v4.492h-1.412v-4.176c0-1.488-.691-2.089-1.773-2.089-1.322 0-2.088.947-2.088 2.374v3.891zm10.174.18c-2.133 0-3.425-1.593-3.425-3.832 0-2.253 1.307-3.906 3.485-3.906 1.127 0 2.074.496 2.57 1.397V77.72h1.397v11.058h-1.262l-.12-1.337c-.481 1.007-1.473 1.518-2.645 1.518zm.286-1.277c1.442 0 2.329-1.067 2.329-2.6 0-1.502-.887-2.584-2.329-2.584-1.443 0-2.284 1.082-2.284 2.584 0 1.518.841 2.6 2.284 2.6zm9.105-6.25h1.082v-1.172c0-1.803.991-2.54 2.329-2.54.27 0 .586.016.871.06v1.218h-.631c-.916 0-1.157.465-1.157 1.262v1.171h1.743v1.187h-1.743v6.16h-1.412v-6.16h-1.082V81.43zm4.849 3.665c0-2.268 1.623-3.86 3.831-3.86 2.194 0 3.816 1.592 3.816 3.86 0 2.27-1.622 3.862-3.816 3.862-2.208 0-3.831-1.593-3.831-3.862zm1.427 0c0 1.533.977 2.6 2.404 2.6 1.412 0 2.404-1.067 2.404-2.6 0-1.532-.992-2.599-2.404-2.599-1.427 0-2.404 1.067-2.404 2.6zm7.303.015c0-2.298 1.457-3.89 3.606-3.89 1.848 0 3.14 1.05 3.395 2.688h-1.412c-.24-.931-.992-1.427-1.938-1.427-1.337 0-2.254 1.022-2.254 2.614 0 1.578.857 2.6 2.194 2.6 1.006 0 1.758-.526 2.013-1.398h1.412c-.285 1.593-1.652 2.66-3.425 2.66-2.164 0-3.591-1.533-3.591-3.847zm13.584-3.68h1.398v7.346h-1.262l-.151-1.111c-.42.766-1.397 1.292-2.479 1.292-1.712 0-2.674-1.157-2.674-2.96V81.43h1.412v4.102c0 1.578.677 2.179 1.758 2.179 1.292 0 1.998-.827 1.998-2.404V81.43zm2.699 5.213h1.352c0 .751.571 1.202 1.503 1.202.991 0 1.562-.406 1.562-1.082 0-.496-.24-.796-1.006-.992l-1.292-.3c-1.308-.316-1.924-.962-1.924-2.043 0-1.353 1.142-2.209 2.765-2.209 1.607 0 2.659.902 2.689 2.299h-1.352c-.03-.736-.526-1.202-1.382-1.202-.887 0-1.382.39-1.382 1.067 0 .495.36.826 1.081 1.006l1.292.316c1.247.3 1.863.871 1.863 1.968 0 1.397-1.202 2.284-2.944 2.284-1.728 0-2.825-.917-2.825-2.314zm13.517 2.133h-1.412v-6.16h-1.443V81.43h1.443v-2.298h1.412v2.298h1.442v1.187h-1.442v6.16zm3.401-9.09a.937.937 0 0 1-.932-.93c0-.527.421-.932.932-.932.511 0 .931.405.931.931 0 .511-.42.932-.931.932zm-.691 9.09V81.43h1.412v7.347h-1.412zm4.875 0h-1.413V81.43h1.262l.136.962c.375-.691 1.157-1.172 2.193-1.172 1.142 0 1.953.571 2.329 1.488.346-.917 1.232-1.488 2.374-1.488 1.683 0 2.704 1.052 2.704 2.75v4.807h-1.382v-4.462c0-1.157-.646-1.818-1.638-1.818-1.066 0-1.773.751-1.773 1.923v4.357h-1.397V84.3c0-1.157-.631-1.788-1.622-1.788-1.067 0-1.773.736-1.773 1.908v4.357zm14.713.18c-2.163 0-3.651-1.562-3.651-3.846 0-2.298 1.458-3.89 3.591-3.89 2.088 0 3.456 1.441 3.456 3.62v.526l-5.68.015c.106 1.547.917 2.404 2.314 2.404 1.097 0 1.818-.451 2.058-1.292h1.323c-.361 1.577-1.593 2.464-3.411 2.464zm-.06-6.55c-1.232 0-2.013.736-2.194 2.028h4.237c0-1.217-.796-2.028-2.043-2.028z"/><path fill="#020710" fill-opacity=".8" d="M210.42 90.174v-14.43h.937v14.43h-.937z"/><g opacity=".8"><path fill="#fff" d="M549.822 72.491h19.064v19.064h-19.064z"/><path fill="#7A8089" fill-rule="evenodd" d="M553.914 76.584a.953.953 0 0 1 1.348 0l4.092 4.092 4.092-4.092a.953.953 0 1 1 1.348 1.348l-4.092 4.092 4.092 4.092a.954.954 0 0 1-1.348 1.348l-4.092-4.092-4.092 4.092a.953.953 0 1 1-1.348-1.348l4.092-4.092-4.092-4.092a.954.954 0 0 1 0-1.348z" clip-rule="evenodd" opacity=".5"/></g><path stroke="#F2F3F8" stroke-width="1.156" d="M54 109.468h538"/><path fill="#7A8089" d="M82.07 138.068c-2.706 0-4.46-1.881-4.46-4.792 0-2.885 1.817-4.804 4.537-4.804 2.199 0 3.838 1.284 4.156 3.279h-1.716c-.318-1.08-1.245-1.716-2.478-1.716-1.716 0-2.796 1.246-2.796 3.229 0 1.969 1.093 3.24 2.796 3.24 1.258 0 2.224-.661 2.529-1.69h1.69c-.356 1.957-2.059 3.254-4.257 3.254zm5.12-3.305c0-1.957 1.41-3.304 3.355-3.304s3.355 1.347 3.355 3.304c0 1.957-1.41 3.305-3.355 3.305s-3.355-1.348-3.355-3.305zm1.55 0c0 1.144.738 1.919 1.805 1.919 1.068 0 1.805-.775 1.805-1.919 0-1.144-.737-1.919-1.805-1.919-1.067 0-1.805.775-1.805 1.919zm7.94 3.152h-1.55v-6.278h1.423l.127.737c.317-.521.953-.928 1.855-.928.953 0 1.614.47 1.945 1.195.317-.725 1.055-1.195 2.008-1.195 1.525 0 2.364.915 2.364 2.364v4.105h-1.538v-3.698c0-.903-.483-1.373-1.22-1.373-.75 0-1.322.483-1.322 1.513v3.558h-1.55v-3.711c0-.877-.47-1.347-1.208-1.347-.737 0-1.334.483-1.334 1.5v3.558zm11.244 0h-1.55v-6.278h1.423l.127.737c.318-.521.953-.928 1.856-.928.953 0 1.614.47 1.944 1.195.318-.725 1.055-1.195 2.008-1.195 1.525 0 2.364.915 2.364 2.364v4.105h-1.538v-3.698c0-.903-.483-1.373-1.22-1.373-.75 0-1.321.483-1.321 1.513v3.558h-1.551v-3.711c0-.877-.47-1.347-1.207-1.347-.737 0-1.335.483-1.335 1.5v3.558zm11.562.165c-1.334 0-2.147-.775-2.147-1.957 0-1.156.838-1.881 2.325-1.995l1.881-.14v-.14c0-.851-.508-1.194-1.296-1.194-.915 0-1.423.381-1.423 1.042h-1.322c0-1.36 1.118-2.25 2.821-2.25 1.691 0 2.733.915 2.733 2.656v3.813h-1.36l-.115-.928c-.266.648-1.118 1.093-2.097 1.093zm.509-1.169c.953 0 1.563-.572 1.563-1.538v-.33l-1.309.101c-.966.089-1.334.407-1.334.916 0 .571.381.851 1.08.851zm6.136 1.004h-1.55v-6.278h1.436l.127.813c.394-.635 1.157-1.004 2.008-1.004 1.576 0 2.389.979 2.389 2.605v3.864h-1.55v-3.495c0-1.055-.521-1.563-1.322-1.563-.953 0-1.538.661-1.538 1.677v3.381zm8.514.165c-1.818 0-2.949-1.334-2.949-3.279 0-1.957 1.144-3.355 3.038-3.355.877 0 1.652.369 2.046.991v-3.977h1.538v9.455h-1.424l-.101-.979c-.382.725-1.195 1.144-2.148 1.144zm.343-1.423c1.08 0 1.779-.775 1.779-1.907 0-1.131-.699-1.919-1.779-1.919s-1.741.801-1.741 1.919c0 1.119.661 1.907 1.741 1.907zm4.463-.648h1.474c.012.546.419.889 1.131.889.724 0 1.118-.292 1.118-.75 0-.317-.165-.546-.724-.673l-1.131-.267c-1.131-.254-1.678-.788-1.678-1.792 0-1.233 1.042-1.97 2.491-1.97 1.411 0 2.364.814 2.377 2.034h-1.475c-.012-.534-.368-.877-.965-.877-.61 0-.966.279-.966.749 0 .356.279.585.813.712l1.131.267c1.055.242 1.589.725 1.589 1.69 0 1.271-1.08 2.059-2.631 2.059-1.563 0-2.554-.839-2.554-2.071z"/><rect width="510.263" height="37.555" x="67.868" y="152.161" fill="#F9FCFF" rx="8.218"/><path stroke="#7A8089" stroke-linecap="round" stroke-width="1.156" d="M82.746 178.088h5.56a1.59 1.59 0 0 0 1.589-1.589v-7.614a.794.794 0 0 0-.233-.562l-4.3-4.3a.795.795 0 0 0-.562-.233h-4.437a1.59 1.59 0 0 0-1.589 1.589v8.737m0 3.972 3.876-3.876m0 0a2.382 2.382 0 1 0 3.371-3.369 2.382 2.382 0 0 0-3.371 3.369z" opacity=".8"/><path fill="#020710" d="M106.723 171.538h-3.609v3.901h-1.246v-9.188h5.541v1.144h-4.295v3.012h3.609v1.131zm2.576-3.788a.791.791 0 0 1-.788-.787c0-.445.356-.788.788-.788.432 0 .788.343.788.788a.791.791 0 0 1-.788.787zm-.585 7.689v-6.214h1.195v6.214h-1.195zm4.124 0h-1.195v-6.214h1.081l.127.953c.394-.712 1.182-1.131 2.059-1.131 1.639 0 2.389 1.004 2.389 2.592v3.8h-1.195v-3.533c0-1.258-.584-1.766-1.499-1.766-1.119 0-1.767.8-1.767 2.008v3.291zm8.606.153c-1.804 0-2.897-1.347-2.897-3.241 0-1.906 1.105-3.304 2.948-3.304.953 0 1.754.419 2.174 1.182v-4.143h1.181v9.353h-1.067l-.102-1.131c-.406.852-1.245 1.284-2.237 1.284zm.242-1.08c1.22 0 1.97-.903 1.97-2.199 0-1.271-.75-2.186-1.97-2.186s-1.932.915-1.932 2.186c0 1.284.712 2.199 1.932 2.199zm7.702-5.287h.915v-.992c0-1.525.839-2.147 1.97-2.147.229 0 .496.012.737.05v1.03h-.534c-.775 0-.978.394-.978 1.067v.992h1.474v1.004h-1.474v5.21h-1.195v-5.21h-.915v-1.004zm4.102 3.101c0-1.919 1.372-3.266 3.241-3.266 1.855 0 3.228 1.347 3.228 3.266s-1.373 3.266-3.228 3.266c-1.869 0-3.241-1.347-3.241-3.266zm1.207 0c0 1.296.826 2.198 2.034 2.198 1.194 0 2.033-.902 2.033-2.198 0-1.297-.839-2.199-2.033-2.199-1.208 0-2.034.902-2.034 2.199zm6.177.012c0-1.944 1.233-3.291 3.051-3.291 1.563 0 2.656.889 2.872 2.275h-1.195c-.203-.788-.839-1.208-1.639-1.208-1.131 0-1.907.865-1.907 2.212 0 1.334.725 2.198 1.856 2.198.851 0 1.487-.444 1.703-1.182h1.195c-.242 1.348-1.398 2.25-2.898 2.25-1.83 0-3.038-1.296-3.038-3.254zm11.492-3.113h1.182v6.214h-1.068l-.127-.94c-.356.648-1.182 1.093-2.097 1.093-1.449 0-2.262-.979-2.262-2.504v-3.863h1.194v3.469c0 1.335.572 1.843 1.487 1.843 1.093 0 1.691-.699 1.691-2.033v-3.279zm2.282 4.41h1.144c0 .635.483 1.016 1.271 1.016.839 0 1.322-.343 1.322-.915 0-.419-.203-.673-.852-.838l-1.093-.255c-1.105-.266-1.626-.813-1.626-1.728 0-1.144.966-1.868 2.338-1.868 1.36 0 2.25.762 2.275 1.944h-1.144c-.025-.622-.445-1.016-1.169-1.016-.75 0-1.169.33-1.169.902 0 .419.305.699.915.851l1.093.267c1.055.254 1.576.737 1.576 1.665 0 1.182-1.017 1.932-2.491 1.932-1.462 0-2.39-.775-2.39-1.957zm11.435 1.804h-1.195v-5.21h-1.22v-1.004h1.22v-1.945h1.195v1.945h1.22v1.004h-1.22v5.21zm2.876-7.689a.791.791 0 0 1-.788-.787c0-.445.356-.788.788-.788.432 0 .788.343.788.788a.791.791 0 0 1-.788.787zm-.584 7.689v-6.214h1.194v6.214h-1.194zm4.123 0h-1.194v-6.214h1.067l.115.813c.317-.584.978-.991 1.855-.991.966 0 1.652.483 1.97 1.258.292-.775 1.042-1.258 2.008-1.258 1.424 0 2.288.889 2.288 2.326v4.066h-1.169v-3.774c0-.979-.547-1.538-1.386-1.538-.902 0-1.499.636-1.499 1.627v3.685h-1.182v-3.787c0-.978-.534-1.512-1.373-1.512-.902 0-1.5.623-1.5 1.614v3.685zm12.446.153c-1.83 0-3.088-1.322-3.088-3.254 0-1.944 1.233-3.291 3.038-3.291 1.766 0 2.923 1.22 2.923 3.063v.445l-4.804.012c.089 1.309.775 2.034 1.957 2.034.928 0 1.538-.382 1.741-1.093h1.118c-.305 1.334-1.347 2.084-2.885 2.084zm-.05-5.541c-1.043 0-1.703.623-1.856 1.716h3.584c0-1.03-.674-1.716-1.728-1.716z"/><rect width="64.868" height="15.934" x="506.329" y="162.972" fill="#E74723" fill-opacity=".03" rx="7.967"/><path fill="#FB552F" d="M514.751 173.438h-.906v-5.256h.914l2.466 3.725v-3.725h.906v5.256h-.906l-2.474-3.724v3.724zm7.808 0h-3.264v-5.256h3.264v.848h-2.344v1.352h2.1v.813h-2.1v1.395h2.344v.848zm2.091 0-1.567-5.256h.956l.834 2.776c.079.287.159.582.238 1.042.086-.467.165-.74.258-1.042l.827-2.776h1.014l.813 2.776c.086.294.165.596.252 1.042.1-.489.172-.769.251-1.035l.849-2.783h.935l-1.597 5.256h-.891l-1.122-3.825-1.144 3.825h-.906zm11.166-2.15h-1.956v2.15h-.921v-5.256h3.251v.848h-2.33v1.431h1.956v.827zm4.468 2.15h-3.265v-5.256h3.265v.848h-2.344v1.352h2.1v.813h-2.1v1.395h2.344v.848zm1.451 0h-.956l1.898-5.256h.942l1.899 5.256h-.971l-.424-1.215h-1.964l-.424 1.215zm1.294-3.689-.596 1.698h1.423l-.604-1.698c-.043-.136-.093-.294-.107-.402-.022.1-.065.259-.116.402zm2.217-.719v-.848h3.998v.848h-1.539v4.408h-.92v-4.408h-1.539zm4.666 2.488v-3.336h.92v3.279c0 .755.41 1.172 1.158 1.172s1.165-.424 1.165-1.172v-3.279h.92v3.336c0 1.23-.805 2.007-2.085 2.007-1.273 0-2.078-.77-2.078-2.007zm6.216 1.92h-.92v-5.256h2.006c1.194 0 1.891.604 1.891 1.639 0 .705-.331 1.208-.949 1.46l.999 2.157h-1.006l-.892-1.963h-1.129v1.963zm0-4.436v1.661h1.086c.582 0 .928-.309.928-.842 0-.525-.346-.819-.928-.819h-1.086zm7.162 4.436h-3.265v-5.256h3.265v.848h-2.345v1.352h2.1v.813h-2.1v1.395h2.345v.848z"/><g filter="url(#c)"><path fill="#020710" stroke="#fff" stroke-width="1.48" d="m208.615 189.432-.012.015-.011.016-3.231 4.726c-.897 1.313-2.914.9-3.2-.654l-3.632-19.746c-.289-1.571 1.476-2.718 2.773-1.802l16.869 11.914c1.274.9.828 2.908-.712 3.207l-7.434 1.446a2.333 2.333 0 0 0-1.41.878z"/></g><path stroke="#F2F3F8" stroke-width="1.589" d="M54 202.79h538"/><path fill="#7A8089" d="M77.61 224.754c0-1.626 1.347-2.757 3.304-2.757 1.881 0 3.076 1.042 3.127 2.719h-1.627c-.038-.8-.61-1.271-1.525-1.271-1.004 0-1.652.483-1.652 1.259 0 .661.356 1.029 1.13 1.207l1.462.318c1.589.343 2.364 1.156 2.364 2.542 0 1.728-1.347 2.846-3.393 2.846-1.983 0-3.28-1.054-3.317-2.719h1.627c.012.788.648 1.258 1.69 1.258 1.08 0 1.766-.47 1.766-1.246 0-.622-.317-.991-1.08-1.156l-1.474-.331c-1.576-.343-2.402-1.245-2.402-2.669zm9.377 6.698h-1.55v-9.455h1.562v3.99c.394-.61 1.131-1.004 2.034-1.004 1.55 0 2.364.979 2.364 2.606v3.863h-1.55v-3.495c0-1.055-.522-1.563-1.31-1.563-.979 0-1.55.686-1.55 1.627v3.431zm5.565-3.152c0-1.957 1.41-3.304 3.355-3.304 1.944 0 3.355 1.347 3.355 3.304 0 1.957-1.41 3.305-3.355 3.305s-3.355-1.348-3.355-3.305zm1.55 0c0 1.144.737 1.919 1.805 1.919 1.067 0 1.804-.775 1.804-1.919 0-1.144-.737-1.919-1.804-1.919-1.068 0-1.805.775-1.805 1.919zm10.329-3.152v1.437h-.572c-1.119 0-1.818.597-1.818 1.817v3.05h-1.55v-6.265h1.461l.089.915c.267-.623.865-1.042 1.703-1.042.216 0 .432.025.687.088zm3.432 6.304h-1.55v-4.982h-1.207v-1.296h1.207v-1.957h1.55v1.957h1.221v1.296h-1.221v4.982zm1.754-3.152c0-1.944 1.283-3.317 3.139-3.317 1.716 0 2.885.953 3.05 2.466h-1.55c-.178-.712-.699-1.08-1.437-1.08-.991 0-1.652.749-1.652 1.931s.61 1.919 1.602 1.919c.775 0 1.321-.381 1.487-1.067h1.563c-.191 1.461-1.411 2.465-3.05 2.465-1.907 0-3.152-1.321-3.152-3.317zm11.613-3.126h1.551v6.278h-1.436l-.115-.839c-.381.598-1.194 1.004-2.033 1.004-1.449 0-2.3-.978-2.3-2.516v-3.927h1.55v3.38c0 1.195.47 1.678 1.335 1.678.978 0 1.448-.572 1.448-1.766v-3.292zm5.287 6.278h-1.55v-4.982h-1.207v-1.296h1.207v-1.957h1.55v1.957h1.22v1.296h-1.22v4.982zm1.701-1.906h1.475c.012.546.419.889 1.131.889.724 0 1.118-.292 1.118-.749 0-.318-.165-.547-.724-.674l-1.131-.267c-1.131-.254-1.678-.788-1.678-1.792 0-1.233 1.042-1.97 2.491-1.97 1.411 0 2.364.814 2.377 2.034h-1.475c-.012-.534-.368-.877-.966-.877-.61 0-.965.279-.965.75 0 .355.279.584.813.711l1.131.267c1.055.242 1.589.725 1.589 1.691 0 1.27-1.081 2.058-2.631 2.058-1.563 0-2.555-.838-2.555-2.071z"/><path stroke="#7A8089" stroke-linecap="round" stroke-linejoin="round" stroke-width="1.156" d="M87.44 262.887v-5.56l-7.148 8.738h5.56v5.56L93 262.887h-5.56z" opacity=".8"/><path fill="#020710" d="M105.425 269.23h-1.245v-9.188h1.245l4.702 7.104v-7.104h1.246v9.188h-1.246l-4.702-7.104v7.104zm10.566.153c-1.83 0-3.088-1.322-3.088-3.254 0-1.944 1.233-3.291 3.037-3.291 1.767 0 2.923 1.22 2.923 3.063v.445l-4.804.012c.089 1.309.776 2.034 1.957 2.034.928 0 1.538-.382 1.742-1.093h1.118c-.305 1.334-1.347 2.084-2.885 2.084zm-.051-5.541c-1.042 0-1.703.623-1.855 1.716h3.584c0-1.03-.674-1.716-1.729-1.716zm5.381 5.388-2.033-6.214h1.232l1.03 3.228c.14.457.267.928.381 1.474.102-.546.267-1.067.407-1.474l1.042-3.228h1.22l1.029 3.228c.102.305.305 1.029.407 1.474.102-.496.216-.928.394-1.474l1.042-3.228h1.246l-2.123 6.214h-1.131l-1.08-3.329a12.111 12.111 0 0 1-.394-1.449c-.064.305-.178.712-.407 1.461l-1.08 3.317h-1.182zm14.578.153c-1.831 0-3.089-1.322-3.089-3.254 0-1.944 1.233-3.291 3.038-3.291 1.766 0 2.923 1.22 2.923 3.063v.445l-4.804.012c.089 1.309.775 2.034 1.957 2.034.928 0 1.538-.382 1.741-1.093h1.119c-.306 1.334-1.348 2.084-2.885 2.084zm-.051-5.541c-1.042 0-1.703.623-1.856 1.716h3.584c0-1.03-.673-1.716-1.728-1.716zm5.787 5.388-2.503-6.214h1.271l1.359 3.469c.216.585.394 1.106.496 1.487.102-.406.305-.94.521-1.487l1.385-3.469h1.246l-2.593 6.214h-1.182zm7.122.153c-1.831 0-3.089-1.322-3.089-3.254 0-1.944 1.233-3.291 3.038-3.291 1.766 0 2.923 1.22 2.923 3.063v.445l-4.804.012c.089 1.309.775 2.034 1.957 2.034.928 0 1.538-.382 1.741-1.093h1.118c-.305 1.334-1.347 2.084-2.884 2.084zm-.051-5.541c-1.042 0-1.703.623-1.856 1.716h3.584c0-1.03-.673-1.716-1.728-1.716zm5.452 5.388h-1.195v-6.214h1.08l.127.953c.394-.712 1.182-1.131 2.059-1.131 1.64 0 2.39 1.004 2.39 2.592v3.8h-1.195v-3.533c0-1.258-.585-1.766-1.5-1.766-1.118 0-1.766.8-1.766 2.008v3.291zm7.869 0h-1.195v-5.21h-1.22v-1.004h1.22v-1.945h1.195v1.945h1.22v1.004h-1.22v5.21z"/><rect width="19.869" height="17.934" x="549.017" y="255.509" fill="#F9FCFF" rx="4.623"/><path fill="#7A8089" d="M560.806 267.976h-4.078v-6.685h4.078v.832h-3.172v2.09h2.857v.804h-2.857v2.117h3.172v.842z" opacity=".5"/><path stroke="#7A8089" stroke-linecap="round" stroke-linejoin="round" stroke-width="1.156" d="M87.44 303.91v-5.56l-7.148 8.737h5.56v5.56L93 303.91h-5.56z" opacity=".8"/><path fill="#020710" d="M105.425 310.253h-1.246v-9.189h1.246l4.702 7.105v-7.105h1.246v9.189h-1.246l-4.702-7.104v7.104zm10.566.152c-1.83 0-3.088-1.321-3.088-3.253 0-1.945 1.232-3.292 3.037-3.292 1.767 0 2.923 1.22 2.923 3.063v.445l-4.804.013c.089 1.309.775 2.033 1.957 2.033.928 0 1.538-.381 1.742-1.093h1.118c-.305 1.335-1.347 2.084-2.885 2.084zm-.051-5.541c-1.042 0-1.703.623-1.855 1.716h3.584c0-1.029-.674-1.716-1.729-1.716zm5.381 5.389-2.033-6.215h1.232l1.03 3.228c.14.458.267.928.381 1.475a10.54 10.54 0 0 1 .407-1.475l1.042-3.228h1.22l1.029 3.228c.102.305.305 1.03.407 1.475.102-.496.216-.928.394-1.475l1.042-3.228h1.246l-2.123 6.215h-1.131l-1.08-3.33a11.922 11.922 0 0 1-.394-1.449c-.064.305-.178.712-.407 1.462l-1.08 3.317h-1.182zm13.09 0h-1.194v-6.215h1.067l.115.814c.318-.585.978-.992 1.855-.992.966 0 1.652.483 1.97 1.258.293-.775 1.042-1.258 2.008-1.258 1.424 0 2.288.89 2.288 2.326v4.067h-1.169v-3.775c0-.978-.547-1.537-1.386-1.537-.902 0-1.499.635-1.499 1.626v3.686h-1.182v-3.787c0-.979-.534-1.513-1.373-1.513-.902 0-1.5.623-1.5 1.614v3.686zm12.446.152c-1.83 0-3.088-1.321-3.088-3.253 0-1.945 1.233-3.292 3.038-3.292 1.766 0 2.923 1.22 2.923 3.063v.445l-4.804.013c.089 1.309.775 2.033 1.957 2.033.928 0 1.538-.381 1.741-1.093h1.118c-.305 1.335-1.347 2.084-2.885 2.084zm-.05-5.541c-1.042 0-1.703.623-1.856 1.716h3.584c0-1.029-.673-1.716-1.728-1.716zm6.939 5.541c-1.83 0-3.089-1.321-3.089-3.253 0-1.945 1.233-3.292 3.038-3.292 1.766 0 2.923 1.22 2.923 3.063v.445l-4.804.013c.089 1.309.775 2.033 1.957 2.033.928 0 1.538-.381 1.741-1.093h1.119c-.305 1.335-1.348 2.084-2.885 2.084zm-.051-5.541c-1.042 0-1.703.623-1.856 1.716h3.584c0-1.029-.673-1.716-1.728-1.716zm5.949 5.389h-1.195v-5.211h-1.22v-1.004h1.22v-1.944h1.195v1.944h1.22v1.004h-1.22v5.211zm2.877-7.689a.792.792 0 0 1-.788-.788c0-.445.356-.788.788-.788.432 0 .788.343.788.788a.792.792 0 0 1-.788.788zm-.585 7.689v-6.215h1.195v6.215h-1.195zm4.124 0h-1.195v-6.215h1.081l.127.953c.394-.711 1.182-1.131 2.059-1.131 1.639 0 2.389 1.004 2.389 2.593v3.8h-1.195v-3.533c0-1.258-.584-1.767-1.5-1.767-1.118 0-1.766.801-1.766 2.008v3.292zm5.721-3.266c0-1.754 1.132-3.127 2.936-3.127 1.004 0 1.78.458 2.174 1.233l.088-1.055h1.068v5.961c0 1.957-1.207 3.202-3.114 3.202-1.69 0-2.847-.953-3.075-2.529h1.194c.153.915.839 1.449 1.881 1.449 1.17 0 1.932-.762 1.932-1.944v-1.246c-.407.725-1.22 1.157-2.199 1.157-1.766 0-2.885-1.36-2.885-3.101zm1.195-.026c0 1.17.725 2.085 1.894 2.085 1.207 0 1.944-.865 1.944-2.085 0-1.194-.711-2.059-1.932-2.059-1.194 0-1.906.915-1.906 2.059z"/><rect width="21.869" height="17.934" x="547.017" y="296.531" fill="#F9FCFF" rx="4.623"/><path fill="#7A8089" d="M555.616 308.998h-.888v-6.685h.888l2.302 5.622 2.302-5.622h.906v6.685h-.887v-2.644c0-1.248.009-1.701.055-2.173l-1.951 4.817h-.85l-1.942-4.798c.046.323.065 1.007.065 1.941v2.857z" opacity=".5"/><path stroke="#7A8089" stroke-linecap="round" stroke-linejoin="round" stroke-width="1.156" d="M87.44 344.931v-5.56l-7.148 8.738h5.56v5.56L93 344.931h-5.56z" opacity=".8"/><path fill="#020710" d="M103.646 344.564c0-1.576 1.271-2.643 3.164-2.643 1.754 0 2.885.978 2.987 2.567h-1.258c-.064-.915-.712-1.449-1.741-1.449-1.157 0-1.907.585-1.907 1.487 0 .737.42 1.182 1.284 1.385l1.512.356c1.5.343 2.263 1.157 2.263 2.453 0 1.652-1.284 2.707-3.241 2.707-1.869 0-3.114-.979-3.19-2.555h1.271c.025.877.762 1.437 1.919 1.437 1.22 0 1.995-.572 1.995-1.487 0-.725-.394-1.182-1.271-1.386l-1.512-.343c-1.5-.343-2.275-1.207-2.275-2.529zm8.86 6.698h-1.195v-9.341h1.195v4.092c.394-.674 1.144-1.131 2.11-1.131 1.588 0 2.351 1.004 2.351 2.592v3.8h-1.195v-3.533c0-1.258-.597-1.766-1.487-1.766-1.156 0-1.779.839-1.779 1.906v3.381zm7.933.165c-1.335 0-2.123-.75-2.123-1.881 0-1.144.852-1.856 2.313-1.97l1.958-.152v-.178c0-1.042-.623-1.411-1.462-1.411-1.004 0-1.576.445-1.576 1.195h-1.042c0-1.297 1.068-2.148 2.669-2.148 1.538 0 2.58.813 2.58 2.491v3.901h-1.017l-.127-1.004c-.318.712-1.169 1.157-2.173 1.157zm.343-.928c1.131 0 1.817-.737 1.817-1.906v-.331l-1.588.127c-1.055.102-1.487.509-1.487 1.119 0 .661.483.991 1.258.991zm8.187-5.49v1.093h-.534c-1.131 0-1.83.686-1.83 1.881v3.291h-1.195v-6.202h1.119l.076.941c.254-.648.877-1.08 1.728-1.08.216 0 .394.025.636.076zm3.579 6.418c-1.831 0-3.089-1.322-3.089-3.254 0-1.944 1.233-3.291 3.038-3.291 1.766 0 2.923 1.22 2.923 3.063v.444l-4.804.013c.089 1.309.775 2.034 1.957 2.034.928 0 1.538-.382 1.741-1.093h1.119c-.306 1.334-1.348 2.084-2.885 2.084zm-.051-5.541c-1.042 0-1.703.623-1.856 1.716h3.584c0-1.03-.673-1.716-1.728-1.716zm8.927 5.388h-1.195v-6.214h1.068l.114.813c.318-.585.979-.991 1.856-.991.966 0 1.652.483 1.97 1.258.292-.775 1.042-1.258 2.008-1.258 1.423 0 2.287.889 2.287 2.326v4.066h-1.169V347.5c0-.979-.546-1.538-1.385-1.538-.903 0-1.5.635-1.5 1.627v3.685h-1.182v-3.787c0-.978-.534-1.512-1.372-1.512-.903 0-1.5.622-1.5 1.614v3.685zm9.043 2.784v-.979h.801c.571 0 1.029-.089 1.321-.877l.216-.597-2.503-6.545h1.258l1.805 5.007 1.842-5.007h1.233l-2.936 7.612c-.419 1.068-1.042 1.513-1.995 1.513-.394 0-.724-.051-1.042-.127zm12.219-2.631c-1.334 0-2.122-.75-2.122-1.881 0-1.144.852-1.856 2.313-1.97l1.957-.152v-.178c0-1.042-.623-1.411-1.461-1.411-1.004 0-1.576.445-1.576 1.195h-1.042c0-1.297 1.067-2.148 2.669-2.148 1.537 0 2.579.813 2.579 2.491v3.901h-1.016l-.127-1.004c-.318.712-1.17 1.157-2.174 1.157zm.344-.928c1.131 0 1.817-.737 1.817-1.906v-.331l-1.589.127c-1.055.102-1.487.509-1.487 1.119 0 .661.483.991 1.259.991zm6.121.775-2.504-6.214h1.271l1.36 3.469c.216.585.394 1.106.496 1.487.101-.406.305-.94.521-1.487l1.385-3.469h1.245l-2.592 6.214h-1.182zm6.257.153c-1.335 0-2.123-.75-2.123-1.881 0-1.144.852-1.856 2.313-1.97l1.958-.152v-.178c0-1.042-.623-1.411-1.462-1.411-1.004 0-1.576.445-1.576 1.195h-1.042c0-1.297 1.068-2.148 2.669-2.148 1.538 0 2.58.813 2.58 2.491v3.901h-1.017l-.127-1.004c-.318.712-1.169 1.157-2.173 1.157zm.343-.928c1.131 0 1.817-.737 1.817-1.906v-.331l-1.588.127c-1.055.102-1.487.509-1.487 1.119 0 .661.483.991 1.258.991zm5.213-6.914a.791.791 0 0 1-.788-.788c0-.444.356-.787.788-.787.432 0 .788.343.788.787a.791.791 0 0 1-.788.788zm-.585 7.689v-6.214h1.195v6.214h-1.195zm4.149 0h-1.194v-9.353h1.194v9.353zm3.576.153c-1.334 0-2.122-.75-2.122-1.881 0-1.144.852-1.856 2.313-1.97l1.957-.152v-.178c0-1.042-.622-1.411-1.461-1.411-1.004 0-1.576.445-1.576 1.195h-1.042c0-1.297 1.067-2.148 2.669-2.148 1.537 0 2.58.813 2.58 2.491v3.901h-1.017l-.127-1.004c-.318.712-1.17 1.157-2.174 1.157zm.344-.928c1.131 0 1.817-.737 1.817-1.906v-.331l-1.589.127c-1.054.102-1.487.509-1.487 1.119 0 .661.483.991 1.259.991zm5.708.775h-1.08v-9.353h1.195v4.206c.406-.813 1.245-1.245 2.262-1.245 1.779 0 2.847 1.398 2.847 3.317 0 1.881-1.119 3.228-2.923 3.228-.979 0-1.805-.432-2.212-1.284l-.089 1.131zm.127-3.126c0 1.296.737 2.199 1.958 2.199 1.22 0 1.944-.915 1.944-2.199 0-1.271-.724-2.186-1.944-2.186-1.221 0-1.958.915-1.958 2.186zm6.998-4.563a.791.791 0 0 1-.788-.788c0-.444.356-.787.788-.787.432 0 .788.343.788.787a.791.791 0 0 1-.788.788zm-.585 7.689v-6.214h1.195v6.214h-1.195zm4.15 0h-1.195v-9.353h1.195v9.353zm2.343-7.689a.791.791 0 0 1-.788-.788c0-.444.356-.787.788-.787.432 0 .788.343.788.787a.791.791 0 0 1-.788.788zm-.585 7.689v-6.214h1.195v6.214h-1.195zm4.683 0h-1.195v-5.21h-1.22v-1.004h1.22v-1.945h1.195v1.945h1.22v1.004h-1.22v5.21zm1.695 2.784v-.979h.801c.571 0 1.029-.089 1.321-.877l.216-.597-2.503-6.545h1.258l1.805 5.007 1.842-5.007h1.233l-2.936 7.612c-.419 1.068-1.042 1.513-1.995 1.513-.394 0-.724-.051-1.042-.127z"/><rect width="30.246" height="17.934" x="510.837" y="337.553" fill="#F9FCFF" rx="4.623"/><path fill="#7A8089" d="M519.011 350.121c-1.905 0-3.171-1.368-3.171-3.439 0-2.062 1.303-3.458 3.217-3.458 1.507 0 2.663.897 2.912 2.265h-.97c-.25-.869-.999-1.396-1.97-1.396-1.35 0-2.237 1.017-2.237 2.58 0 1.562.887 2.579 2.237 2.579.98 0 1.757-.527 2.007-1.35h.961c-.286 1.332-1.479 2.219-2.986 2.219zm4.818-.101h-.869v-4.522h.777l.083.592c.231-.425.712-.721 1.35-.721.703 0 1.202.351 1.433.915.213-.564.758-.915 1.461-.915 1.035 0 1.664.647 1.664 1.692v2.959h-.851v-2.746c0-.712-.397-1.119-1.007-1.119-.657 0-1.091.462-1.091 1.183v2.682h-.86v-2.756c0-.712-.388-1.1-.999-1.1-.656 0-1.091.453-1.091 1.174v2.682zm8.916.11c-1.313 0-2.108-.98-2.108-2.357 0-1.387.804-2.404 2.145-2.404.693 0 1.276.305 1.581.86v-3.014h.86v6.805h-.777l-.074-.823c-.296.619-.906.933-1.627.933zm.176-.785c.887 0 1.433-.657 1.433-1.6 0-.924-.546-1.59-1.433-1.59-.888 0-1.406.666-1.406 1.59 0 .934.518 1.6 1.406 1.6z" opacity=".5"/><rect width="20.869" height="17.934" x="548.017" y="337.553" fill="#F9FCFF" rx="4.623"/><path fill="#7A8089" d="M556.005 350.02h-.943l2.441-6.685h1.008l2.45 6.685h-.952l-.601-1.665h-2.811l-.592 1.665zm1.887-5.243-1.017 2.792h2.265l-1.027-2.792a2.922 2.922 0 0 1-.111-.388c-.018.092-.064.25-.11.388z" opacity=".5"/><path stroke="#7A8089" stroke-linecap="round" stroke-linejoin="round" stroke-width="1.156" d="M87.44 385.954v-5.56l-7.148 8.737h5.56v5.56L93 385.954h-5.56z" opacity=".8"/><path fill="#020710" d="M107.992 392.437c-2.618 0-4.359-1.881-4.359-4.728 0-2.834 1.792-4.753 4.423-4.753 2.071 0 3.66 1.233 4.003 3.113h-1.334c-.343-1.194-1.373-1.919-2.707-1.919-1.856 0-3.076 1.398-3.076 3.546 0 2.148 1.22 3.546 3.076 3.546 1.347 0 2.414-.724 2.757-1.855h1.322c-.394 1.83-2.033 3.05-4.105 3.05zm8.988-6.406v1.093h-.534c-1.131 0-1.83.687-1.83 1.881v3.292h-1.195v-6.202h1.118l.077.94c.254-.648.877-1.08 1.728-1.08.216 0 .394.025.636.076zm3.578 6.418c-1.83 0-3.088-1.321-3.088-3.253 0-1.945 1.233-3.292 3.037-3.292 1.767 0 2.923 1.22 2.923 3.063v.445l-4.804.013c.089 1.309.776 2.033 1.958 2.033.927 0 1.537-.381 1.741-1.093h1.118c-.305 1.335-1.347 2.084-2.885 2.084zm-.051-5.541c-1.042 0-1.703.623-1.855 1.716h3.584c0-1.029-.674-1.716-1.729-1.716zm6.013 5.541c-1.334 0-2.122-.749-2.122-1.881 0-1.143.851-1.855 2.313-1.969l1.957-.153v-.178c0-1.042-.623-1.411-1.462-1.411-1.004 0-1.575.445-1.575 1.195h-1.043c0-1.296 1.068-2.148 2.669-2.148 1.538 0 2.58.814 2.58 2.491v3.902h-1.016l-.128-1.004c-.317.712-1.169 1.156-2.173 1.156zm.343-.927c1.131 0 1.818-.737 1.818-1.907v-.33l-1.589.127c-1.055.102-1.487.508-1.487 1.118 0 .661.483.992 1.258.992zm6.283.775h-1.194v-5.211h-1.22v-1.004h1.22v-1.944h1.194v1.944h1.22v1.004h-1.22v5.211zm4.912.152c-1.83 0-3.088-1.321-3.088-3.253 0-1.945 1.232-3.292 3.037-3.292 1.767 0 2.923 1.22 2.923 3.063v.445l-4.804.013c.089 1.309.775 2.033 1.957 2.033.928 0 1.538-.381 1.742-1.093h1.118c-.305 1.335-1.347 2.084-2.885 2.084zm-.051-5.541c-1.042 0-1.703.623-1.855 1.716h3.584c0-1.029-.674-1.716-1.729-1.716zm7.072-.826h.915v-.991c0-1.525.839-2.148 1.97-2.148.229 0 .495.013.737.051v1.029h-.534c-.775 0-.978.394-.978 1.068v.991h1.474v1.004h-1.474v5.211h-1.195v-5.211h-.915v-1.004zm4.101 3.101c0-1.919 1.373-3.266 3.241-3.266 1.856 0 3.228 1.347 3.228 3.266s-1.372 3.266-3.228 3.266c-1.868 0-3.241-1.347-3.241-3.266zm1.208 0c0 1.296.826 2.199 2.033 2.199 1.195 0 2.034-.903 2.034-2.199 0-1.296-.839-2.198-2.034-2.198-1.207 0-2.033.902-2.033 2.198zm6.177.013c0-1.945 1.233-3.292 3.05-3.292 1.563 0 2.656.89 2.873 2.275h-1.195c-.203-.788-.839-1.207-1.64-1.207-1.131 0-1.906.864-1.906 2.211 0 1.335.724 2.199 1.856 2.199.851 0 1.487-.445 1.703-1.182h1.194c-.241 1.347-1.398 2.249-2.897 2.249-1.831 0-3.038-1.296-3.038-3.253zm11.491-3.114h1.182v6.215h-1.067l-.127-.941c-.356.649-1.182 1.093-2.097 1.093-1.449 0-2.263-.978-2.263-2.503v-3.864h1.195v3.47c0 1.334.572 1.843 1.487 1.843 1.093 0 1.69-.699 1.69-2.034v-3.279zm2.283 4.41h1.144c0 .636.483 1.017 1.271 1.017.839 0 1.322-.343 1.322-.915 0-.42-.204-.674-.852-.839l-1.093-.254c-1.106-.267-1.627-.813-1.627-1.729 0-1.143.966-1.868 2.339-1.868 1.36 0 2.249.763 2.275 1.945h-1.144c-.026-.623-.445-1.017-1.169-1.017-.75 0-1.17.33-1.17.902 0 .42.305.699.915.852l1.093.267c1.055.254 1.576.737 1.576 1.665 0 1.182-1.016 1.931-2.491 1.931-1.461 0-2.389-.775-2.389-1.957zm11.434 1.805h-1.194v-5.211h-1.221v-1.004h1.221v-1.944h1.194v1.944h1.22v1.004h-1.22v5.211zm2.877-7.689a.792.792 0 0 1-.788-.788c0-.445.356-.788.788-.788.432 0 .788.343.788.788a.792.792 0 0 1-.788.788zm-.585 7.689v-6.215h1.195v6.215h-1.195zm4.124 0h-1.195v-6.215h1.068l.114.814c.318-.585.979-.992 1.856-.992.966 0 1.652.483 1.97 1.258.292-.775 1.042-1.258 2.008-1.258 1.423 0 2.287.89 2.287 2.326v4.067h-1.169v-3.775c0-.978-.546-1.537-1.385-1.537-.902 0-1.5.635-1.5 1.626v3.686h-1.182v-3.787c0-.979-.534-1.513-1.372-1.513-.903 0-1.5.623-1.5 1.614v3.686zm12.446.152c-1.83 0-3.088-1.321-3.088-3.253 0-1.945 1.233-3.292 3.037-3.292 1.767 0 2.923 1.22 2.923 3.063v.445l-4.804.013c.089 1.309.776 2.033 1.957 2.033.928 0 1.538-.381 1.742-1.093h1.118c-.305 1.335-1.347 2.084-2.885 2.084zm-.051-5.541c-1.042 0-1.703.623-1.855 1.716h3.584c0-1.029-.674-1.716-1.729-1.716z"/><rect width="30.246" height="17.934" x="511.837" y="378.575" fill="#F9FCFF" rx="4.623"/><path fill="#7A8089" d="M520.011 391.144c-1.905 0-3.172-1.369-3.172-3.44 0-2.061 1.304-3.458 3.218-3.458 1.507 0 2.663.897 2.912 2.266h-.971c-.249-.869-.998-1.396-1.969-1.396-1.35 0-2.237 1.017-2.237 2.579 0 1.563.887 2.58 2.237 2.58.98 0 1.757-.527 2.006-1.35h.962c-.287 1.331-1.479 2.219-2.986 2.219zm4.818-.102h-.869v-4.521h.777l.083.592c.231-.426.712-.722 1.35-.722.702 0 1.202.352 1.433.916.213-.564.758-.916 1.461-.916 1.035 0 1.664.648 1.664 1.692v2.959h-.851v-2.746c0-.712-.397-1.119-1.007-1.119-.657 0-1.091.463-1.091 1.184v2.681h-.86v-2.755c0-.712-.389-1.1-.999-1.1-.656 0-1.091.453-1.091 1.174v2.681zm8.916.111c-1.313 0-2.108-.98-2.108-2.358 0-1.387.804-2.404 2.145-2.404.693 0 1.276.306 1.581.86v-3.014h.86v6.805h-.777l-.074-.823c-.296.62-.906.934-1.627.934zm.176-.786c.887 0 1.433-.656 1.433-1.599 0-.925-.546-1.591-1.433-1.591-.888 0-1.406.666-1.406 1.591 0 .933.518 1.599 1.406 1.599z" opacity=".5"/><rect width="19.869" height="17.934" x="549.017" y="378.575" fill="#F9FCFF" rx="4.623"/><path fill="#7A8089" d="M560.26 388.204h-2.626v2.838h-.906v-6.685h4.031v.832h-3.125v2.192h2.626v.823z" opacity=".5"/><path stroke="#F2F3F8" stroke-width="1.156" d="M54 419.61h538"/><path stroke="#7A8089" stroke-linecap="round" stroke-linejoin="round" stroke-width="1.156" d="m81.157 445.828 2.383 2.383-2.383 2.383m3.972 0h2.383m-8.738 3.971h11.12a1.59 1.59 0 0 0 1.59-1.588v-9.532a1.59 1.59 0 0 0-1.59-1.589h-11.12a1.59 1.59 0 0 0-1.588 1.589v9.532c0 .877.71 1.588 1.588 1.588z" opacity=".8"/><path fill="#020710" d="M110.154 448.364c0 2.796-1.83 4.753-4.435 4.753-2.593 0-4.397-1.957-4.397-4.753 0-2.783 1.817-4.753 4.41-4.753 2.605 0 4.422 1.957 4.422 4.753zm-1.309 0c0-2.135-1.245-3.546-3.113-3.546-1.869 0-3.101 1.411-3.101 3.546s1.232 3.559 3.101 3.559c1.868 0 3.113-1.436 3.113-3.559zm2.699 7.384v-8.998h1.08l.089 1.119c.42-.852 1.258-1.297 2.25-1.297 1.779 0 2.885 1.335 2.885 3.241 0 1.894-1.042 3.317-2.885 3.317-.992 0-1.818-.419-2.224-1.182v3.8h-1.195zm1.207-5.884c0 1.271.738 2.186 1.958 2.186s1.944-.915 1.944-2.186c0-1.284-.724-2.199-1.944-2.199s-1.958.903-1.958 2.199zm9.095 3.253c-1.83 0-3.088-1.321-3.088-3.253 0-1.945 1.233-3.292 3.037-3.292 1.767 0 2.923 1.22 2.923 3.063v.445l-4.804.013c.089 1.309.776 2.033 1.958 2.033.927 0 1.537-.381 1.741-1.093h1.118c-.305 1.335-1.347 2.084-2.885 2.084zm-.051-5.541c-1.042 0-1.703.623-1.855 1.716h3.584c0-1.029-.674-1.716-1.729-1.716zm5.452 5.389h-1.194v-6.215h1.08l.127.953c.394-.711 1.182-1.131 2.059-1.131 1.639 0 2.389 1.004 2.389 2.593v3.8h-1.194v-3.533c0-1.258-.585-1.767-1.5-1.767-1.119 0-1.767.801-1.767 2.008v3.292zm9.184-3.101c0-1.945 1.233-3.292 3.05-3.292 1.564 0 2.657.89 2.873 2.275h-1.195c-.203-.788-.839-1.207-1.639-1.207-1.132 0-1.907.864-1.907 2.211 0 1.335.725 2.199 1.856 2.199.851 0 1.487-.445 1.703-1.182h1.194c-.241 1.347-1.398 2.249-2.897 2.249-1.83 0-3.038-1.296-3.038-3.253zm6.789-.013c0-1.919 1.373-3.266 3.241-3.266 1.856 0 3.228 1.347 3.228 3.266s-1.372 3.266-3.228 3.266c-1.868 0-3.241-1.347-3.241-3.266zm1.208 0c0 1.296.826 2.199 2.033 2.199 1.195 0 2.033-.903 2.033-2.199 0-1.296-.838-2.199-2.033-2.199-1.207 0-2.033.903-2.033 2.199zm7.778 3.114h-1.194v-6.215h1.067l.114.814c.318-.585.979-.992 1.856-.992.966 0 1.652.483 1.97 1.258.292-.775 1.042-1.258 2.008-1.258 1.423 0 2.288.89 2.288 2.326v4.067h-1.17v-3.775c0-.978-.546-1.538-1.385-1.538-.902 0-1.5.636-1.5 1.627v3.686h-1.182v-3.787c0-.979-.533-1.513-1.372-1.513-.903 0-1.5.623-1.5 1.614v3.686zm10.959 0h-1.194v-6.215h1.067l.115.814c.317-.585.978-.992 1.855-.992.966 0 1.652.483 1.97 1.258.292-.775 1.042-1.258 2.008-1.258 1.423 0 2.288.89 2.288 2.326v4.067h-1.17v-3.775c0-.978-.546-1.538-1.385-1.538-.902 0-1.5.636-1.5 1.627v3.686h-1.182v-3.787c0-.979-.533-1.513-1.372-1.513-.902 0-1.5.623-1.5 1.614v3.686zm11.582.152c-1.334 0-2.122-.749-2.122-1.881 0-1.143.851-1.855 2.313-1.969l1.957-.153v-.178c0-1.042-.623-1.411-1.462-1.411-1.004 0-1.576.445-1.576 1.195h-1.042c0-1.296 1.068-2.148 2.669-2.148 1.538 0 2.58.814 2.58 2.491v3.902h-1.017l-.127-1.004c-.317.712-1.169 1.156-2.173 1.156zm.343-.927c1.131 0 1.818-.738 1.818-1.907v-.33l-1.589.127c-1.055.102-1.487.508-1.487 1.118 0 .661.483.992 1.258.992zm5.823.775h-1.194v-6.215h1.08l.127.953c.394-.711 1.182-1.131 2.059-1.131 1.639 0 2.389 1.004 2.389 2.593v3.8h-1.195v-3.533c0-1.258-.584-1.767-1.499-1.767-1.119 0-1.767.801-1.767 2.008v3.292zm8.607.152c-1.805 0-2.898-1.347-2.898-3.24 0-1.907 1.106-3.305 2.949-3.305.953 0 1.753.42 2.173 1.182v-4.143h1.182v9.354h-1.068l-.102-1.131c-.406.851-1.245 1.283-2.236 1.283zm.241-1.08c1.22 0 1.97-.902 1.97-2.199 0-1.27-.75-2.186-1.97-2.186s-1.932.916-1.932 2.186c0 1.284.712 2.199 1.932 2.199z"/><rect width="30.246" height="17.934" x="511.837" y="439.243" fill="#F9FCFF" rx="4.623"/><path fill="#7A8089" d="M520.011 451.812c-1.905 0-3.171-1.369-3.171-3.44 0-2.062 1.303-3.458 3.217-3.458 1.507 0 2.663.897 2.912 2.266h-.97c-.25-.87-.999-1.397-1.97-1.397-1.35 0-2.237 1.018-2.237 2.58 0 1.563.887 2.58 2.237 2.58.98 0 1.757-.527 2.007-1.35h.961c-.286 1.331-1.479 2.219-2.986 2.219zm4.818-.102h-.869v-4.521h.777l.083.592c.231-.426.712-.722 1.35-.722.703 0 1.202.352 1.433.916.213-.564.758-.916 1.461-.916 1.035 0 1.664.648 1.664 1.692v2.959h-.851v-2.746c0-.712-.397-1.119-1.007-1.119-.657 0-1.091.463-1.091 1.184v2.681h-.86v-2.755c0-.712-.388-1.1-.999-1.1-.656 0-1.091.453-1.091 1.174v2.681zm8.916.111c-1.313 0-2.108-.98-2.108-2.358 0-1.387.804-2.404 2.145-2.404.693 0 1.276.305 1.581.86v-3.014h.86v6.805h-.777l-.074-.823c-.296.62-.906.934-1.627.934zm.176-.786c.887 0 1.433-.656 1.433-1.599 0-.925-.546-1.591-1.433-1.591-.888 0-1.406.666-1.406 1.591 0 .933.518 1.599 1.406 1.599z" opacity=".5"/><rect width="19.869" height="17.934" x="549.017" y="439.243" fill="#F9FCFF" rx="4.623"/><path fill="#7A8089" d="M557.634 445.025v3.791l2.977-3.791h1.082l-2.237 2.839 2.274 3.846h-1.054l-1.821-3.079-1.221 1.544v1.535h-.906v-6.685h.906z" opacity=".5"/><path stroke="#F2F3F8" stroke-width="1.156" d="M78.4 46.578h489.2c6.762 0 11.788 0 15.716.426 3.917.425 6.674 1.266 8.924 2.901a17.415 17.415 0 0 1 3.855 3.855c1.635 2.25 2.476 5.007 2.901 8.924.425 3.928.426 8.954.426 15.716v405.256H46.578V78.4c0-6.762 0-11.788.426-15.716.425-3.917 1.266-6.674 2.901-8.924a17.424 17.424 0 0 1 3.855-3.855c2.25-1.635 5.007-2.476 8.924-2.9 3.928-.426 8.954-.427 15.716-.427z"/></g><path fill="#fff" d="M31 125c0-8.284 6.716-15 15-15v358H31V125z" opacity=".16"/><path fill="#fff" d="M16 174c0-8.284 6.716-15 15-15v309H16V174z" opacity=".08"/><path fill="#fff" d="M615 125c0-8.284-6.716-15-15-15v358h15V125z" opacity=".16"/><path fill="#fff" d="M630 174c0-8.284-6.716-15-15-15v309h15V174z" opacity=".08"/><g filter="url(#d)"><path fill="#020710" d="M-177 377h989v397h-989z"/></g></g><defs><clipPath id="a"><rect width="646" height="468" fill="#fff" rx="16"/></clipPath><clipPath id="b"><path fill="#fff" d="M46 46h554v438.234H46z"/></clipPath><filter id="c" width="45.578" height="48.482" x="185.916" y="169.437" color-interpolation-filters="sRGB" filterUnits="userSpaceOnUse"><feFlood flood-opacity="0" result="BackgroundImageFix"/><feColorMatrix in="SourceAlpha" result="hardAlpha" values="0 0 0 0 0 0 0 0 0 0 0 0 0 0 0 0 0 0 127 0"/><feOffset dy="10.361"/><feGaussianBlur stdDeviation="5.921"/><feColorMatrix values="0 0 0 0 0.695833 0 0 0 0 0.695833 0 0 0 0 0.695833 0 0 0 0.32 0"/><feBlend in2="BackgroundImageFix" result="effect1_dropShadow_1088_25062"/><feBlend in="SourceGraphic" in2="effect1_dropShadow_1088_25062" result="shape"/></filter><filter id="d" width="1189" height="597" x="-277" y="277" color-interpolation-filters="sRGB" filterUnits="userSpaceOnUse"><feFlood flood-opacity="0" result="BackgroundImageFix"/><feBlend in="SourceGraphic" in2="BackgroundImageFix" result="shape"/><feGaussianBlur result="effect1_foregroundBlur_1088_25062" stdDeviation="50"/></filter></defs></svg>